<svg width="395" height="277" viewBox="0 0 395 277" fill="none" xmlns="http://www.w3.org/2000/svg">
<path d="M0 0H394.667V267C394.667 272.523 390.19 277 384.667 277H9.99999C4.47714 277 0 272.523 0 267V0Z" fill="url(#paint0_linear_4286_7336)"/>
<g opacity="0.25">
<mask id="path-2-inside-1_4286_7336" fill="white">
<path d="M102.434 139C102.434 88.7421 143.176 48 193.434 48V48C243.692 48 284.434 88.7421 284.434 139V139C284.434 189.258 243.692 230 193.434 230V230C143.176 230 102.434 189.258 102.434 139V139Z"/>
</mask>
<path d="M193.434 230V228.863C192.682 228.863 191.933 228.853 191.186 228.835L191.158 229.972L191.13 231.109C191.896 231.128 192.664 231.137 193.434 231.137V230ZM188.896 229.889L188.952 228.753C187.452 228.679 185.962 228.569 184.482 228.422L184.37 229.554L184.258 230.686C185.775 230.836 187.303 230.949 188.84 231.025L188.896 229.889ZM182.111 229.302L182.251 228.174C180.762 227.989 179.285 227.768 177.82 227.511L177.623 228.631L177.427 229.752C178.929 230.015 180.444 230.242 181.971 230.431L182.111 229.302ZM175.397 228.213L175.621 227.097C174.151 226.802 172.694 226.47 171.252 226.104L170.972 227.207L170.692 228.309C172.171 228.685 173.665 229.025 175.172 229.328L175.397 228.213ZM168.777 226.62L169.085 225.525C167.642 225.12 166.215 224.68 164.803 224.206L164.441 225.284L164.078 226.362C165.526 226.849 166.99 227.3 168.469 227.715L168.777 226.62ZM162.301 224.535L162.69 223.466C161.283 222.954 159.893 222.408 158.52 221.828L158.078 222.876L157.635 223.924C159.043 224.519 160.469 225.079 161.912 225.604L162.301 224.535ZM155.996 221.967L156.465 220.93C155.101 220.314 153.756 219.665 152.429 218.983L151.909 219.995L151.39 221.007C152.75 221.706 154.13 222.372 155.528 223.004L155.996 221.967ZM149.905 218.934L150.45 217.935C149.137 217.219 147.844 216.47 146.572 215.691L145.977 216.661L145.383 217.631C146.688 218.43 148.014 219.198 149.361 219.932L149.905 218.934ZM144.057 215.452L144.675 214.497C143.419 213.685 142.186 212.842 140.974 211.969L140.31 212.892L139.645 213.815C140.887 214.71 142.152 215.574 143.439 216.407L144.057 215.452ZM138.485 211.544L139.173 210.637C137.982 209.734 136.814 208.802 135.671 207.841L134.939 208.712L134.208 209.583C135.38 210.568 136.577 211.524 137.798 212.45L138.485 211.544ZM133.22 207.231L133.973 206.379C132.853 205.389 131.758 204.373 130.688 203.33L129.894 204.144L129.1 204.958C130.196 206.028 131.319 207.07 132.467 208.084L133.22 207.231ZM128.29 202.54L129.104 201.745C128.061 200.676 127.044 199.581 126.055 198.461L125.202 199.214L124.35 199.967C125.364 201.115 126.406 202.238 127.475 203.334L128.29 202.54ZM123.721 197.494L124.592 196.763C123.632 195.619 122.7 194.452 121.796 193.261L120.89 193.948L119.984 194.636C120.91 195.857 121.866 197.054 122.85 198.226L123.721 197.494ZM119.541 192.124L120.464 191.459C119.592 190.248 118.749 189.014 117.937 187.759L116.982 188.377L116.027 188.995C116.86 190.282 117.724 191.547 118.618 192.789L119.541 192.124ZM115.772 186.456L116.742 185.862C115.963 184.59 115.215 183.296 114.498 181.983L113.5 182.528L112.501 183.073C113.236 184.419 114.003 185.746 114.802 187.05L115.772 186.456ZM112.438 180.524L113.45 180.004C112.769 178.678 112.119 177.332 111.503 175.969L110.467 176.437L109.43 176.906C110.062 178.304 110.728 179.684 111.426 181.044L112.438 180.524ZM109.557 174.356L110.605 173.914C110.026 172.541 109.479 171.15 108.967 169.743L107.898 170.132L106.829 170.522C107.355 171.964 107.915 173.39 108.509 174.798L109.557 174.356ZM107.15 167.993L108.228 167.631C107.754 166.219 107.314 164.791 106.909 163.349L105.814 163.657L104.718 163.964C105.134 165.443 105.585 166.907 106.071 168.355L107.15 167.993ZM105.227 161.462L106.329 161.182C105.963 159.739 105.632 158.283 105.336 156.813L104.221 157.037L103.106 157.261C103.409 158.768 103.749 160.262 104.124 161.742L105.227 161.462ZM103.802 154.81L104.923 154.614C104.666 153.149 104.445 151.671 104.26 150.183L103.131 150.323L102.002 150.463C102.192 151.989 102.419 153.504 102.682 155.007L103.802 154.81ZM102.879 148.064L104.011 147.952C103.865 146.472 103.755 144.982 103.681 143.482L102.545 143.538L101.409 143.593C101.484 145.131 101.597 146.659 101.747 148.176L102.879 148.064ZM102.461 141.276L103.599 141.248C103.58 140.501 103.571 139.751 103.571 139H102.434H101.296C101.296 139.77 101.306 140.538 101.324 141.304L102.461 141.276ZM102.434 139H103.571C103.571 138.249 103.58 137.499 103.599 136.752L102.461 136.724L101.324 136.696C101.306 137.462 101.296 138.23 101.296 139H102.434ZM102.545 134.463L103.681 134.518C103.755 133.018 103.865 131.528 104.011 130.048L102.879 129.936L101.747 129.825C101.597 131.341 101.484 132.869 101.409 134.407L102.545 134.463ZM103.131 127.677L104.26 127.817C104.445 126.329 104.666 124.851 104.923 123.386L103.802 123.19L102.682 122.993C102.419 124.496 102.192 126.011 102.002 127.537L103.131 127.677ZM104.221 120.963L105.336 121.187C105.632 119.717 105.963 118.261 106.329 116.818L105.227 116.538L104.124 116.258C103.749 117.738 103.409 119.232 103.106 120.739L104.221 120.963ZM105.813 114.343L106.909 114.651C107.314 113.209 107.754 111.781 108.228 110.369L107.15 110.007L106.071 109.645C105.585 111.093 105.134 112.557 104.718 114.036L105.813 114.343ZM107.898 107.868L108.967 108.257C109.479 106.85 110.026 105.459 110.605 104.086L109.557 103.644L108.509 103.202C107.915 104.61 107.355 106.036 106.829 107.478L107.898 107.868ZM110.467 101.563L111.503 102.031C112.119 100.668 112.769 99.322 113.45 97.9957L112.438 97.4759L111.426 96.9561C110.728 98.3162 110.062 99.6959 109.43 101.094L110.467 101.563ZM113.5 95.4719L114.498 96.0168C115.215 94.7037 115.963 93.4103 116.742 92.1379L115.772 91.5439L114.802 90.9498C114.003 92.2545 113.236 93.5806 112.501 94.927L113.5 95.4719ZM116.982 89.623L117.937 90.241C118.749 88.9857 119.592 87.752 120.464 86.5408L119.541 85.876L118.618 85.2113C117.724 86.453 116.86 87.7179 116.027 89.005L116.982 89.623ZM120.89 84.0517L121.796 84.7392C122.7 83.5483 123.632 82.3806 124.592 81.2372L123.721 80.5056L122.85 79.774C121.866 80.9462 120.91 82.1433 119.984 83.3642L120.89 84.0517ZM125.202 78.7862L126.055 79.5392C127.044 78.4192 128.061 77.324 129.104 76.2548L128.29 75.4605L127.475 74.6662C126.406 75.7623 125.364 76.885 124.35 78.0332L125.202 78.7862ZM129.894 73.856L130.688 74.6703C131.758 73.6272 132.853 72.6105 133.973 71.6214L133.22 70.7688L132.467 69.9162C131.319 70.9303 130.196 71.9725 129.1 73.0418L129.894 73.856ZM134.939 69.2878L135.671 70.1588C136.814 69.1984 137.982 68.266 139.173 67.3625L138.485 66.4563L137.798 65.55C136.577 66.4763 135.38 67.4322 134.208 68.4168L134.939 69.2878ZM140.31 65.1076L140.974 66.0307C142.186 65.1584 143.419 64.3155 144.675 63.5031L144.057 62.5481L143.439 61.5932C142.152 62.4261 140.887 63.2903 139.645 64.1846L140.31 65.1076ZM145.977 61.3387L146.571 62.3087C147.844 61.5295 149.137 60.7811 150.45 60.0645L149.905 59.066L149.361 58.0675C148.014 58.8023 146.688 59.5697 145.383 60.3686L145.977 61.3387ZM151.909 58.0047L152.429 59.0165C153.756 58.3351 155.101 57.6858 156.465 57.0695L155.996 56.033L155.528 54.9964C154.13 55.6284 152.75 56.2942 151.39 56.9929L151.909 58.0047ZM158.077 55.1237L158.52 56.1717C159.893 55.5922 161.283 55.0458 162.69 54.5336L162.301 53.4648L161.912 52.3959C160.469 52.9211 159.043 53.4814 157.635 54.0757L158.077 55.1237ZM164.441 52.7161L164.803 53.7944C166.215 53.3202 167.642 52.8801 169.085 52.475L168.777 51.3799L168.469 50.2848C166.99 50.7001 165.526 51.1515 164.078 51.6378L164.441 52.7161ZM170.972 50.7933L171.251 51.8958C172.694 51.5295 174.151 51.1981 175.621 50.9026L175.397 49.7874L175.172 48.6722C173.665 48.9753 172.171 49.3151 170.692 49.6908L170.972 50.7933ZM177.623 49.3686L177.82 50.489C179.285 50.2323 180.762 50.0112 182.251 49.8264L182.111 48.6975L181.971 47.5687C180.444 47.7581 178.929 47.9849 177.427 48.2481L177.623 49.3686ZM184.37 48.4457L184.482 49.5777C185.962 49.4314 187.452 49.3209 188.952 49.2473L188.896 48.1112L188.84 46.975C187.303 47.0505 185.775 47.1637 184.258 47.3137L184.37 48.4457ZM191.158 48.0279L191.186 49.1651C191.933 49.1467 192.682 49.1375 193.434 49.1375V48V46.8625C192.664 46.8625 191.896 46.8719 191.13 46.8907L191.158 48.0279ZM193.434 48V49.1375C194.185 49.1375 194.934 49.1467 195.681 49.1651L195.709 48.0279L195.737 46.8907C194.972 46.8719 194.204 46.8625 193.434 46.8625V48ZM197.971 48.1112L197.915 49.2473C199.415 49.3209 200.906 49.4314 202.385 49.5777L202.497 48.4457L202.609 47.3137C201.092 47.1637 199.564 47.0505 198.027 46.975L197.971 48.1112ZM204.756 48.6975L204.616 49.8264C206.105 50.0111 207.582 50.2323 209.048 50.489L209.244 49.3686L209.44 48.2481C207.938 47.9849 206.423 47.7581 204.896 47.5687L204.756 48.6975ZM211.471 49.7874L211.246 50.9026C212.716 51.1981 214.173 51.5295 215.616 51.8958L215.896 50.7933L216.175 49.6908C214.696 49.3151 213.202 48.9753 211.695 48.6722L211.471 49.7874ZM218.09 51.3799L217.783 52.475C219.225 52.8801 220.652 53.3202 222.064 53.7944L222.427 52.7161L222.789 51.6378C221.341 51.1515 219.877 50.7001 218.398 50.2848L218.09 51.3799ZM224.566 53.4647L224.177 54.5336C225.584 55.0458 226.974 55.5922 228.347 56.1717L228.79 55.1237L229.232 54.0757C227.824 53.4814 226.398 52.9211 224.955 52.3959L224.566 53.4647ZM230.871 56.033L230.402 57.0695C231.766 57.6858 233.112 58.3351 234.438 59.0165L234.958 58.0047L235.477 56.9929C234.117 56.2942 232.738 55.6284 231.339 54.9964L230.871 56.033ZM236.962 59.066L236.417 60.0645C237.73 60.7811 239.023 61.5295 240.296 62.3087L240.89 61.3387L241.484 60.3686C240.179 59.5697 238.853 58.8023 237.507 58.0675L236.962 59.066ZM242.811 62.5481L242.193 63.5031C243.448 64.3155 244.682 65.1584 245.893 66.0307L246.558 65.1076L247.222 64.1846C245.981 63.2903 244.716 62.4261 243.429 61.5932L242.811 62.5481ZM248.382 66.4563L247.694 67.3625C248.885 68.2659 250.053 69.1984 251.196 70.1588L251.928 69.2878L252.66 68.4168C251.487 67.4322 250.29 66.4763 249.069 65.55L248.382 66.4563ZM253.647 70.7688L252.894 71.6214C254.014 72.6105 255.11 73.6272 256.179 74.6703L256.973 73.856L257.767 73.0418C256.671 71.9725 255.549 70.9302 254.4 69.9162L253.647 70.7688ZM258.578 75.4605L257.763 76.2548C258.806 77.324 259.823 78.4192 260.812 79.5392L261.665 78.7862L262.517 78.0332C261.503 76.885 260.461 75.7623 259.392 74.6662L258.578 75.4605ZM263.146 80.5056L262.275 81.2372C263.235 82.3806 264.168 83.5483 265.071 84.7392L265.977 84.0517L266.884 83.3642C265.957 82.1433 265.001 80.9462 264.017 79.7739L263.146 80.5056ZM267.326 85.876L266.403 86.5408C267.275 87.752 268.118 88.9857 268.93 90.241L269.885 89.623L270.84 89.0049C270.007 87.7179 269.143 86.453 268.249 85.2112L267.326 85.876ZM271.095 91.5439L270.125 92.1379C270.904 93.4103 271.652 94.7036 272.369 96.0168L273.368 95.4719L274.366 94.927C273.631 93.5805 272.864 92.2545 272.065 90.9498L271.095 91.5439ZM274.429 97.4759L273.417 97.9956C274.098 99.322 274.748 100.668 275.364 102.031L276.401 101.563L277.437 101.094C276.805 99.6959 276.139 98.3162 275.441 96.9561L274.429 97.4759ZM277.31 103.644L276.262 104.086C276.841 105.459 277.388 106.85 277.9 108.257L278.969 107.868L280.038 107.478C279.512 106.036 278.952 104.61 278.358 103.202L277.31 103.644ZM279.717 110.007L278.639 110.369C279.113 111.781 279.554 113.209 279.959 114.651L281.054 114.343L282.149 114.036C281.733 112.557 281.282 111.093 280.796 109.645L279.717 110.007ZM281.64 116.538L280.538 116.818C280.904 118.261 281.235 119.717 281.531 121.187L282.646 120.963L283.761 120.739C283.458 119.232 283.118 117.738 282.743 116.258L281.64 116.538ZM283.065 123.19L281.945 123.386C282.201 124.851 282.422 126.329 282.607 127.817L283.736 127.677L284.865 127.537C284.675 126.011 284.449 124.496 284.185 122.993L283.065 123.19ZM283.988 129.936L282.856 130.048C283.002 131.528 283.113 133.018 283.186 134.518L284.322 134.462L285.459 134.407C285.383 132.869 285.27 131.341 285.12 129.824L283.988 129.936ZM284.406 136.724L283.269 136.752C283.287 137.499 283.296 138.249 283.296 139H284.434H285.571C285.571 138.23 285.562 137.462 285.543 136.696L284.406 136.724ZM284.434 139H283.296C283.296 139.751 283.287 140.501 283.269 141.248L284.406 141.276L285.543 141.304C285.562 140.538 285.571 139.77 285.571 139H284.434ZM284.322 143.537L283.186 143.482C283.113 144.982 283.002 146.472 282.856 147.952L283.988 148.064L285.12 148.175C285.27 146.659 285.383 145.131 285.459 143.593L284.322 143.537ZM283.736 150.323L282.607 150.183C282.422 151.671 282.201 153.149 281.945 154.614L283.065 154.81L284.185 155.007C284.449 153.504 284.675 151.989 284.865 150.463L283.736 150.323ZM282.646 157.037L281.531 156.813C281.235 158.283 280.904 159.739 280.538 161.182L281.64 161.462L282.743 161.742C283.118 160.262 283.458 158.768 283.761 157.261L282.646 157.037ZM281.054 163.657L279.959 163.349C279.554 164.791 279.113 166.219 278.639 167.631L279.717 167.993L280.796 168.355C281.282 166.907 281.733 165.443 282.149 163.964L281.054 163.657ZM278.969 170.132L277.9 169.743C277.388 171.15 276.841 172.541 276.262 173.914L277.31 174.356L278.358 174.798C278.952 173.39 279.512 171.964 280.038 170.522L278.969 170.132ZM276.401 176.437L275.364 175.969C274.748 177.332 274.098 178.678 273.417 180.004L274.429 180.524L275.441 181.044C276.139 179.684 276.805 178.304 277.437 176.906L276.401 176.437ZM273.368 182.528L272.369 181.983C271.652 183.296 270.904 184.59 270.125 185.862L271.095 186.456L272.065 187.05C272.864 185.746 273.631 184.419 274.366 183.073L273.368 182.528ZM269.885 188.377L268.931 187.759C268.118 189.014 267.275 190.248 266.403 191.459L267.326 192.124L268.249 192.789C269.143 191.547 270.007 190.282 270.84 188.995L269.885 188.377ZM265.977 193.948L265.071 193.261C264.168 194.452 263.235 195.619 262.275 196.763L263.146 197.494L264.017 198.226C265.001 197.054 265.957 195.857 266.884 194.636L265.977 193.948ZM261.665 199.214L260.812 198.461C259.823 199.581 258.806 200.676 257.763 201.745L258.578 202.54L259.392 203.334C260.461 202.238 261.503 201.115 262.517 199.967L261.665 199.214ZM256.973 204.144L256.179 203.33C255.11 204.373 254.014 205.389 252.894 206.379L253.647 207.231L254.4 208.084C255.549 207.07 256.671 206.028 257.767 204.958L256.973 204.144ZM251.928 208.712L251.196 207.841C250.053 208.802 248.885 209.734 247.694 210.637L248.382 211.544L249.069 212.45C250.29 211.524 251.487 210.568 252.66 209.583L251.928 208.712ZM246.558 212.892L245.893 211.969C244.682 212.842 243.448 213.684 242.193 214.497L242.811 215.452L243.429 216.407C244.716 215.574 245.981 214.71 247.222 213.815L246.558 212.892ZM240.89 216.661L240.296 215.691C239.023 216.47 237.73 217.219 236.417 217.935L236.962 218.934L237.507 219.932C238.853 219.198 240.179 218.43 241.484 217.631L240.89 216.661ZM234.958 219.995L234.438 218.983C233.112 219.665 231.766 220.314 230.402 220.93L230.871 221.967L231.339 223.004C232.738 222.372 234.117 221.706 235.477 221.007L234.958 219.995ZM228.79 222.876L228.347 221.828C226.974 222.408 225.584 222.954 224.177 223.466L224.566 224.535L224.955 225.604C226.398 225.079 227.824 224.519 229.232 223.924L228.79 222.876ZM222.427 225.284L222.064 224.206C220.652 224.68 219.225 225.12 217.783 225.525L218.09 226.62L218.398 227.715C219.877 227.3 221.341 226.849 222.789 226.362L222.427 225.284ZM215.896 227.207L215.616 226.104C214.173 226.47 212.716 226.802 211.246 227.097L211.471 228.213L211.695 229.328C213.202 229.025 214.696 228.685 216.176 228.309L215.896 227.207ZM209.244 228.631L209.048 227.511C207.582 227.768 206.105 227.989 204.616 228.174L204.756 229.302L204.896 230.431C206.423 230.242 207.938 230.015 209.44 229.752L209.244 228.631ZM202.497 229.554L202.385 228.422C200.906 228.569 199.415 228.679 197.915 228.753L197.971 229.889L198.027 231.025C199.564 230.949 201.092 230.836 202.609 230.686L202.497 229.554ZM195.709 229.972L195.681 228.835C194.934 228.853 194.185 228.863 193.434 228.863V230V231.137C194.204 231.137 194.972 231.128 195.737 231.109L195.709 229.972ZM193.434 230V227.725C192.691 227.725 191.951 227.716 191.214 227.698L191.158 229.972L191.102 232.246C191.877 232.265 192.654 232.275 193.434 232.275V230ZM188.896 229.889L189.008 227.617C187.526 227.544 186.055 227.435 184.594 227.29L184.37 229.554L184.146 231.818C185.682 231.97 187.228 232.085 188.785 232.161L188.896 229.889ZM182.111 229.302L182.391 227.045C180.921 226.862 179.462 226.644 178.016 226.391L177.623 228.631L177.231 230.872C178.752 231.139 180.285 231.368 181.831 231.56L182.111 229.302ZM175.397 228.213L175.845 225.982C174.394 225.69 172.956 225.363 171.531 225.002L170.972 227.207L170.412 229.412C171.91 229.792 173.422 230.136 174.948 230.443L175.397 228.213ZM168.777 226.62L169.392 224.43C167.968 224.03 166.559 223.595 165.165 223.127L164.441 225.284L163.716 227.44C165.182 227.933 166.664 228.39 168.162 228.81L168.777 226.62ZM162.301 224.535L163.079 222.398C161.69 221.892 160.318 221.352 158.962 220.78L158.078 222.876L157.193 224.972C158.618 225.574 160.062 226.141 161.523 226.673L162.301 224.535ZM155.996 221.967L156.933 219.894C155.587 219.285 154.259 218.644 152.949 217.972L151.909 219.995L150.87 222.019C152.247 222.726 153.644 223.4 155.059 224.04L155.996 221.967ZM149.905 218.934L150.995 216.937C149.699 216.229 148.422 215.491 147.166 214.721L145.977 216.661L144.789 218.601C146.11 219.41 147.453 220.187 148.816 220.931L149.905 218.934ZM144.057 215.452L145.293 213.542C144.053 212.74 142.835 211.908 141.639 211.046L140.31 212.892L138.98 214.738C140.237 215.644 141.518 216.519 142.821 217.362L144.057 215.452ZM138.485 211.544L139.86 209.731C138.684 208.839 137.531 207.919 136.402 206.97L134.939 208.712L133.476 210.454C134.663 211.451 135.874 212.419 137.11 213.356L138.485 211.544ZM133.22 207.231L134.726 205.526C133.62 204.549 132.538 203.545 131.483 202.516L129.894 204.144L128.305 205.772C129.415 206.855 130.552 207.91 131.714 208.936L133.22 207.231ZM128.29 202.54L129.918 200.951C128.888 199.895 127.884 198.814 126.908 197.708L125.202 199.214L123.497 200.72C124.524 201.882 125.579 203.019 126.661 204.128L128.29 202.54ZM123.721 197.494L125.463 196.031C124.515 194.902 123.594 193.749 122.702 192.573L120.89 193.948L119.077 195.323C120.015 196.559 120.983 197.771 121.979 198.958L123.721 197.494ZM119.541 192.124L121.387 190.794C120.526 189.599 119.694 188.38 118.892 187.141L116.982 188.377L115.072 189.613C115.915 190.916 116.79 192.197 117.695 193.454L119.541 192.124ZM115.772 186.456L117.712 185.268C116.943 184.012 116.204 182.735 115.497 181.438L113.5 182.528L111.503 183.618C112.246 184.981 113.023 186.323 113.832 187.644L115.772 186.456ZM112.438 180.524L114.462 179.485C113.789 178.175 113.148 176.847 112.54 175.5L110.467 176.437L108.393 177.374C109.033 178.79 109.707 180.187 110.415 181.564L112.438 180.524ZM109.557 174.356L111.653 173.472C111.081 172.116 110.542 170.743 110.036 169.354L107.898 170.132L105.761 170.911C106.292 172.371 106.86 173.815 107.461 175.241L109.557 174.356ZM107.15 167.993L109.306 167.269C108.838 165.875 108.404 164.465 108.004 163.042L105.814 163.657L103.623 164.272C104.044 165.769 104.501 167.251 104.993 168.717L107.15 167.993ZM105.227 161.462L107.432 160.902C107.07 159.478 106.743 158.04 106.451 156.589L104.221 157.037L101.991 157.486C102.297 159.011 102.642 160.524 103.022 162.022L105.227 161.462ZM103.802 154.81L106.043 154.418C105.79 152.971 105.571 151.512 105.389 150.043L103.131 150.323L100.873 150.603C101.065 152.148 101.295 153.682 101.561 155.203L103.802 154.81ZM102.879 148.064L105.143 147.84C104.999 146.379 104.89 144.907 104.817 143.426L102.545 143.538L100.272 143.649C100.349 145.205 100.463 146.752 100.615 148.287L102.879 148.064ZM102.461 141.276L104.736 141.22C104.718 140.482 104.709 139.742 104.709 139H102.434H100.159C100.159 139.779 100.168 140.557 100.187 141.331L102.461 141.276ZM102.434 139H104.709C104.709 138.258 104.718 137.518 104.736 136.78L102.461 136.724L100.187 136.669C100.168 137.443 100.159 138.221 100.159 139H102.434ZM102.545 134.463L104.817 134.574C104.89 133.093 104.999 131.621 105.143 130.16L102.879 129.936L100.615 129.713C100.463 131.248 100.349 132.795 100.272 134.351L102.545 134.463ZM103.131 127.677L105.389 127.957C105.571 126.488 105.79 125.029 106.043 123.582L103.802 123.19L101.561 122.797C101.295 124.318 101.065 125.852 100.873 127.397L103.131 127.677ZM104.221 120.963L106.451 121.411C106.743 119.96 107.07 118.522 107.432 117.098L105.227 116.538L103.022 115.978C102.642 117.476 102.297 118.989 101.991 120.514L104.221 120.963ZM105.813 114.343L108.004 114.959C108.404 113.535 108.838 112.125 109.306 110.731L107.15 110.007L104.993 109.283C104.501 110.749 104.044 112.231 103.623 113.728L105.813 114.343ZM107.898 107.868L110.036 108.646C110.542 107.257 111.081 105.884 111.653 104.529L109.557 103.644L107.461 102.759C106.86 104.185 106.292 105.629 105.761 107.089L107.898 107.868ZM110.467 101.563L112.54 102.5C113.148 101.153 113.789 99.825 114.462 98.5154L112.438 97.4759L110.415 96.4364C109.707 97.8133 109.033 99.2101 108.393 100.626L110.467 101.563ZM113.5 95.4719L115.497 96.5617C116.204 95.2652 116.943 93.9883 117.712 92.732L115.772 91.5439L113.832 90.3558C113.023 91.6765 112.246 93.019 111.503 94.3821L113.5 95.4719ZM116.982 89.623L118.892 90.8591C119.694 89.6196 120.526 88.4015 121.387 87.2056L119.541 85.876L117.695 84.5465C116.79 85.8035 115.915 87.084 115.072 88.3869L116.982 89.623ZM120.89 84.0517L122.702 85.4267C123.594 84.2508 124.515 83.0978 125.463 81.9688L123.721 80.5056L121.979 79.0424C120.983 80.229 120.015 81.4408 119.077 82.6767L120.89 84.0517ZM125.202 78.7862L126.908 80.2922C127.884 79.1863 128.888 78.1049 129.918 77.0491L128.29 75.4605L126.661 73.8719C125.579 74.9815 124.524 76.118 123.497 77.2802L125.202 78.7862ZM129.894 73.856L131.483 75.4845C132.538 74.4545 133.62 73.4507 134.726 72.474L133.22 70.7688L131.714 69.0636C130.552 70.0901 129.415 71.1451 128.305 72.2276L129.894 73.856ZM134.939 69.2878L136.402 71.0299C137.531 70.0815 138.684 69.1608 139.86 68.2687L138.485 66.4563L137.11 64.6438C135.874 65.5814 134.663 66.5491 133.476 67.5458L134.939 69.2878ZM140.31 65.1076L141.639 66.9537C142.835 66.0924 144.053 65.2602 145.293 64.4581L144.057 62.5481L142.82 60.6382C141.518 61.4815 140.237 62.3563 138.98 63.2616L140.31 65.1076ZM145.977 61.3387L147.166 63.2788C148.422 62.5095 149.699 61.7705 150.995 61.063L149.905 59.066L148.816 57.069C147.453 57.8129 146.11 58.5897 144.789 59.3985L145.977 61.3387ZM151.909 58.0047L152.949 60.0283C154.259 59.3556 155.587 58.7145 156.933 58.1061L155.996 56.033L155.059 53.9599C153.644 54.5997 152.247 55.2738 150.87 55.9811L151.909 58.0047ZM158.077 55.1237L158.962 57.2197C160.318 56.6475 161.69 56.1082 163.079 55.6025L162.301 53.4648L161.523 51.327C160.062 51.8588 158.618 52.4261 157.193 53.0277L158.077 55.1237ZM164.441 52.7161L165.165 54.8727C166.559 54.4045 167.968 53.97 169.392 53.5702L168.777 51.3799L168.162 49.1896C166.664 49.6102 165.182 50.0671 163.716 50.5595L164.441 52.7161ZM170.972 50.7933L171.531 52.9983C172.956 52.6367 174.394 52.3095 175.845 52.0178L175.397 49.7874L174.948 47.5571C173.422 47.8639 171.91 48.2079 170.412 48.5882L170.972 50.7933ZM177.623 49.3686L178.016 51.6094C179.462 51.356 180.921 51.1377 182.391 50.9552L182.111 48.6975L181.831 46.4399C180.285 46.6316 178.752 46.8612 177.231 47.1277L177.623 49.3686ZM184.37 48.4457L184.594 50.7097C186.055 50.5652 187.526 50.4562 189.008 50.3834L188.896 48.1112L188.784 45.8389C187.228 45.9153 185.682 46.0299 184.146 46.1817L184.37 48.4457ZM191.158 48.0279L191.214 50.3022C191.951 50.2841 192.691 50.275 193.434 50.275V48V45.725C192.654 45.725 191.877 45.7346 191.102 45.7536L191.158 48.0279ZM193.434 48V50.275C194.176 50.275 194.916 50.2841 195.653 50.3022L195.709 48.0279L195.765 45.7536C194.99 45.7346 194.213 45.725 193.434 45.725V48ZM197.971 48.1112L197.859 50.3834C199.341 50.4562 200.812 50.5652 202.273 50.7097L202.497 48.4457L202.721 46.1817C201.185 46.0299 199.639 45.9153 198.083 45.8389L197.971 48.1112ZM204.756 48.6975L204.476 50.9552C205.946 51.1376 207.405 51.356 208.851 51.6094L209.244 49.3686L209.636 47.1277C208.115 46.8612 206.582 46.6316 205.037 46.4399L204.756 48.6975ZM211.471 49.7874L211.022 52.0178C212.473 52.3095 213.911 52.6367 215.336 52.9983L215.896 50.7933L216.455 48.5882C214.957 48.2079 213.445 47.8639 211.919 47.557L211.471 49.7874ZM218.09 51.3799L217.475 53.5702C218.899 53.97 220.308 54.4045 221.702 54.8727L222.427 52.7161L223.151 50.5595C221.685 50.0671 220.203 49.6102 218.705 49.1896L218.09 51.3799ZM224.566 53.4647L223.788 55.6025C225.177 56.1081 226.549 56.6475 227.905 57.2197L228.79 55.1237L229.674 53.0277C228.249 52.426 226.805 51.8588 225.344 51.327L224.566 53.4647ZM230.871 56.033L229.934 58.1061C231.28 58.7145 232.609 59.3556 233.918 60.0283L234.958 58.0047L235.997 55.9811C234.62 55.2738 233.223 54.5997 231.808 53.9598L230.871 56.033ZM236.962 59.066L235.872 61.063C237.168 61.7705 238.445 62.5094 239.702 63.2788L240.89 61.3387L242.078 59.3985C240.757 58.5897 239.415 57.8129 238.051 57.069L236.962 59.066ZM242.811 62.5481L241.575 64.458C242.814 65.2602 244.032 66.0924 245.228 66.9537L246.558 65.1076L247.887 63.2616C246.63 62.3563 245.35 61.4814 244.047 60.6382L242.811 62.5481ZM248.382 66.4563L247.007 68.2687C248.183 69.1608 249.336 70.0815 250.465 71.0298L251.928 69.2878L253.391 67.5458C252.205 66.5491 250.993 65.5814 249.757 64.6438L248.382 66.4563ZM253.647 70.7688L252.141 72.474C253.247 73.4507 254.329 74.4545 255.384 75.4845L256.973 73.856L258.562 72.2275C257.452 71.1451 256.316 70.0901 255.153 69.0636L253.647 70.7688ZM258.578 75.4605L256.949 77.0491C257.979 78.1049 258.983 79.1863 259.96 80.2922L261.665 78.7862L263.37 77.2802C262.343 76.1179 261.288 74.9815 260.206 73.8719L258.578 75.4605ZM263.146 80.5056L261.404 81.9688C262.352 83.0978 263.273 84.2508 264.165 85.4267L265.977 84.0517L267.79 82.6767C266.852 81.4408 265.884 80.2289 264.888 79.0423L263.146 80.5056ZM267.326 85.876L265.48 87.2056C266.341 88.4015 267.173 89.6196 267.976 90.859L269.885 89.623L271.795 88.3869C270.952 87.084 270.077 85.8035 269.172 84.5465L267.326 85.876ZM271.095 91.5439L269.155 92.7319C269.924 93.9883 270.663 95.2652 271.371 96.5617L273.368 95.4719L275.365 94.3821C274.621 93.019 273.844 91.6765 273.035 90.3558L271.095 91.5439ZM274.429 97.4759L272.405 98.5154C273.078 99.825 273.719 101.153 274.328 102.5L276.401 101.563L278.474 100.626C277.834 99.2101 277.16 97.8133 276.452 96.4363L274.429 97.4759ZM277.31 103.644L275.214 104.528C275.786 105.884 276.325 107.257 276.831 108.646L278.969 107.868L281.107 107.089C280.575 105.629 280.008 104.185 279.406 102.759L277.31 103.644ZM279.717 110.007L277.561 110.731C278.029 112.125 278.464 113.535 278.863 114.958L281.054 114.343L283.244 113.728C282.823 112.231 282.366 110.749 281.874 109.283L279.717 110.007ZM281.64 116.538L279.435 117.098C279.797 118.522 280.124 119.96 280.416 121.411L282.646 120.963L284.877 120.514C284.57 118.989 284.226 117.476 283.845 115.978L281.64 116.538ZM283.065 123.19L280.824 123.582C281.078 125.029 281.296 126.488 281.478 127.957L283.736 127.677L285.994 127.397C285.802 125.852 285.572 124.318 285.306 122.797L283.065 123.19ZM283.988 129.936L281.724 130.16C281.868 131.621 281.977 133.093 282.05 134.574L284.322 134.462L286.595 134.351C286.518 132.795 286.404 131.248 286.252 129.713L283.988 129.936ZM284.406 136.724L282.131 136.78C282.149 137.518 282.159 138.258 282.159 139H284.434H286.709C286.709 138.221 286.699 137.443 286.68 136.669L284.406 136.724ZM284.434 139H282.159C282.159 139.742 282.149 140.482 282.131 141.22L284.406 141.276L286.68 141.331C286.699 140.557 286.709 139.779 286.709 139H284.434ZM284.322 143.537L282.05 143.426C281.977 144.907 281.868 146.379 281.724 147.84L283.988 148.064L286.252 148.287C286.404 146.752 286.518 145.205 286.595 143.649L284.322 143.537ZM283.736 150.323L281.478 150.043C281.296 151.512 281.078 152.971 280.824 154.418L283.065 154.81L285.306 155.203C285.572 153.682 285.802 152.148 285.994 150.603L283.736 150.323ZM282.646 157.037L280.416 156.589C280.124 158.04 279.797 159.478 279.435 160.902L281.64 161.462L283.845 162.022C284.226 160.524 284.57 159.011 284.877 157.486L282.646 157.037ZM281.054 163.657L278.863 163.041C278.464 164.465 278.029 165.875 277.561 167.269L279.717 167.993L281.874 168.717C282.366 167.251 282.823 165.769 283.244 164.272L281.054 163.657ZM278.969 170.132L276.831 169.354C276.325 170.743 275.786 172.116 275.214 173.471L277.31 174.356L279.406 175.241C280.008 173.815 280.575 172.371 281.107 170.911L278.969 170.132ZM276.401 176.437L274.328 175.5C273.719 176.847 273.078 178.175 272.405 179.485L274.429 180.524L276.452 181.564C277.16 180.187 277.834 178.79 278.474 177.374L276.401 176.437ZM273.368 182.528L271.371 181.438C270.663 182.735 269.924 184.012 269.155 185.268L271.095 186.456L273.035 187.644C273.844 186.323 274.621 184.981 275.365 183.618L273.368 182.528ZM269.885 188.377L267.976 187.141C267.173 188.38 266.341 189.599 265.48 190.794L267.326 192.124L269.172 193.454C270.077 192.196 270.952 190.916 271.795 189.613L269.885 188.377ZM265.977 193.948L264.165 192.573C263.273 193.749 262.352 194.902 261.404 196.031L263.146 197.494L264.888 198.958C265.884 197.771 266.852 196.559 267.79 195.323L265.977 193.948ZM261.665 199.214L259.96 197.708C258.983 198.814 257.979 199.895 256.949 200.951L258.578 202.54L260.206 204.128C261.288 203.019 262.344 201.882 263.37 200.72L261.665 199.214ZM256.973 204.144L255.385 202.515C254.329 203.545 253.247 204.549 252.141 205.526L253.647 207.231L255.153 208.936C256.316 207.91 257.452 206.855 258.562 205.772L256.973 204.144ZM251.928 208.712L250.465 206.97C249.336 207.918 248.183 208.839 247.007 209.731L248.382 211.544L249.757 213.356C250.993 212.419 252.205 211.451 253.391 210.454L251.928 208.712ZM246.558 212.892L245.228 211.046C244.032 211.908 242.814 212.74 241.575 213.542L242.811 215.452L244.047 217.362C245.35 216.519 246.63 215.644 247.887 214.738L246.558 212.892ZM240.89 216.661L239.702 214.721C238.445 215.491 237.168 216.229 235.872 216.937L236.962 218.934L238.051 220.931C239.415 220.187 240.757 219.41 242.078 218.601L240.89 216.661ZM234.958 219.995L233.918 217.972C232.609 218.644 231.28 219.285 229.934 219.894L230.871 221.967L231.808 224.04C233.223 223.4 234.62 222.726 235.997 222.019L234.958 219.995ZM228.79 222.876L227.905 220.78C226.549 221.352 225.177 221.892 223.788 222.398L224.566 224.535L225.344 226.673C226.805 226.141 228.249 225.574 229.674 224.972L228.79 222.876ZM222.427 225.284L221.702 223.127C220.308 223.595 218.899 224.03 217.475 224.43L218.09 226.62L218.705 228.81C220.203 228.39 221.685 227.933 223.151 227.44L222.427 225.284ZM215.896 227.207L215.336 225.002C213.911 225.363 212.473 225.69 211.022 225.982L211.471 228.213L211.919 230.443C213.445 230.136 214.957 229.792 216.455 229.412L215.896 227.207ZM209.244 228.631L208.851 226.391C207.405 226.644 205.946 226.862 204.476 227.045L204.756 229.302L205.037 231.56C206.582 231.368 208.115 231.139 209.636 230.872L209.244 228.631ZM202.497 229.554L202.273 227.29C200.812 227.435 199.341 227.544 197.86 227.617L197.971 229.889L198.083 232.161C199.639 232.085 201.185 231.97 202.721 231.818L202.497 229.554ZM195.709 229.972L195.653 227.698C194.916 227.716 194.176 227.725 193.434 227.725V230V232.275C194.213 232.275 194.99 232.265 195.765 232.246L195.709 229.972Z" fill="#242424" fill-opacity="0.08" mask="url(#path-2-inside-1_4286_7336)"/>
</g>
<g opacity="0.4">
<mask id="path-4-inside-2_4286_7336" fill="white">
<path d="M122.34 139C122.34 99.736 154.17 67.9062 193.434 67.9062V67.9062C232.698 67.9062 264.527 99.736 264.527 139V139C264.527 178.264 232.698 210.094 193.434 210.094V210.094C154.17 210.094 122.34 178.264 122.34 139V139Z"/>
</mask>
<path d="M193.434 210.094V208.956C192.666 208.956 191.901 208.944 191.139 208.919L191.102 210.056L191.066 211.193C191.852 211.218 192.641 211.231 193.434 211.231V210.094ZM188.779 209.944L188.853 208.809C187.319 208.71 185.8 208.561 184.295 208.365L184.148 209.493L184.001 210.621C185.554 210.823 187.123 210.977 188.706 211.079L188.779 209.944ZM181.848 209.154L182.032 208.032C180.517 207.784 179.02 207.487 177.54 207.143L177.283 208.251L177.025 209.359C178.553 209.714 180.1 210.021 181.664 210.277L181.848 209.154ZM175.026 207.688L175.32 206.589C173.84 206.193 172.379 205.75 170.938 205.261L170.573 206.338L170.207 207.416C171.695 207.92 173.204 208.378 174.733 208.787L175.026 207.688ZM168.383 205.555L168.784 204.49C167.351 203.951 165.941 203.366 164.555 202.736L164.085 203.772L163.615 204.808C165.046 205.458 166.503 206.062 167.982 206.619L168.383 205.555ZM161.983 202.776L162.487 201.757C161.115 201.079 159.769 200.358 158.451 199.595L157.881 200.579L157.311 201.564C158.673 202.352 160.063 203.097 161.479 203.796L161.983 202.776ZM155.887 199.382L156.488 198.416C155.191 197.608 153.922 196.758 152.684 195.869L152.02 196.793L151.357 197.717C152.636 198.635 153.946 199.512 155.285 200.347L155.887 199.382ZM150.153 195.406L150.846 194.504C149.635 193.573 148.455 192.604 147.308 191.597L146.558 192.452L145.808 193.307C146.991 194.346 148.209 195.347 149.46 196.308L150.153 195.406ZM144.834 190.889L145.612 190.059C144.498 189.015 143.418 187.935 142.375 186.821L141.544 187.599L140.714 188.377C141.792 189.527 142.907 190.642 144.057 191.719L144.834 190.889ZM139.982 185.876L140.836 185.125C139.83 183.979 138.861 182.799 137.93 181.588L137.028 182.281L136.126 182.974C137.087 184.224 138.088 185.442 139.127 186.626L139.982 185.876ZM135.641 180.413L136.565 179.75C135.675 178.511 134.826 177.242 134.017 175.945L133.052 176.547L132.087 177.148C132.921 178.488 133.798 179.798 134.716 181.076L135.641 180.413ZM131.854 174.553L132.839 173.983C132.076 172.664 131.355 171.318 130.677 169.947L129.657 170.451L128.637 170.955C129.337 172.371 130.082 173.761 130.87 175.122L131.854 174.553ZM128.661 168.349L129.697 167.879C129.068 166.493 128.483 165.082 127.943 163.65L126.879 164.05L125.814 164.451C126.371 165.931 126.976 167.387 127.625 168.819L128.661 168.349ZM126.095 161.861L127.172 161.495C126.684 160.055 126.241 158.594 125.845 157.113L124.746 157.407L123.647 157.701C124.056 159.23 124.513 160.739 125.018 162.226L126.095 161.861ZM124.182 155.151L125.29 154.894C124.947 153.414 124.65 151.916 124.402 150.402L123.279 150.586L122.157 150.77C122.413 152.334 122.719 153.88 123.074 155.408L124.182 155.151ZM122.941 148.286L124.069 148.138C123.872 146.634 123.724 145.114 123.625 143.581L122.49 143.654L121.355 143.728C121.457 145.31 121.61 146.879 121.813 148.433L122.941 148.286ZM122.377 141.331L123.514 141.295C123.49 140.533 123.477 139.768 123.477 139H122.34H121.202C121.202 139.792 121.215 140.582 121.24 141.368L122.377 141.331ZM122.34 139H123.477C123.477 138.232 123.49 137.467 123.514 136.705L122.377 136.669L121.24 136.632C121.215 137.418 121.202 138.208 121.202 139H122.34ZM122.49 134.346L123.625 134.419C123.724 132.886 123.872 131.366 124.069 129.862L122.941 129.714L121.813 129.567C121.61 131.121 121.457 132.69 121.355 134.272L122.49 134.346ZM123.279 127.414L124.402 127.598C124.65 126.084 124.947 124.586 125.29 123.106L124.182 122.849L123.074 122.592C122.719 124.12 122.413 125.666 122.157 127.23L123.279 127.414ZM124.746 120.593L125.845 120.887C126.241 119.406 126.684 117.945 127.172 116.505L126.095 116.139L125.018 115.774C124.513 117.261 124.056 118.77 123.647 120.299L124.746 120.593ZM126.879 113.95L127.943 114.35C128.483 112.918 129.068 111.507 129.697 110.121L128.661 109.651L127.625 109.181C126.976 110.613 126.371 112.069 125.814 113.549L126.879 113.95ZM129.657 107.549L130.677 108.053C131.355 106.682 132.076 105.336 132.839 104.017L131.854 103.447L130.87 102.878C130.082 104.239 129.337 105.629 128.637 107.045L129.657 107.549ZM133.052 101.453L134.017 102.055C134.826 100.758 135.675 99.4888 136.565 98.2502L135.641 97.5868L134.716 96.9235C133.798 98.2023 132.921 99.5123 132.087 100.852L133.052 101.453ZM137.028 95.7193L137.93 96.4124C138.861 95.2012 139.83 94.0213 140.836 92.8746L139.982 92.1243L139.127 91.3739C138.088 92.5577 137.087 93.7757 136.126 95.0261L137.028 95.7193ZM141.544 90.4009L142.375 91.1786C143.418 90.0646 144.498 88.9848 145.612 87.941L144.834 87.1109L144.057 86.2808C142.907 87.3584 141.792 88.4731 140.714 89.6231L141.544 90.4009ZM146.558 85.548L147.308 86.4029C148.455 85.3965 149.635 84.4269 150.846 83.4962L150.153 82.5943L149.46 81.6923C148.209 82.6532 146.991 83.6541 145.808 84.693L146.558 85.548ZM152.02 81.2069L152.684 82.131C153.922 81.2418 155.191 80.3922 156.488 79.5838L155.887 78.6184L155.285 77.653C153.946 78.4877 152.636 79.3649 151.357 80.2829L152.02 81.2069ZM157.881 77.4206L158.451 78.4052C159.769 77.6422 161.115 76.921 162.487 76.2435L161.983 75.2236L161.479 74.2038C160.063 74.9035 158.673 75.6482 157.311 76.436L157.881 77.4206ZM164.085 74.2277L164.555 75.2635C165.941 74.6344 167.351 74.0493 168.784 73.5098L168.383 72.4452L167.982 71.3807C166.503 71.9379 165.046 72.5422 163.615 73.1919L164.085 74.2277ZM170.573 71.6616L170.938 72.7388C172.379 72.25 173.84 71.8069 175.32 71.4112L175.026 70.3123L174.733 69.2133C173.204 69.6221 171.695 70.0797 170.207 70.5845L170.573 71.6616ZM177.283 69.7488L177.54 70.8568C179.02 70.5131 180.517 70.2163 182.032 69.9681L181.848 68.8456L181.664 67.7231C180.1 67.9794 178.553 68.2859 177.025 68.6408L177.283 69.7488ZM184.148 68.5072L184.295 69.6351C185.8 69.4388 187.319 69.2904 188.853 69.1913L188.779 68.0562L188.706 66.921C187.123 67.0233 185.554 67.1766 184.001 67.3792L184.148 68.5072ZM191.102 67.9437L191.139 69.0807C191.901 69.0561 192.666 69.0437 193.434 69.0437V67.9062V66.7688C192.641 66.7688 191.852 66.7815 191.066 66.8068L191.102 67.9437ZM193.434 67.9062V69.0437C194.201 69.0437 194.966 69.0561 195.728 69.0807L195.765 67.9437L195.801 66.8068C195.015 66.7815 194.226 66.7688 193.434 66.7688V67.9062ZM198.088 68.0562L198.014 69.1913C199.548 69.2904 201.067 69.4388 202.572 69.6351L202.719 68.5072L202.866 67.3792C201.313 67.1766 199.744 67.0233 198.161 66.921L198.088 68.0562ZM205.02 68.8456L204.836 69.9681C206.35 70.2163 207.848 70.5131 209.327 70.8568L209.585 69.7488L209.842 68.6408C208.314 68.2859 206.767 67.9794 205.204 67.7231L205.02 68.8456ZM211.841 70.3122L211.547 71.4112C213.027 71.8069 214.489 72.25 215.929 72.7388L216.294 71.6616L216.66 70.5845C215.173 70.0797 213.663 69.6221 212.134 69.2133L211.841 70.3122ZM218.484 72.4452L218.083 73.5098C219.516 74.0493 220.926 74.6344 222.312 75.2635L222.782 74.2277L223.252 73.1919C221.821 72.5422 220.364 71.9379 218.885 71.3807L218.484 72.4452ZM224.884 75.2236L224.381 76.2435C225.752 76.921 227.098 77.6422 228.416 78.4052L228.986 77.4206L229.556 76.436C228.194 75.6482 226.804 74.9035 225.388 74.2038L224.884 75.2236ZM230.98 78.6184L230.379 79.5838C231.676 80.3922 232.945 81.2418 234.183 82.131L234.847 81.2069L235.51 80.2829C234.231 79.3649 232.921 78.4877 231.582 77.653L230.98 78.6184ZM236.714 82.5943L236.021 83.4962C237.232 84.4269 238.412 85.3965 239.559 86.4029L240.309 85.5479L241.06 84.693C239.876 83.6541 238.658 82.6532 237.407 81.6923L236.714 82.5943ZM242.033 87.1109L241.255 87.941C242.369 88.9848 243.449 90.0646 244.493 91.1786L245.323 90.4009L246.153 89.6231C245.075 88.4731 243.96 87.3584 242.81 86.2808L242.033 87.1109ZM246.886 92.1243L246.031 92.8746C247.037 94.0213 248.007 95.2012 248.937 96.4124L249.839 95.7193L250.741 95.0261C249.78 93.7757 248.78 92.5577 247.741 91.3739L246.886 92.1243ZM251.227 97.5868L250.303 98.2502C251.192 99.4888 252.041 100.758 252.85 102.055L253.815 101.453L254.781 100.852C253.946 99.5123 253.069 98.2023 252.151 96.9235L251.227 97.5868ZM255.013 103.447L254.028 104.017C254.791 105.336 255.513 106.682 256.19 108.053L257.21 107.549L258.23 107.045C257.53 105.629 256.785 104.239 255.998 102.878L255.013 103.447ZM258.206 109.651L257.17 110.121C257.799 111.507 258.384 112.918 258.924 114.35L259.988 113.95L261.053 113.549C260.496 112.069 259.891 110.613 259.242 109.181L258.206 109.651ZM260.772 116.139L259.695 116.505C260.184 117.945 260.627 119.406 261.022 120.887L262.121 120.593L263.22 120.299C262.812 118.77 262.354 117.261 261.849 115.774L260.772 116.139ZM262.685 122.849L261.577 123.106C261.92 124.586 262.217 126.084 262.465 127.598L263.588 127.414L264.711 127.23C264.454 125.666 264.148 124.12 263.793 122.592L262.685 122.849ZM263.926 129.714L262.798 129.862C262.995 131.366 263.143 132.886 263.242 134.419L264.377 134.346L265.513 134.272C265.41 132.69 265.257 131.121 265.054 129.567L263.926 129.714ZM264.49 136.669L263.353 136.705C263.377 137.467 263.39 138.232 263.39 139H264.527H265.665C265.665 138.208 265.652 137.418 265.627 136.632L264.49 136.669ZM264.527 139H263.39C263.39 139.768 263.377 140.533 263.353 141.295L264.49 141.331L265.627 141.368C265.652 140.582 265.665 139.792 265.665 139H264.527ZM264.377 143.654L263.242 143.581C263.143 145.114 262.995 146.634 262.798 148.138L263.926 148.285L265.054 148.433C265.257 146.879 265.41 145.31 265.513 143.728L264.377 143.654ZM263.588 150.586L262.465 150.402C262.217 151.916 261.92 153.414 261.577 154.894L262.685 155.151L263.793 155.408C264.148 153.88 264.454 152.334 264.711 150.77L263.588 150.586ZM262.121 157.407L261.022 157.113C260.627 158.594 260.184 160.055 259.695 161.495L260.772 161.861L261.849 162.226C262.354 160.739 262.812 159.23 263.22 157.701L262.121 157.407ZM259.988 164.05L258.924 163.65C258.384 165.082 257.799 166.493 257.17 167.879L258.206 168.349L259.242 168.819C259.891 167.387 260.496 165.931 261.053 164.451L259.988 164.05ZM257.21 170.451L256.19 169.947C255.513 171.318 254.791 172.664 254.028 173.983L255.013 174.553L255.998 175.122C256.785 173.761 257.53 172.371 258.23 170.955L257.21 170.451ZM253.815 176.547L252.85 175.945C252.041 177.242 251.192 178.511 250.303 179.75L251.227 180.413L252.151 181.076C253.069 179.798 253.946 178.488 254.781 177.148L253.815 176.547ZM249.839 182.281L248.937 181.588C248.007 182.799 247.037 183.979 246.031 185.125L246.886 185.876L247.741 186.626C248.78 185.442 249.78 184.224 250.741 182.974L249.839 182.281ZM245.323 187.599L244.493 186.821C243.449 187.935 242.369 189.015 241.255 190.059L242.033 190.889L242.81 191.719C243.96 190.642 245.075 189.527 246.153 188.377L245.323 187.599ZM240.309 192.452L239.559 191.597C238.412 192.604 237.232 193.573 236.021 194.504L236.714 195.406L237.407 196.308C238.658 195.347 239.876 194.346 241.06 193.307L240.309 192.452ZM234.847 196.793L234.183 195.869C232.945 196.758 231.676 197.608 230.379 198.416L230.98 199.382L231.582 200.347C232.921 199.512 234.231 198.635 235.51 197.717L234.847 196.793ZM228.986 200.579L228.416 199.595C227.098 200.358 225.752 201.079 224.381 201.757L224.884 202.776L225.388 203.796C226.804 203.097 228.194 202.352 229.556 201.564L228.986 200.579ZM222.782 203.772L222.312 202.736C220.926 203.366 219.516 203.951 218.083 204.49L218.484 205.555L218.885 206.619C220.364 206.062 221.821 205.458 223.252 204.808L222.782 203.772ZM216.294 206.338L215.929 205.261C214.489 205.75 213.027 206.193 211.547 206.589L211.841 207.688L212.134 208.787C213.663 208.378 215.173 207.92 216.66 207.416L216.294 206.338ZM209.585 208.251L209.327 207.143C207.848 207.487 206.35 207.784 204.836 208.032L205.02 209.154L205.204 210.277C206.767 210.021 208.314 209.714 209.842 209.359L209.585 208.251ZM202.719 209.493L202.572 208.365C201.067 208.561 199.548 208.71 198.014 208.809L198.088 209.944L198.161 211.079C199.744 210.977 201.313 210.823 202.866 210.621L202.719 209.493ZM195.765 210.056L195.728 208.919C194.966 208.944 194.201 208.956 193.434 208.956V210.094V211.231C194.226 211.231 195.015 211.218 195.801 211.193L195.765 210.056ZM193.434 210.094V207.819C192.678 207.819 191.925 207.807 191.176 207.782L191.102 210.056L191.029 212.33C191.828 212.356 192.629 212.369 193.434 212.369V210.094ZM188.779 209.944L188.926 207.674C187.418 207.576 185.922 207.43 184.442 207.237L184.148 209.493L183.854 211.749C185.432 211.955 187.025 212.11 188.633 212.214L188.779 209.944ZM181.848 209.154L182.216 206.909C180.726 206.665 179.253 206.373 177.797 206.035L177.283 208.251L176.768 210.467C178.32 210.828 179.891 211.139 181.48 211.399L181.848 209.154ZM175.026 207.688L175.614 205.49C174.158 205.101 172.721 204.665 171.304 204.184L170.573 206.338L169.842 208.493C171.353 209.005 172.886 209.47 174.439 209.886L175.026 207.688ZM168.383 205.555L169.185 203.426C167.776 202.895 166.389 202.319 165.025 201.701L164.085 203.772L163.145 205.844C164.599 206.504 166.078 207.118 167.581 207.684L168.383 205.555ZM161.983 202.776L162.991 200.737C161.642 200.07 160.318 199.361 159.02 198.61L157.881 200.579L156.742 202.549C158.125 203.349 159.537 204.105 160.975 204.816L161.983 202.776ZM155.887 199.382L157.09 197.451C155.814 196.656 154.566 195.82 153.347 194.945L152.02 196.793L150.694 198.641C151.993 199.574 153.323 200.465 154.684 201.312L155.887 199.382ZM150.153 195.406L151.539 193.602C150.347 192.686 149.187 191.732 148.059 190.742L146.558 192.452L145.057 194.162C146.26 195.217 147.497 196.234 148.767 197.21L150.153 195.406ZM144.834 190.889L146.39 189.229C145.294 188.202 144.232 187.14 143.205 186.044L141.544 187.599L139.884 189.155C140.979 190.323 142.111 191.455 143.279 192.549L144.834 190.889ZM139.982 185.876L141.691 184.375C140.701 183.247 139.747 182.086 138.832 180.895L137.028 182.281L135.224 183.667C136.2 184.937 137.216 186.174 138.272 187.376L139.982 185.876ZM135.641 180.413L137.489 179.086C136.614 177.868 135.778 176.62 134.983 175.344L133.052 176.547L131.121 177.75C131.969 179.11 132.86 180.441 133.792 181.74L135.641 180.413ZM131.854 174.553L133.823 173.413C133.073 172.116 132.363 170.792 131.697 169.443L129.657 170.451L127.618 171.459C128.328 172.897 129.085 174.309 129.885 175.692L131.854 174.553ZM128.661 168.349L130.733 167.409C130.114 166.045 129.539 164.658 129.008 163.249L126.879 164.05L124.75 164.852C125.316 166.355 125.93 167.835 126.59 169.289L128.661 168.349ZM126.095 161.861L128.25 161.13C127.769 159.713 127.333 158.276 126.944 156.82L124.746 157.407L122.548 157.995C122.963 159.548 123.428 161.081 123.941 162.592L126.095 161.861ZM124.182 155.151L126.398 154.636C126.06 153.181 125.768 151.707 125.524 150.218L123.279 150.586L121.034 150.954C121.294 152.542 121.606 154.113 121.966 155.666L124.182 155.151ZM122.941 148.286L125.197 147.991C125.004 146.511 124.858 145.016 124.76 143.507L122.49 143.654L120.219 143.801C120.323 145.408 120.479 147.002 120.685 148.58L122.941 148.286ZM122.377 141.331L124.651 141.258C124.627 140.508 124.615 139.756 124.615 139H122.34H120.065C120.065 139.804 120.078 140.606 120.104 141.404L122.377 141.331ZM122.34 139H124.615C124.615 138.244 124.627 137.492 124.651 136.742L122.377 136.669L120.104 136.596C120.078 137.394 120.065 138.196 120.065 139H122.34ZM122.49 134.346L124.76 134.493C124.858 132.984 125.004 131.489 125.197 130.009L122.941 129.714L120.685 129.42C120.479 130.998 120.323 132.592 120.219 134.199L122.49 134.346ZM123.279 127.414L125.524 127.782C125.768 126.293 126.06 124.819 126.398 123.364L124.182 122.849L121.966 122.334C121.606 123.887 121.294 125.458 121.034 127.046L123.279 127.414ZM124.746 120.593L126.944 121.18C127.333 119.724 127.769 118.287 128.25 116.87L126.095 116.139L123.941 115.408C123.428 116.919 122.963 118.452 122.548 120.005L124.746 120.593ZM126.879 113.95L129.008 114.751C129.539 113.342 130.114 111.955 130.733 110.591L128.661 109.651L126.59 108.711C125.93 110.165 125.316 111.645 124.75 113.148L126.879 113.95ZM129.657 107.549L131.697 108.557C132.363 107.208 133.073 105.884 133.823 104.587L131.854 103.447L129.885 102.308C129.085 103.691 128.328 105.103 127.618 106.541L129.657 107.549ZM133.052 101.453L134.983 102.656C135.778 101.38 136.614 100.132 137.489 98.9135L135.641 97.5868L133.792 96.2602C132.86 97.559 131.969 98.8896 131.121 100.25L133.052 101.453ZM137.028 95.7193L138.832 97.1055C139.747 95.9139 140.701 94.7531 141.691 93.625L139.982 92.1243L138.272 90.6236C137.216 91.8259 136.2 93.063 135.224 94.333L137.028 95.7193ZM141.544 90.4009L143.205 91.9564C144.232 90.8604 145.294 89.798 146.39 88.771L144.834 87.1109L143.279 85.4508C142.111 86.5452 140.979 87.6774 139.884 88.8454L141.544 90.4009ZM146.558 85.548L148.059 87.2578C149.187 86.2676 150.347 85.3138 151.539 84.3982L150.153 82.5943L148.767 80.7904C147.497 81.7663 146.259 82.7829 145.057 83.8381L146.558 85.548ZM152.02 81.2069L153.347 83.055C154.566 82.1803 155.814 81.3445 157.09 80.5493L155.887 78.6184L154.684 76.6876C153.323 77.5354 151.993 78.4264 150.694 79.3588L152.02 81.2069ZM157.881 77.4206L159.02 79.3898C160.318 78.6392 161.642 77.9297 162.991 77.2633L161.983 75.2236L160.975 73.184C159.537 73.8947 158.125 74.6512 156.742 75.4515L157.881 77.4206ZM164.085 74.2277L165.025 76.2993C166.389 75.6805 167.776 75.1049 169.185 74.5743L168.383 72.4452L167.581 70.3162C166.078 70.8822 164.599 71.4961 163.145 72.1561L164.085 74.2277ZM170.573 71.6616L171.304 73.8159C172.721 73.3352 174.158 72.8994 175.614 72.5101L175.026 70.3123L174.439 68.1144C172.886 68.5296 171.353 68.9945 169.842 69.5073L170.573 71.6616ZM177.283 69.7488L177.797 71.9648C179.253 71.6267 180.726 71.3348 182.216 71.0907L181.848 68.8456L181.48 66.6006C179.891 66.8609 178.32 67.1722 176.768 67.5329L177.283 69.7488ZM184.148 68.5072L184.442 70.763C185.922 70.57 187.418 70.4239 188.926 70.3264L188.779 68.0562L188.633 65.7859C187.025 65.8898 185.432 66.0454 183.854 66.2513L184.148 68.5072ZM191.102 67.9437L191.176 70.2176C191.925 70.1934 192.678 70.1812 193.434 70.1812V67.9062V65.6313C192.629 65.6313 191.828 65.6442 191.029 65.6699L191.102 67.9437ZM193.434 67.9062V70.1812C194.189 70.1812 194.942 70.1934 195.692 70.2176L195.765 67.9437L195.838 65.6699C195.04 65.6442 194.238 65.6313 193.434 65.6313V67.9062ZM198.088 68.0562L197.941 70.3264C199.45 70.4239 200.945 70.57 202.425 70.763L202.719 68.5072L203.013 66.2513C201.435 66.0454 199.842 65.8898 198.235 65.7859L198.088 68.0562ZM205.02 68.8456L204.652 71.0907C206.141 71.3348 207.614 71.6267 209.07 71.9648L209.585 69.7488L210.099 67.5329C208.547 67.1722 206.976 66.8609 205.388 66.6006L205.02 68.8456ZM211.841 70.3122L211.253 72.5101C212.709 72.8993 214.147 73.3352 215.563 73.8159L216.294 71.6616L217.025 69.5073C215.515 68.9945 213.982 68.5296 212.428 68.1144L211.841 70.3122ZM218.484 72.4452L217.682 74.5743C219.091 75.1049 220.479 75.6805 221.842 76.2993L222.782 74.2277L223.723 72.1561C222.268 71.4961 220.789 70.8822 219.286 70.3162L218.484 72.4452ZM224.884 75.2236L223.877 77.2633C225.226 77.9297 226.55 78.6392 227.847 79.3898L228.986 77.4206L230.125 75.4515C228.742 74.6512 227.331 73.8947 225.892 73.184L224.884 75.2236ZM230.98 78.6184L229.777 80.5492C231.053 81.3445 232.302 82.1803 233.52 83.055L234.847 81.2069L236.173 79.3588C234.875 78.4264 233.544 77.5354 232.184 76.6876L230.98 78.6184ZM236.714 82.5943L235.328 84.3981C236.52 85.3138 237.68 86.2676 238.809 87.2578L240.309 85.5479L241.81 83.8381C240.608 82.7829 239.371 81.7663 238.101 80.7904L236.714 82.5943ZM242.033 87.1109L240.477 88.771C241.573 89.798 242.636 90.8604 243.663 91.9564L245.323 90.4009L246.983 88.8454C245.888 87.6773 244.756 86.5452 243.588 85.4508L242.033 87.1109ZM246.886 92.1243L245.176 93.625C246.166 94.7531 247.12 95.9139 248.035 97.1055L249.839 95.7193L251.643 94.333C250.667 93.063 249.651 91.8259 248.595 90.6236L246.886 92.1243ZM251.227 97.5868L249.379 98.9135C250.253 100.132 251.089 101.38 251.884 102.656L253.815 101.453L255.746 100.25C254.898 98.8896 254.007 97.559 253.075 96.2602L251.227 97.5868ZM255.013 103.447L253.044 104.587C253.794 105.884 254.504 107.208 255.17 108.557L257.21 107.549L259.25 106.541C258.539 105.103 257.782 103.691 256.982 102.308L255.013 103.447ZM258.206 109.651L256.134 110.591C256.753 111.955 257.329 113.342 257.859 114.751L259.988 113.95L262.117 113.148C261.551 111.645 260.937 110.165 260.278 108.711L258.206 109.651ZM260.772 116.139L258.618 116.87C259.098 118.287 259.534 119.724 259.924 121.18L262.121 120.593L264.319 120.005C263.904 118.452 263.439 116.919 262.926 115.408L260.772 116.139ZM262.685 122.849L260.469 123.364C260.807 124.819 261.099 126.293 261.343 127.782L263.588 127.414L265.833 127.046C265.573 125.458 265.261 123.887 264.901 122.334L262.685 122.849ZM263.926 129.714L261.671 130.009C261.864 131.489 262.01 132.984 262.107 134.493L264.377 134.346L266.648 134.199C266.544 132.592 266.388 130.998 266.182 129.42L263.926 129.714ZM264.49 136.669L262.216 136.742C262.24 137.492 262.252 138.244 262.252 139H264.527H266.802C266.802 138.196 266.789 137.394 266.764 136.596L264.49 136.669ZM264.527 139H262.252C262.252 139.756 262.24 140.508 262.216 141.258L264.49 141.331L266.764 141.404C266.789 140.606 266.802 139.804 266.802 139H264.527ZM264.377 143.654L262.107 143.507C262.01 145.016 261.864 146.511 261.671 147.991L263.926 148.285L266.182 148.58C266.388 147.002 266.544 145.408 266.648 143.801L264.377 143.654ZM263.588 150.586L261.343 150.218C261.099 151.707 260.807 153.181 260.469 154.636L262.685 155.151L264.901 155.666C265.261 154.113 265.573 152.542 265.833 150.954L263.588 150.586ZM262.121 157.407L259.924 156.82C259.534 158.276 259.098 159.713 258.618 161.13L260.772 161.861L262.926 162.592C263.439 161.081 263.904 159.548 264.319 157.995L262.121 157.407ZM259.988 164.05L257.859 163.249C257.329 164.658 256.753 166.045 256.134 167.409L258.206 168.349L260.278 169.289C260.937 167.835 261.551 166.355 262.117 164.852L259.988 164.05ZM257.21 170.451L255.17 169.443C254.504 170.792 253.794 172.116 253.044 173.413L255.013 174.553L256.982 175.692C257.782 174.309 258.539 172.897 259.25 171.459L257.21 170.451ZM253.815 176.547L251.884 175.344C251.089 176.62 250.253 177.868 249.379 179.086L251.227 180.413L253.075 181.74C254.007 180.441 254.898 179.11 255.746 177.75L253.815 176.547ZM249.839 182.281L248.035 180.895C247.12 182.086 246.166 183.247 245.176 184.375L246.886 185.876L248.595 187.376C249.651 186.174 250.667 184.937 251.643 183.667L249.839 182.281ZM245.323 187.599L243.663 186.044C242.636 187.14 241.573 188.202 240.477 189.229L242.033 190.889L243.588 192.549C244.756 191.455 245.888 190.323 246.983 189.155L245.323 187.599ZM240.309 192.452L238.809 190.742C237.68 191.732 236.52 192.686 235.328 193.602L236.714 195.406L238.101 197.21C239.371 196.234 240.608 195.217 241.81 194.162L240.309 192.452ZM234.847 196.793L233.52 194.945C232.302 195.82 231.053 196.656 229.777 197.451L230.98 199.382L232.184 201.312C233.544 200.465 234.875 199.574 236.173 198.641L234.847 196.793ZM228.986 200.579L227.847 198.61C226.55 199.361 225.226 200.07 223.877 200.737L224.884 202.776L225.892 204.816C227.331 204.105 228.742 203.349 230.125 202.549L228.986 200.579ZM222.782 203.772L221.842 201.701C220.479 202.319 219.091 202.895 217.682 203.426L218.484 205.555L219.286 207.684C220.789 207.118 222.268 206.504 223.723 205.844L222.782 203.772ZM216.294 206.338L215.563 204.184C214.147 204.665 212.709 205.101 211.253 205.49L211.841 207.688L212.428 209.886C213.982 209.47 215.515 209.005 217.025 208.493L216.294 206.338ZM209.585 208.251L209.07 206.035C207.614 206.373 206.141 206.665 204.652 206.909L205.02 209.154L205.388 211.399C206.976 211.139 208.547 210.828 210.099 210.467L209.585 208.251ZM202.719 209.493L202.425 207.237C200.945 207.43 199.45 207.576 197.941 207.674L198.088 209.944L198.235 212.214C199.842 212.11 201.435 211.955 203.013 211.749L202.719 209.493ZM195.765 210.056L195.692 207.782C194.942 207.807 194.189 207.819 193.434 207.819V210.094V212.369C194.238 212.369 195.04 212.356 195.838 212.33L195.765 210.056Z" fill="#242424" fill-opacity="0.08" mask="url(#path-4-inside-2_4286_7336)"/>
</g>
<g opacity="0.65" filter="url(#filter0_d_4286_7336)">
<mask id="path-6-inside-3_4286_7336" fill="white">
<path d="M142.246 139C142.246 110.73 165.164 87.8125 193.434 87.8125V87.8125C221.704 87.8125 244.621 110.73 244.621 139V139C244.621 167.27 221.704 190.188 193.434 190.188V190.188C165.164 190.188 142.246 167.27 142.246 139V139Z"/>
</mask>
<path d="M142.246 139C142.246 110.73 165.164 87.8125 193.434 87.8125V87.8125C221.704 87.8125 244.621 110.73 244.621 139V139C244.621 167.27 221.704 190.188 193.434 190.188V190.188C165.164 190.188 142.246 167.27 142.246 139V139Z" fill="white" fill-opacity="0.01" shape-rendering="crispEdges"/>
<path d="M193.434 190.188V189.05C192.701 189.05 191.972 189.034 191.247 189.003L191.199 190.14L191.15 191.276C191.907 191.309 192.668 191.325 193.434 191.325V190.188ZM188.969 189.995L189.067 188.862C187.604 188.736 186.16 188.547 184.737 188.297L184.54 189.418L184.344 190.538C185.832 190.799 187.342 190.997 188.871 191.129L188.969 189.995ZM182.35 188.984L182.595 187.874C181.165 187.558 179.759 187.181 178.378 186.746L178.037 187.831L177.695 188.916C179.139 189.371 180.61 189.765 182.105 190.095L182.35 188.984ZM175.922 187.114L176.311 186.045C174.937 185.545 173.591 184.986 172.277 184.372L171.796 185.403L171.314 186.433C172.689 187.075 174.096 187.659 175.532 188.182L175.922 187.114ZM169.793 184.413L170.319 183.405C169.025 182.73 167.764 182 166.54 181.218L165.927 182.177L165.315 183.135C166.596 183.953 167.914 184.716 169.267 185.422L169.793 184.413ZM164.072 180.934L164.725 180.003C163.531 179.166 162.376 178.278 161.262 177.342L160.53 178.213L159.799 179.084C160.963 180.062 162.171 180.99 163.418 181.865L164.072 180.934ZM158.852 176.74L159.621 175.901C158.547 174.917 157.517 173.887 156.532 172.813L155.694 173.582L154.855 174.35C155.884 175.473 156.961 176.55 158.083 177.578L158.852 176.74ZM154.221 171.903L155.092 171.172C154.156 170.058 153.268 168.902 152.431 167.709L151.499 168.362L150.568 169.015C151.443 170.263 152.372 171.47 153.35 172.635L154.221 171.903ZM150.257 166.506L151.216 165.894C150.434 164.669 149.704 163.409 149.029 162.115L148.02 162.641L147.012 163.167C147.718 164.52 148.481 165.838 149.298 167.118L150.257 166.506ZM147.031 160.638L148.062 160.157C147.448 158.842 146.889 157.497 146.389 156.123L145.32 156.512L144.251 156.901C144.774 158.338 145.358 159.745 146 161.12L147.031 160.638ZM144.602 154.397L145.687 154.055C145.252 152.675 144.876 151.268 144.56 149.839L143.449 150.084L142.339 150.329C142.669 151.824 143.063 153.295 143.517 154.739L144.602 154.397ZM143.016 147.893L144.136 147.697C143.887 146.274 143.698 144.829 143.571 143.367L142.438 143.465L141.305 143.563C141.437 145.091 141.635 146.601 141.895 148.09L143.016 147.893ZM142.294 141.235L143.43 141.186C143.399 140.461 143.384 139.733 143.384 139H142.246H141.109C141.109 139.765 141.125 140.527 141.158 141.284L142.294 141.235ZM142.246 139H143.384C143.384 138.267 143.399 137.539 143.43 136.814L142.294 136.765L141.158 136.716C141.125 137.473 141.109 138.235 141.109 139H142.246ZM142.438 134.535L143.571 134.633C143.698 133.171 143.887 131.726 144.136 130.303L143.016 130.107L141.895 129.91C141.635 131.399 141.437 132.909 141.305 134.437L142.438 134.535ZM143.449 127.916L144.56 128.161C144.876 126.732 145.252 125.325 145.687 123.945L144.602 123.603L143.517 123.261C143.063 124.705 142.669 126.176 142.339 127.671L143.449 127.916ZM145.32 121.488L146.389 121.877C146.889 120.503 147.448 119.158 148.062 117.843L147.031 117.362L146 116.881C145.358 118.255 144.774 119.662 144.251 121.099L145.32 121.488ZM148.02 115.359L149.029 115.885C149.704 114.591 150.434 113.331 151.216 112.106L150.257 111.494L149.298 110.882C148.481 112.162 147.718 113.48 147.012 114.833L148.02 115.359ZM151.499 109.638L152.431 110.291C153.268 109.098 154.156 107.942 155.092 106.829L154.22 106.097L153.349 105.365C152.372 106.53 151.443 107.737 150.568 108.985L151.499 109.638ZM155.694 104.418L156.532 105.187C157.516 104.113 158.547 103.083 159.621 102.099L158.852 101.26L158.083 100.422C156.961 101.45 155.884 102.527 154.855 103.65L155.694 104.418ZM160.53 99.7869L161.262 100.658C162.376 99.7222 163.531 98.8342 164.725 97.997L164.072 97.0658L163.418 96.1346C162.171 97.0097 160.963 97.9379 159.799 98.9159L160.53 99.7869ZM165.927 95.8233L166.54 96.7821C167.764 96.0003 169.025 95.2703 170.319 94.5953L169.793 93.5868L169.267 92.5783C167.914 93.284 166.596 94.0472 165.315 94.8645L165.927 95.8233ZM171.795 92.5974L172.277 93.628C173.591 93.014 174.937 92.4554 176.311 91.9553L175.922 90.8864L175.532 89.8176C174.096 90.3406 172.689 90.9247 171.314 91.5668L171.795 92.5974ZM178.037 90.1687L178.378 91.2537C179.759 90.8187 181.165 90.4421 182.595 90.1265L182.35 89.0157L182.105 87.905C180.61 88.235 179.139 88.6289 177.695 89.0838L178.037 90.1687ZM184.54 88.5823L184.737 89.7028C186.16 89.4534 187.604 89.2642 189.067 89.1378L188.969 88.0045L188.871 86.8713C187.342 87.0033 185.832 87.2011 184.344 87.4619L184.54 88.5823ZM191.199 87.8604L191.247 88.9969C191.972 88.9657 192.701 88.95 193.434 88.95V87.8125V86.675C192.668 86.675 191.907 86.6914 191.15 86.724L191.199 87.8604ZM193.434 87.8125V88.95C194.166 88.95 194.895 88.9657 195.62 88.9969L195.669 87.8604L195.717 86.724C194.96 86.6914 194.199 86.675 193.434 86.675V87.8125ZM197.898 88.0045L197.8 89.1378C199.263 89.2642 200.707 89.4534 202.131 89.7027L202.327 88.5823L202.523 87.4619C201.035 87.2011 199.525 87.0033 197.996 86.8713L197.898 88.0045ZM204.517 89.0157L204.272 90.1265C205.702 90.4421 207.108 90.8187 208.489 91.2537L208.831 90.1687L209.172 89.0838C207.728 88.6289 206.258 88.235 204.763 87.905L204.517 89.0157ZM210.946 90.8864L210.556 91.9553C211.93 92.4554 213.276 93.0139 214.59 93.628L215.072 92.5974L215.553 91.5668C214.178 90.9247 212.771 90.3406 211.335 89.8176L210.946 90.8864ZM217.074 93.5868L216.548 94.5953C217.842 95.2703 219.103 96.0003 220.328 96.7821L220.94 95.8233L221.552 94.8645C220.272 94.0472 218.953 93.284 217.6 92.5783L217.074 93.5868ZM222.796 97.0658L222.142 97.997C223.336 98.8342 224.491 99.7222 225.605 100.658L226.337 99.7869L227.068 98.9159C225.904 97.9379 224.696 97.0097 223.449 96.1346L222.796 97.0658ZM228.015 101.26L227.247 102.099C228.32 103.083 229.351 104.113 230.335 105.187L231.173 104.418L232.012 103.65C230.983 102.527 229.906 101.45 228.784 100.422L228.015 101.26ZM232.647 106.097L231.776 106.828C232.711 107.942 233.599 109.098 234.437 110.291L235.368 109.638L236.299 108.985C235.424 107.737 234.496 106.53 233.518 105.365L232.647 106.097ZM236.61 111.494L235.652 112.106C236.433 113.331 237.163 114.591 237.838 115.885L238.847 115.359L239.855 114.833C239.15 113.48 238.386 112.162 237.569 110.882L236.61 111.494ZM239.836 117.362L238.806 117.843C239.42 119.158 239.978 120.503 240.478 121.877L241.547 121.488L242.616 121.099C242.093 119.662 241.509 118.255 240.867 116.88L239.836 117.362ZM242.265 123.603L241.18 123.945C241.615 125.325 241.992 126.732 242.307 128.161L243.418 127.916L244.529 127.671C244.199 126.176 243.805 124.705 243.35 123.261L242.265 123.603ZM243.851 130.107L242.731 130.303C242.98 131.726 243.169 133.171 243.296 134.633L244.429 134.535L245.562 134.437C245.43 132.909 245.232 131.399 244.972 129.91L243.851 130.107ZM244.573 136.765L243.437 136.814C243.468 137.539 243.484 138.267 243.484 139H244.621H245.759C245.759 138.235 245.742 137.473 245.71 136.716L244.573 136.765ZM244.621 139H243.484C243.484 139.733 243.468 140.461 243.437 141.186L244.573 141.235L245.71 141.284C245.742 140.527 245.759 139.765 245.759 139H244.621ZM244.429 143.465L243.296 143.367C243.169 144.829 242.98 146.274 242.731 147.697L243.851 147.893L244.972 148.09C245.232 146.601 245.43 145.091 245.562 143.563L244.429 143.465ZM243.418 150.084L242.307 149.839C241.992 151.268 241.615 152.675 241.18 154.055L242.265 154.397L243.35 154.739C243.805 153.295 244.199 151.824 244.529 150.329L243.418 150.084ZM241.547 156.512L240.478 156.123C239.978 157.497 239.42 158.842 238.806 160.157L239.836 160.638L240.867 161.119C241.509 159.745 242.093 158.338 242.616 156.901L241.547 156.512ZM238.847 162.641L237.838 162.115C237.163 163.409 236.433 164.669 235.652 165.894L236.61 166.506L237.569 167.118C238.386 165.838 239.15 164.52 239.855 163.167L238.847 162.641ZM235.368 168.362L234.437 167.709C233.599 168.902 232.711 170.058 231.776 171.171L232.647 171.903L233.518 172.635C234.496 171.47 235.424 170.263 236.299 169.015L235.368 168.362ZM231.173 173.582L230.335 172.813C229.351 173.887 228.32 174.917 227.247 175.901L228.015 176.74L228.784 177.578C229.906 176.55 230.983 175.473 232.012 174.35L231.173 173.582ZM226.337 178.213L225.605 177.342C224.491 178.278 223.336 179.166 222.142 180.003L222.796 180.934L223.449 181.865C224.696 180.99 225.904 180.062 227.068 179.084L226.337 178.213ZM220.94 182.177L220.328 181.218C219.103 182 217.842 182.73 216.548 183.405L217.074 184.413L217.6 185.422C218.953 184.716 220.272 183.953 221.552 183.135L220.94 182.177ZM215.072 185.403L214.59 184.372C213.276 184.986 211.93 185.545 210.556 186.045L210.946 187.114L211.335 188.182C212.771 187.659 214.178 187.075 215.553 186.433L215.072 185.403ZM208.831 187.831L208.489 186.746C207.108 187.181 205.702 187.558 204.272 187.874L204.517 188.984L204.763 190.095C206.258 189.765 207.728 189.371 209.172 188.916L208.831 187.831ZM202.327 189.418L202.131 188.297C200.707 188.547 199.263 188.736 197.8 188.862L197.898 189.995L197.996 191.129C199.525 190.997 201.035 190.799 202.523 190.538L202.327 189.418ZM195.669 190.14L195.62 189.003C194.895 189.034 194.166 189.05 193.434 189.05V190.188V191.325C194.199 191.325 194.96 191.309 195.717 191.276L195.669 190.14ZM193.434 190.188V187.912C192.717 187.912 192.005 187.897 191.296 187.867L191.199 190.14L191.101 192.412C191.874 192.446 192.652 192.463 193.434 192.463V190.188ZM188.969 189.995L189.165 187.729C187.735 187.605 186.324 187.42 184.933 187.177L184.54 189.418L184.148 191.659C185.669 191.925 187.211 192.127 188.773 192.262L188.969 189.995ZM182.35 188.984L182.84 186.763C181.443 186.454 180.069 186.086 178.72 185.661L178.037 187.831L177.353 190.001C178.829 190.466 180.332 190.869 181.859 191.206L182.35 188.984ZM175.922 187.114L176.7 184.976C175.358 184.487 174.043 183.941 172.758 183.341L171.796 185.403L170.833 187.464C172.237 188.12 173.675 188.717 175.143 189.251L175.922 187.114ZM169.793 184.413L170.845 182.396C169.581 181.737 168.348 181.023 167.152 180.259L165.927 182.177L164.703 184.094C166.011 184.929 167.358 185.709 168.741 186.43L169.793 184.413ZM164.072 180.934L165.378 179.072C164.212 178.254 163.082 177.386 161.994 176.471L160.53 178.213L159.067 179.955C160.257 180.954 161.49 181.903 162.765 182.797L164.072 180.934ZM158.852 176.74L160.389 175.063C159.34 174.101 158.333 173.094 157.371 172.044L155.694 173.582L154.017 175.119C155.068 176.265 156.168 177.366 157.314 178.417L158.852 176.74ZM154.221 171.903L155.963 170.44C155.048 169.351 154.18 168.222 153.362 167.056L151.499 168.362L149.637 169.669C150.531 170.943 151.479 172.177 152.478 173.366L154.221 171.903ZM150.257 166.506L152.174 165.282C151.41 164.085 150.697 162.853 150.037 161.588L148.02 162.641L146.003 163.693C146.724 165.075 147.504 166.422 148.339 167.73L150.257 166.506ZM147.031 160.638L149.092 159.675C148.492 158.391 147.946 157.076 147.458 155.734L145.32 156.512L143.182 157.29C143.717 158.758 144.314 160.196 144.97 161.601L147.031 160.638ZM144.602 154.397L146.772 153.714C146.347 152.365 145.979 150.99 145.671 149.593L143.449 150.084L141.228 150.574C141.565 152.102 141.968 153.605 142.432 155.081L144.602 154.397ZM143.016 147.893L145.257 147.501C145.013 146.11 144.828 144.698 144.705 143.269L142.438 143.465L140.172 143.661C140.306 145.222 140.509 146.765 140.775 148.286L143.016 147.893ZM142.294 141.235L144.567 141.137C144.536 140.429 144.521 139.716 144.521 139H142.246H139.971C139.971 139.781 139.988 140.559 140.021 141.333L142.294 141.235ZM142.246 139H144.521C144.521 138.284 144.536 137.571 144.567 136.863L142.294 136.765L140.021 136.667C139.988 137.441 139.971 138.219 139.971 139H142.246ZM142.438 134.535L144.705 134.731C144.828 133.302 145.013 131.89 145.257 130.499L143.016 130.107L140.775 129.714C140.509 131.235 140.306 132.778 140.172 134.339L142.438 134.535ZM143.449 127.916L145.671 128.407C145.979 127.01 146.347 125.635 146.772 124.286L144.602 123.603L142.432 122.919C141.968 124.395 141.565 125.898 141.228 127.426L143.449 127.916ZM145.32 121.488L147.458 122.266C147.946 120.924 148.492 119.609 149.092 118.325L147.031 117.362L144.97 116.399C144.314 117.804 143.717 119.242 143.182 120.71L145.32 121.488ZM148.02 115.359L150.037 116.412C150.697 115.147 151.41 113.915 152.174 112.718L150.257 111.494L148.339 110.27C147.504 111.578 146.724 112.925 146.003 114.307L148.02 115.359ZM151.499 109.638L153.362 110.944C154.18 109.778 155.048 108.649 155.963 107.56L154.22 106.097L152.478 104.634C151.479 105.823 150.531 107.057 149.637 108.331L151.499 109.638ZM155.694 104.418L157.371 105.956C158.333 104.906 159.34 103.899 160.389 102.937L158.852 101.26L157.314 99.5833C156.168 100.634 155.068 101.735 154.017 102.881L155.694 104.418ZM160.53 99.7869L161.994 101.529C163.082 100.614 164.212 99.7465 165.378 98.9282L164.072 97.0658L162.765 95.2034C161.49 96.0975 160.257 97.0458 159.067 98.0449L160.53 99.7869ZM165.927 95.8233L167.152 97.7409C168.348 96.9768 169.581 96.2635 170.845 95.6039L169.793 93.5868L168.741 91.5697C167.358 92.2909 166.011 93.0707 164.703 93.9057L165.927 95.8233ZM171.795 92.5974L172.758 94.6586C174.043 94.0586 175.358 93.5128 176.7 93.0242L175.922 90.8864L175.143 88.7487C173.675 89.2831 172.237 89.88 170.833 90.5362L171.795 92.5974ZM178.037 90.1687L178.72 92.3386C180.069 91.9137 181.443 91.5456 182.84 91.2372L182.35 89.0157L181.859 86.7942C180.332 87.1314 178.829 87.534 177.353 87.9988L178.037 90.1687ZM184.54 88.5823L184.933 90.8232C186.324 90.5795 187.735 90.3946 189.165 90.2711L188.969 88.0045L188.773 85.738C187.211 85.8729 185.669 86.075 184.148 86.3414L184.54 88.5823ZM191.199 87.8604L191.296 90.1333C192.005 90.1029 192.717 90.0875 193.434 90.0875V87.8125V85.5375C192.652 85.5375 191.874 85.5543 191.101 85.5875L191.199 87.8604ZM193.434 87.8125V90.0875C194.15 90.0875 194.862 90.1029 195.571 90.1333L195.669 87.8604L195.766 85.5875C194.993 85.5543 194.215 85.5375 193.434 85.5375V87.8125ZM197.898 88.0045L197.703 90.2711C199.132 90.3946 200.543 90.5795 201.934 90.8232L202.327 88.5823L202.719 86.3414C201.199 86.075 199.656 85.8729 198.094 85.738L197.898 88.0045ZM204.517 89.0157L204.027 91.2372C205.424 91.5456 206.798 91.9136 208.147 92.3386L208.831 90.1687L209.514 87.9988C208.039 87.534 206.535 87.1314 205.008 86.7942L204.517 89.0157ZM210.946 90.8864L210.167 93.0242C211.51 93.5128 212.824 94.0586 214.109 94.6586L215.072 92.5974L216.034 90.5362C214.63 89.88 213.192 89.2831 211.724 88.7487L210.946 90.8864ZM217.074 93.5868L216.022 95.6039C217.287 96.2635 218.519 96.9768 219.716 97.7409L220.94 95.8233L222.164 93.9057C220.856 93.0707 219.509 92.2909 218.126 91.5697L217.074 93.5868ZM222.796 97.0658L221.489 98.9282C222.656 99.7465 223.785 100.614 224.873 101.529L226.337 99.7869L227.8 98.0449C226.61 97.0458 225.377 96.0975 224.102 95.2033L222.796 97.0658ZM228.015 101.26L226.478 102.937C227.527 103.899 228.534 104.906 229.496 105.956L231.173 104.418L232.85 102.881C231.799 101.735 230.699 100.634 229.553 99.5833L228.015 101.26ZM232.647 106.097L230.905 107.56C231.819 108.649 232.687 109.778 233.505 110.944L235.368 109.638L237.23 108.331C236.336 107.057 235.388 105.823 234.389 104.634L232.647 106.097ZM236.61 111.494L234.693 112.718C235.457 113.915 236.17 115.147 236.83 116.412L238.847 115.359L240.864 114.307C240.143 112.925 239.363 111.578 238.528 110.27L236.61 111.494ZM239.836 117.362L237.775 118.325C238.375 119.609 238.921 120.924 239.409 122.266L241.547 121.488L243.685 120.71C243.15 119.242 242.554 117.804 241.897 116.399L239.836 117.362ZM242.265 123.603L240.095 124.286C240.52 125.635 240.888 127.01 241.196 128.407L243.418 127.916L245.639 127.426C245.302 125.898 244.9 124.395 244.435 122.919L242.265 123.603ZM243.851 130.107L241.61 130.499C241.854 131.89 242.039 133.302 242.163 134.731L244.429 134.535L246.696 134.339C246.561 132.778 246.359 131.235 246.092 129.714L243.851 130.107ZM244.573 136.765L242.3 136.863C242.331 137.571 242.346 138.284 242.346 139H244.621H246.896C246.896 138.219 246.879 137.441 246.846 136.667L244.573 136.765ZM244.621 139H242.346C242.346 139.716 242.331 140.429 242.3 141.137L244.573 141.235L246.846 141.333C246.879 140.559 246.896 139.781 246.896 139H244.621ZM244.429 143.465L242.163 143.269C242.039 144.698 241.854 146.11 241.61 147.501L243.851 147.893L246.092 148.286C246.359 146.765 246.561 145.222 246.696 143.661L244.429 143.465ZM243.418 150.084L241.196 149.593C240.888 150.99 240.52 152.365 240.095 153.714L242.265 154.397L244.435 155.081C244.9 153.605 245.302 152.102 245.639 150.574L243.418 150.084ZM241.547 156.512L239.409 155.734C238.921 157.076 238.375 158.391 237.775 159.675L239.836 160.638L241.897 161.601C242.554 160.196 243.15 158.758 243.685 157.29L241.547 156.512ZM238.847 162.641L236.83 161.588C236.17 162.853 235.457 164.085 234.693 165.282L236.61 166.506L238.528 167.73C239.363 166.422 240.143 165.075 240.864 163.693L238.847 162.641ZM235.368 168.362L233.505 167.056C232.687 168.222 231.819 169.351 230.905 170.44L232.647 171.903L234.389 173.366C235.388 172.177 236.336 170.943 237.23 169.669L235.368 168.362ZM231.173 173.582L229.496 172.044C228.534 173.094 227.527 174.101 226.478 175.063L228.015 176.74L229.553 178.417C230.699 177.366 231.799 176.265 232.85 175.119L231.173 173.582ZM226.337 178.213L224.873 176.471C223.785 177.386 222.656 178.254 221.489 179.072L222.796 180.934L224.102 182.797C225.377 181.903 226.61 180.954 227.8 179.955L226.337 178.213ZM220.94 182.177L219.716 180.259C218.519 181.023 217.287 181.737 216.022 182.396L217.074 184.413L218.126 186.43C219.509 185.709 220.856 184.929 222.164 184.094L220.94 182.177ZM215.072 185.403L214.109 183.341C212.824 183.941 211.51 184.487 210.167 184.976L210.946 187.114L211.724 189.251C213.192 188.717 214.63 188.12 216.035 187.464L215.072 185.403ZM208.831 187.831L208.147 185.661C206.798 186.086 205.424 186.454 204.027 186.763L204.517 188.984L205.008 191.206C206.535 190.869 208.039 190.466 209.514 190.001L208.831 187.831ZM202.327 189.418L201.934 187.177C200.543 187.42 199.132 187.605 197.703 187.729L197.898 189.995L198.094 192.262C199.656 192.127 201.199 191.925 202.719 191.659L202.327 189.418ZM195.669 190.14L195.571 187.867C194.862 187.897 194.15 187.912 193.434 187.912V190.188V192.463C194.215 192.463 194.993 192.446 195.766 192.412L195.669 190.14Z" fill="#FCB344" mask="url(#path-6-inside-3_4286_7336)"/>
<path d="M144.52 139C144.52 111.986 166.418 90.0874 193.432 90.0874V90.0874C220.446 90.0874 242.345 111.986 242.345 139V139C242.345 166.014 220.446 187.912 193.432 187.912V187.912C166.418 187.912 144.52 166.014 144.52 139V139Z" fill="url(#paint1_linear_4286_7336)"/>
<g filter="url(#filter1_d_4286_7336)">
<path d="M188.883 90.0876C188.883 87.5747 190.92 85.5376 193.433 85.5376V85.5376C195.946 85.5376 197.983 87.5747 197.983 90.0876V90.0876C197.983 92.6005 195.946 94.6376 193.433 94.6376V94.6376C190.92 94.6376 188.883 92.6005 188.883 90.0876V90.0876Z" fill="#FCB344"/>
</g>
</g>
<g opacity="0.85">
<mask id="path-10-inside-4_4286_7336" fill="white">
<path d="M162.152 139C162.152 121.724 176.157 107.719 193.434 107.719V107.719C210.71 107.719 224.715 121.724 224.715 139V139C224.715 156.276 210.71 170.281 193.434 170.281V170.281C176.157 170.281 162.152 156.276 162.152 139V139Z"/>
</mask>
<path d="M193.434 170.281V169.144C192.674 169.144 191.922 169.116 191.177 169.061L191.094 170.195L191.01 171.329C191.81 171.389 192.618 171.419 193.434 171.419V170.281ZM188.77 169.936L188.938 168.811C187.434 168.586 185.967 168.25 184.545 167.812L184.211 168.899L183.876 169.986C185.406 170.458 186.984 170.819 188.602 171.061L188.77 169.936ZM182.002 168.126L182.417 167.068C181.01 166.515 179.655 165.86 178.36 165.11L177.79 166.095L177.221 167.08C178.613 167.885 180.072 168.59 181.586 169.185L182.002 168.126ZM175.811 164.849L176.453 163.909C175.209 163.06 174.032 162.119 172.931 161.097L172.157 161.931L171.383 162.765C172.566 163.863 173.832 164.874 175.169 165.788L175.811 164.849ZM170.503 160.277L171.336 159.503C170.315 158.402 169.374 157.225 168.524 155.981L167.585 156.623L166.646 157.264C167.559 158.602 168.571 159.867 169.669 161.051L170.503 160.277ZM166.339 154.643L167.323 154.073C166.574 152.779 165.919 151.423 165.366 150.016L164.307 150.432L163.248 150.848C163.843 152.362 164.548 153.82 165.354 155.213L166.339 154.643ZM163.534 148.223L164.621 147.888C164.183 146.466 163.847 144.999 163.623 143.496L162.498 143.664L161.373 143.832C161.614 145.449 161.976 147.028 162.447 148.558L163.534 148.223ZM162.239 141.34L163.373 141.256C163.318 140.512 163.29 139.759 163.29 139H162.152H161.015C161.015 139.815 161.045 140.624 161.104 141.424L162.239 141.34ZM162.152 139H163.29C163.29 138.241 163.318 137.489 163.373 136.744L162.239 136.66L161.104 136.576C161.045 137.376 161.015 138.185 161.015 139H162.152ZM162.498 134.336L163.623 134.504C163.847 133.001 164.183 131.534 164.621 130.112L163.534 129.777L162.447 129.442C161.976 130.972 161.614 132.551 161.373 134.168L162.498 134.336ZM164.307 127.568L165.366 127.984C165.919 126.577 166.574 125.221 167.323 123.927L166.339 123.357L165.354 122.787C164.548 124.18 163.843 125.638 163.248 127.152L164.307 127.568ZM167.585 121.377L168.524 122.019C169.374 120.775 170.315 119.598 171.336 118.497L170.503 117.723L169.669 116.949C168.571 118.133 167.559 119.398 166.646 120.736L167.585 121.377ZM172.157 116.069L172.931 116.903C174.032 115.881 175.209 114.94 176.453 114.091L175.811 113.151L175.169 112.212C173.832 113.126 172.566 114.137 171.383 115.235L172.157 116.069ZM177.79 111.905L178.36 112.89C179.655 112.14 181.01 111.485 182.417 110.932L182.002 109.874L181.586 108.815C180.072 109.41 178.613 110.115 177.221 110.92L177.79 111.905ZM184.211 109.101L184.545 110.188C185.967 109.75 187.434 109.414 188.938 109.189L188.77 108.064L188.602 106.939C186.984 107.181 185.406 107.542 183.876 108.014L184.211 109.101ZM191.094 107.805L191.177 108.939C191.922 108.884 192.674 108.856 193.434 108.856V107.719V106.581C192.618 106.581 191.81 106.611 191.01 106.671L191.094 107.805ZM193.434 107.719V108.856C194.193 108.856 194.945 108.884 195.69 108.939L195.774 107.805L195.858 106.671C195.057 106.611 194.249 106.581 193.434 106.581V107.719ZM198.097 108.064L197.929 109.189C199.433 109.414 200.9 109.75 202.322 110.188L202.657 109.101L202.992 108.014C201.461 107.542 199.883 107.181 198.265 106.939L198.097 108.064ZM204.866 109.874L204.45 110.932C205.857 111.485 207.212 112.14 208.507 112.89L209.077 111.905L209.646 110.92C208.254 110.115 206.795 109.41 205.281 108.815L204.866 109.874ZM211.056 113.151L210.415 114.091C211.659 114.94 212.836 115.881 213.936 116.903L214.71 116.069L215.484 115.235C214.301 114.137 213.035 113.126 211.698 112.212L211.056 113.151ZM216.365 117.723L215.531 118.497C216.553 119.598 217.493 120.775 218.343 122.019L219.282 121.377L220.221 120.736C219.308 119.398 218.297 118.133 217.198 116.949L216.365 117.723ZM220.529 123.357L219.544 123.927C220.293 125.221 220.949 126.577 221.501 127.984L222.56 127.568L223.619 127.152C223.024 125.638 222.319 124.18 221.513 122.787L220.529 123.357ZM223.333 129.777L222.246 130.112C222.684 131.534 223.02 133.001 223.245 134.504L224.37 134.336L225.495 134.168C225.253 132.551 224.892 130.972 224.42 129.442L223.333 129.777ZM224.629 136.66L223.494 136.744C223.549 137.488 223.577 138.241 223.577 139H224.715H225.852C225.852 138.185 225.822 137.376 225.763 136.576L224.629 136.66ZM224.715 139H223.577C223.577 139.759 223.549 140.511 223.494 141.256L224.629 141.34L225.763 141.424C225.822 140.624 225.852 139.815 225.852 139H224.715ZM224.37 143.664L223.245 143.496C223.02 144.999 222.684 146.466 222.246 147.888L223.333 148.223L224.42 148.558C224.892 147.028 225.253 145.449 225.495 143.832L224.37 143.664ZM222.56 150.432L221.501 150.016C220.949 151.423 220.293 152.779 219.544 154.073L220.529 154.643L221.513 155.213C222.319 153.82 223.024 152.362 223.619 150.848L222.56 150.432ZM219.282 156.623L218.343 155.981C217.493 157.225 216.553 158.402 215.531 159.503L216.365 160.277L217.198 161.051C218.297 159.867 219.308 158.602 220.221 157.264L219.282 156.623ZM214.71 161.931L213.936 161.097C212.836 162.119 211.659 163.06 210.415 163.909L211.056 164.849L211.698 165.788C213.035 164.874 214.301 163.863 215.484 162.765L214.71 161.931ZM209.077 166.095L208.507 165.11C207.212 165.86 205.857 166.515 204.45 167.068L204.866 168.126L205.281 169.185C206.795 168.59 208.254 167.885 209.646 167.08L209.077 166.095ZM202.657 168.899L202.322 167.812C200.9 168.25 199.433 168.586 197.929 168.811L198.097 169.936L198.265 171.061C199.883 170.819 201.461 170.458 202.992 169.986L202.657 168.899ZM195.774 170.195L195.69 169.061C194.945 169.116 194.193 169.144 193.434 169.144V170.281V171.419C194.249 171.419 195.057 171.389 195.858 171.329L195.774 170.195ZM193.434 170.281V168.006C192.702 168.006 191.978 167.979 191.261 167.926L191.094 170.195L190.926 172.464C191.754 172.525 192.59 172.556 193.434 172.556V170.281ZM188.77 169.936L189.106 167.686C187.66 167.47 186.248 167.147 184.88 166.725L184.211 168.899L183.541 171.074C185.125 171.562 186.759 171.936 188.434 172.186L188.77 169.936ZM182.002 168.126L182.833 166.009C181.48 165.477 180.176 164.847 178.93 164.126L177.79 166.095L176.651 168.064C178.093 168.898 179.602 169.628 181.17 170.244L182.002 168.126ZM175.811 164.849L177.094 162.97C175.897 162.152 174.764 161.247 173.705 160.264L172.157 161.931L170.609 163.598C171.834 164.735 173.143 165.781 174.528 166.727L175.811 164.849ZM170.503 160.277L172.17 158.729C171.186 157.669 170.281 156.537 169.464 155.339L167.585 156.623L165.706 157.906C166.652 159.29 167.699 160.6 168.835 161.824L170.503 160.277ZM166.339 154.643L168.308 153.504C167.587 152.258 166.956 150.954 166.425 149.6L164.307 150.432L162.19 151.264C162.805 152.831 163.535 154.341 164.37 155.782L166.339 154.643ZM163.534 148.223L165.708 147.553C165.287 146.185 164.964 144.774 164.748 143.327L162.498 143.664L160.248 144C160.498 145.674 160.872 147.309 161.36 148.893L163.534 148.223ZM162.239 141.34L164.507 141.172C164.454 140.455 164.427 139.731 164.427 139H162.152H159.877C159.877 139.843 159.908 140.68 159.97 141.508L162.239 141.34ZM162.152 139H164.427C164.427 138.269 164.454 137.545 164.507 136.828L162.239 136.66L159.97 136.492C159.908 137.32 159.877 138.157 159.877 139H162.152ZM162.498 134.336L164.748 134.673C164.964 133.226 165.287 131.815 165.708 130.447L163.534 129.777L161.36 129.107C160.872 130.691 160.498 132.326 160.248 134L162.498 134.336ZM164.307 127.568L166.425 128.4C166.956 127.046 167.587 125.742 168.308 124.496L166.339 123.357L164.37 122.218C163.535 123.659 162.805 125.169 162.19 126.736L164.307 127.568ZM167.585 121.377L169.464 122.661C170.281 121.463 171.186 120.331 172.17 119.271L170.503 117.723L168.835 116.176C167.699 117.4 166.652 118.71 165.706 120.094L167.585 121.377ZM172.157 116.069L173.705 117.736C174.764 116.753 175.897 115.848 177.094 115.03L175.811 113.151L174.528 111.273C173.143 112.219 171.834 113.265 170.609 114.402L172.157 116.069ZM177.79 111.905L178.93 113.874C180.176 113.153 181.48 112.523 182.833 111.991L182.002 109.874L181.17 107.756C179.602 108.372 178.093 109.102 176.651 109.936L177.79 111.905ZM184.211 109.101L184.88 111.275C186.248 110.853 187.66 110.53 189.106 110.314L188.77 108.064L188.434 105.814C186.759 106.064 185.125 106.438 183.541 106.926L184.211 109.101ZM191.094 107.805L191.261 110.074C191.978 110.021 192.702 109.994 193.434 109.994V107.719V105.444C192.59 105.444 191.754 105.475 190.926 105.536L191.094 107.805ZM193.434 107.719V109.994C194.165 109.994 194.889 110.021 195.606 110.074L195.774 107.805L195.941 105.536C195.113 105.475 194.277 105.444 193.434 105.444V107.719ZM198.097 108.064L197.761 110.314C199.208 110.53 200.619 110.853 201.987 111.275L202.657 109.101L203.327 106.926C201.742 106.438 200.108 106.064 198.434 105.814L198.097 108.064ZM204.866 109.874L204.034 111.991C205.387 112.523 206.692 113.153 207.937 113.874L209.077 111.905L210.216 109.936C208.775 109.102 207.265 108.372 205.697 107.756L204.866 109.874ZM211.056 113.151L209.773 115.03C210.97 115.848 212.103 116.753 213.162 117.736L214.71 116.069L216.258 114.402C215.034 113.265 213.724 112.219 212.339 111.273L211.056 113.151ZM216.365 117.723L214.697 119.271C215.681 120.331 216.586 121.463 217.404 122.661L219.282 121.377L221.161 120.094C220.215 118.71 219.169 117.4 218.032 116.176L216.365 117.723ZM220.529 123.357L218.559 124.496C219.28 125.742 219.911 127.046 220.443 128.4L222.56 127.568L224.678 126.736C224.062 125.169 223.332 123.659 222.498 122.218L220.529 123.357ZM223.333 129.777L221.159 130.447C221.58 131.815 221.903 133.226 222.12 134.673L224.37 134.336L226.62 134C226.369 132.326 225.995 130.691 225.507 129.107L223.333 129.777ZM224.629 136.66L222.36 136.828C222.413 137.545 222.44 138.269 222.44 139H224.715H226.99C226.99 138.157 226.959 137.32 226.897 136.492L224.629 136.66ZM224.715 139H222.44C222.44 139.731 222.413 140.455 222.36 141.172L224.629 141.34L226.897 141.508C226.959 140.68 226.99 139.843 226.99 139H224.715ZM224.37 143.664L222.12 143.327C221.903 144.774 221.58 146.185 221.159 147.553L223.333 148.223L225.507 148.893C225.995 147.308 226.369 145.674 226.62 144L224.37 143.664ZM222.56 150.432L220.443 149.6C219.911 150.954 219.28 152.258 218.559 153.504L220.529 154.643L222.498 155.782C223.332 154.341 224.062 152.831 224.678 151.264L222.56 150.432ZM219.282 156.623L217.404 155.339C216.586 156.537 215.681 157.669 214.697 158.729L216.365 160.277L218.032 161.824C219.169 160.6 220.215 159.29 221.161 157.906L219.282 156.623ZM214.71 161.931L213.162 160.264C212.103 161.247 210.97 162.152 209.773 162.97L211.056 164.849L212.339 166.727C213.724 165.781 215.034 164.735 216.258 163.598L214.71 161.931ZM209.077 166.095L207.937 164.126C206.692 164.847 205.387 165.477 204.034 166.009L204.866 168.126L205.697 170.244C207.265 169.628 208.775 168.898 210.216 168.064L209.077 166.095ZM202.657 168.899L201.987 166.725C200.619 167.147 199.208 167.47 197.761 167.686L198.097 169.936L198.434 172.186C200.108 171.936 201.742 171.562 203.327 171.074L202.657 168.899ZM195.774 170.195L195.606 167.926C194.889 167.979 194.165 168.006 193.434 168.006V170.281V172.556C194.277 172.556 195.113 172.525 195.941 172.464L195.774 170.195Z" fill="#242424" fill-opacity="0.08" mask="url(#path-10-inside-4_4286_7336)"/>
</g>
<g filter="url(#filter2_f_4286_7336)">
<path d="M175.23 136.725C175.23 126.673 183.379 118.525 193.43 118.525V118.525C203.482 118.525 211.63 126.673 211.63 136.725V141.275C211.63 151.326 203.482 159.475 193.43 159.475V159.475C183.379 159.475 175.23 151.326 175.23 141.275V136.725Z" fill="#FCB344" fill-opacity="0.05"/>
</g>
<path d="M168.406 119.663C168.406 116.521 170.953 113.975 174.094 113.975H185.469L191.156 119.663H213.906C217.047 119.663 219.594 122.209 219.594 125.35V148.1C219.594 151.241 217.047 153.788 213.906 153.788H174.094C170.953 153.788 168.406 151.241 168.406 148.1V119.663Z" fill="url(#paint2_linear_4286_7336)" stroke="#F0A030" stroke-width="1.70625"/>
<path opacity="0.4" d="M168.406 125.35H219.594V148.1C219.594 151.241 217.047 153.788 213.906 153.788H174.094C170.953 153.788 168.406 151.241 168.406 148.1V125.35Z" fill="#FCB344"/>
<path opacity="0.4" d="M213.909 125.35C215.793 125.35 217.321 123.822 217.321 121.937C217.321 120.053 215.793 118.525 213.909 118.525C212.024 118.525 210.496 120.053 210.496 121.937C210.496 123.822 212.024 125.35 213.909 125.35Z" fill="white"/>
<path d="M185.469 113.975L191.156 119.663H185.469V113.975Z" fill="black" fill-opacity="0.05"/>
<path d="M245.758 118.525C245.758 115.384 248.304 112.837 251.445 112.837H262.82L268.508 118.525H291.258C294.399 118.525 296.945 121.071 296.945 124.212V146.962C296.945 150.103 294.399 152.65 291.258 152.65H251.445C248.304 152.65 245.758 150.103 245.758 146.962V118.525Z" fill="url(#paint3_linear_4286_7336)" stroke="#242424" stroke-opacity="0.08" stroke-width="1.70625"/>
<path d="M245.758 124.212H296.945V146.962C296.945 150.103 294.399 152.65 291.258 152.65H251.445C248.304 152.65 245.758 150.103 245.758 146.962V124.212Z" fill="#242424" fill-opacity="0.02"/>
<g opacity="0.15">
<path d="M250.309 125.634C250.309 124.849 250.945 124.212 251.73 124.212H289.837C290.622 124.212 291.259 124.849 291.259 125.634V125.634C291.259 126.42 290.622 127.056 289.837 127.056H251.73C250.945 127.056 250.309 126.42 250.309 125.634V125.634Z" fill="#525252"/>
<path d="M250.309 132.459C250.309 131.674 250.945 131.038 251.73 131.038H280.737C281.522 131.038 282.159 131.674 282.159 132.459V132.459C282.159 133.245 281.522 133.881 280.737 133.881H251.73C250.945 133.881 250.309 133.245 250.309 132.459V132.459Z" fill="#525252"/>
<path d="M250.309 139.284C250.309 138.499 250.945 137.863 251.73 137.863H285.287C286.072 137.863 286.709 138.499 286.709 139.284V139.284C286.709 140.07 286.072 140.706 285.287 140.706H251.73C250.945 140.706 250.309 140.07 250.309 139.284V139.284Z" fill="#525252"/>
<path d="M250.309 145.541C250.309 145.069 250.691 144.688 251.162 144.688H276.755C277.227 144.688 277.609 145.069 277.609 145.541V145.541C277.609 146.012 277.227 146.394 276.755 146.394H251.162C250.691 146.394 250.309 146.012 250.309 145.541V145.541Z" fill="#525252"/>
</g>
<path d="M99.0195 118.525C99.0195 115.384 101.566 112.837 104.707 112.837H116.082L121.77 118.525H144.52C147.661 118.525 150.207 121.071 150.207 124.212V146.962C150.207 150.103 147.661 152.65 144.52 152.65H104.707C101.566 152.65 99.0195 150.103 99.0195 146.962V118.525Z" fill="url(#paint4_linear_4286_7336)" stroke="#242424" stroke-opacity="0.08" stroke-width="1.70625"/>
<path d="M99.0195 124.212H150.207V146.962C150.207 150.103 147.661 152.65 144.52 152.65H104.707C101.566 152.65 99.0195 150.103 99.0195 146.962V124.212Z" fill="#242424" fill-opacity="0.02"/>
<g opacity="0.15">
<path d="M103.57 127.909C103.57 127.124 104.207 126.488 104.992 126.488H143.098C143.884 126.488 144.52 127.124 144.52 127.909V127.909C144.52 128.695 143.884 129.331 143.098 129.331H104.992C104.207 129.331 103.57 128.695 103.57 127.909V127.909Z" fill="#525252"/>
<path d="M103.57 134.734C103.57 133.949 104.207 133.312 104.992 133.312H133.998C134.784 133.312 135.42 133.949 135.42 134.734V134.734C135.42 135.52 134.784 136.156 133.998 136.156H104.992C104.207 136.156 103.57 135.52 103.57 134.734V134.734Z" fill="#525252"/>
<path d="M103.57 141.559C103.57 140.774 104.207 140.137 104.992 140.137H138.548C139.334 140.137 139.97 140.774 139.97 141.559V141.559C139.97 142.345 139.334 142.981 138.548 142.981H104.992C104.207 142.981 103.57 142.345 103.57 141.559V141.559Z" fill="#525252"/>
<path d="M103.57 147.816C103.57 147.344 103.952 146.962 104.423 146.962H130.017C130.488 146.962 130.87 147.344 130.87 147.816V147.816C130.87 148.287 130.488 148.669 130.017 148.669H104.423C103.952 148.669 103.57 148.287 103.57 147.816V147.816Z" fill="#525252"/>
</g>
<path d="M120.918 173.694C120.918 171.652 122.573 169.997 124.615 169.997H132.009L135.705 173.694H150.493C152.535 173.694 154.19 175.349 154.19 177.391V192.178C154.19 194.22 152.535 195.875 150.493 195.875H124.615C122.573 195.875 120.918 194.22 120.918 192.178V173.694Z" fill="url(#paint5_linear_4286_7336)" stroke="#242424" stroke-opacity="0.08" stroke-width="1.10906"/>
<path d="M120.918 177.391H154.19V192.178C154.19 194.22 152.535 195.875 150.493 195.875H124.615C122.573 195.875 120.918 194.22 120.918 192.178V177.391Z" fill="#242424" fill-opacity="0.02"/>
<path d="M180.066 174.831C180.066 172.789 181.722 171.134 183.763 171.134H191.157L194.854 174.831H209.641C211.683 174.831 213.338 176.486 213.338 178.528V193.316C213.338 195.357 211.683 197.012 209.641 197.012H183.763C181.722 197.012 180.066 195.357 180.066 193.316V174.831Z" fill="url(#paint6_linear_4286_7336)" stroke="#242424" stroke-opacity="0.08" stroke-width="1.10906"/>
<path d="M180.066 178.528H213.338V193.316C213.338 195.357 211.683 197.012 209.641 197.012H183.763C181.722 197.012 180.066 195.357 180.066 193.316V178.528Z" fill="#242424" fill-opacity="0.02"/>
<path d="M240.469 173.694C240.469 171.652 242.124 169.997 244.166 169.997H251.559L255.256 173.694H270.044C272.085 173.694 273.741 175.349 273.741 177.391V192.178C273.741 194.22 272.085 195.875 270.044 195.875H244.166C242.124 195.875 240.469 194.22 240.469 192.178V173.694Z" fill="url(#paint7_linear_4286_7336)" stroke="#242424" stroke-opacity="0.08" stroke-width="1.10906"/>
<path d="M240.469 177.391H273.741V192.178C273.741 194.22 272.085 195.875 270.044 195.875H244.166C242.124 195.875 240.469 194.22 240.469 192.178V177.391Z" fill="#242424" fill-opacity="0.02"/>
<defs>
<filter id="filter0_d_4286_7336" x="119.496" y="62.7876" width="147.875" height="150.15" filterUnits="userSpaceOnUse" color-interpolation-filters="sRGB">
<feFlood flood-opacity="0" result="BackgroundImageFix"/>
<feColorMatrix in="SourceAlpha" type="matrix" values="0 0 0 0 0 0 0 0 0 0 0 0 0 0 0 0 0 0 127 0" result="hardAlpha"/>
<feOffset/>
<feGaussianBlur stdDeviation="11.375"/>
<feComposite in2="hardAlpha" operator="out"/>
<feColorMatrix type="matrix" values="0 0 0 0 0.988235 0 0 0 0 0.701961 0 0 0 0 0.266667 0 0 0 0.4 0"/>
<feBlend mode="normal" in2="BackgroundImageFix" result="effect1_dropShadow_4286_7336"/>
<feBlend mode="normal" in="SourceGraphic" in2="effect1_dropShadow_4286_7336" result="shape"/>
</filter>
<filter id="filter1_d_4286_7336" x="179.783" y="76.4376" width="27.3016" height="27.3001" filterUnits="userSpaceOnUse" color-interpolation-filters="sRGB">
<feFlood flood-opacity="0" result="BackgroundImageFix"/>
<feColorMatrix in="SourceAlpha" type="matrix" values="0 0 0 0 0 0 0 0 0 0 0 0 0 0 0 0 0 0 127 0" result="hardAlpha"/>
<feOffset/>
<feGaussianBlur stdDeviation="4.55"/>
<feComposite in2="hardAlpha" operator="out"/>
<feColorMatrix type="matrix" values="0 0 0 0 0.988235 0 0 0 0 0.701961 0 0 0 0 0.266667 0 0 0 0.6 0"/>
<feBlend mode="normal" in2="BackgroundImageFix" result="effect1_dropShadow_4286_7336"/>
<feBlend mode="normal" in="SourceGraphic" in2="effect1_dropShadow_4286_7336" result="shape"/>
</filter>
<filter id="filter2_f_4286_7336" x="120.63" y="63.9249" width="145.598" height="150.15" filterUnits="userSpaceOnUse" color-interpolation-filters="sRGB">
<feFlood flood-opacity="0" result="BackgroundImageFix"/>
<feBlend mode="normal" in="SourceGraphic" in2="BackgroundImageFix" result="shape"/>
<feGaussianBlur stdDeviation="27.3" result="effect1_foregroundBlur_4286_7336"/>
</filter>
<linearGradient id="paint0_linear_4286_7336" x1="197.333" y1="0" x2="197.333" y2="277" gradientUnits="userSpaceOnUse">
<stop stop-color="#F0EEE6" stop-opacity="0"/>
<stop offset="1" stop-color="#F0EADE"/>
</linearGradient>
<linearGradient id="paint1_linear_4286_7336" x1="144.52" y1="90.0874" x2="242.345" y2="187.912" gradientUnits="userSpaceOnUse">
<stop stop-color="#FCB344" stop-opacity="0.1"/>
<stop offset="1" stop-opacity="0"/>
</linearGradient>
<linearGradient id="paint2_linear_4286_7336" x1="168.406" y1="113.975" x2="168.406" y2="153.788" gradientUnits="userSpaceOnUse">
<stop stop-color="#FCB344"/>
<stop offset="1" stop-color="#F0A030"/>
</linearGradient>
<linearGradient id="paint3_linear_4286_7336" x1="245.758" y1="112.837" x2="245.758" y2="152.65" gradientUnits="userSpaceOnUse">
<stop stop-color="#FAFAF8"/>
<stop offset="1" stop-color="#F5F4EE"/>
</linearGradient>
<linearGradient id="paint4_linear_4286_7336" x1="99.0195" y1="112.837" x2="99.0195" y2="152.65" gradientUnits="userSpaceOnUse">
<stop stop-color="#FAFAF8"/>
<stop offset="1" stop-color="#F5F4EE"/>
</linearGradient>
<linearGradient id="paint5_linear_4286_7336" x1="120.918" y1="169.997" x2="120.918" y2="195.875" gradientUnits="userSpaceOnUse">
<stop stop-color="#FAFAF8"/>
<stop offset="1" stop-color="#F5F4EE"/>
</linearGradient>
<linearGradient id="paint6_linear_4286_7336" x1="180.066" y1="171.134" x2="180.066" y2="197.012" gradientUnits="userSpaceOnUse">
<stop stop-color="#FAFAF8"/>
<stop offset="1" stop-color="#F5F4EE"/>
</linearGradient>
<linearGradient id="paint7_linear_4286_7336" x1="240.469" y1="169.997" x2="240.469" y2="195.875" gradientUnits="userSpaceOnUse">
<stop stop-color="#FAFAF8"/>
<stop offset="1" stop-color="#F5F4EE"/>
</linearGradient>
</defs>
</svg>
