<svg width="395" height="277" viewBox="0 0 395 277" fill="none" xmlns="http://www.w3.org/2000/svg">
<path d="M0 0H394.667V267C394.667 272.523 390.19 277 384.667 277H9.99999C4.47714 277 0 272.523 0 267V0Z" fill="url(#paint0_linear_4286_7387)"/>
<g opacity="0.3">
<path d="M211.727 110.205C211.727 109.477 212.317 108.887 213.044 108.887H286.846C287.574 108.887 288.164 109.477 288.164 110.205C288.164 110.932 287.574 111.522 286.846 111.522H213.044C212.317 111.522 211.727 110.932 211.727 110.205Z" fill="url(#paint1_linear_4286_7387)"/>
</g>
<g opacity="0.21">
<path d="M105.105 126.023C105.733 125.655 106.541 125.865 106.909 126.493L139.585 182.192C139.954 182.82 139.743 183.628 139.115 183.996C138.488 184.364 137.68 184.154 137.312 183.526L104.636 127.827C104.267 127.199 104.478 126.392 105.105 126.023Z" fill="url(#paint2_linear_4286_7387)"/>
</g>
<g opacity="0.21">
<path d="M289.656 115.203C289.028 114.835 288.221 115.046 287.853 115.673L255.176 171.373C254.808 172 255.019 172.808 255.646 173.176C256.274 173.544 257.082 173.334 257.45 172.706L290.126 117.007C290.494 116.379 290.284 115.572 289.656 115.203Z" fill="url(#paint3_linear_4286_7387)"/>
</g>
<g opacity="0.21">
<path d="M155.668 184.385C155.668 183.657 156.258 183.067 156.986 183.067H221.562C222.29 183.067 222.88 183.657 222.88 184.385C222.88 185.113 222.29 185.703 221.562 185.703H156.986C156.258 185.703 155.668 185.113 155.668 184.385Z" fill="url(#paint4_linear_4286_7387)"/>
</g>
<g opacity="0.3">
<path d="M103.66 110.205C103.66 109.477 104.25 108.887 104.978 108.887H181.416C182.143 108.887 182.734 109.477 182.734 110.205C182.734 110.932 182.143 111.522 181.416 111.522H104.978C104.25 111.522 103.66 110.932 103.66 110.205Z" fill="url(#paint5_linear_4286_7387)"/>
</g>
<mask id="path-7-inside-1_4286_7387" fill="white">
<path d="M74.668 108.887C74.668 92.8739 87.6488 79.8931 103.662 79.8931C119.674 79.8931 132.655 92.8739 132.655 108.887C132.655 124.899 119.674 137.88 103.662 137.88C87.6488 137.88 74.668 124.899 74.668 108.887Z"/>
</mask>
<path d="M74.668 108.887C74.668 92.8739 87.6488 79.8931 103.662 79.8931C119.674 79.8931 132.655 92.8739 132.655 108.887C132.655 124.899 119.674 137.88 103.662 137.88C87.6488 137.88 74.668 124.899 74.668 108.887Z" fill="url(#paint6_linear_4286_7387)"/>
<path d="M74.668 108.887M132.655 108.887M132.655 108.887M74.668 108.887M103.662 79.8931M132.655 108.887M103.662 137.88M74.668 108.887M103.662 137.88V135.244C89.1045 135.244 77.3037 123.444 77.3037 108.887H74.668H72.0322C72.0322 126.355 86.1931 140.516 103.662 140.516V137.88ZM132.655 108.887H130.019C130.019 123.444 118.219 135.244 103.662 135.244V137.88V140.516C121.13 140.516 135.291 126.355 135.291 108.887H132.655ZM103.662 79.8931V82.5288C118.219 82.5288 130.019 94.3296 130.019 108.887H132.655H135.291C135.291 91.4182 121.13 77.2573 103.662 77.2573V79.8931ZM103.662 79.8931V77.2573C86.1931 77.2573 72.0322 91.4182 72.0322 108.887H74.668H77.3037C77.3037 94.3296 89.1045 82.5288 103.662 82.5288V79.8931Z" fill="#242424" fill-opacity="0.08" mask="url(#path-7-inside-1_4286_7387)"/>
<path opacity="0.2" d="M102.953 107.946C107.684 107.946 111.519 104.111 111.519 99.38C111.519 94.649 107.684 90.8137 102.953 90.8137C98.222 90.8137 94.3867 94.649 94.3867 99.38C94.3867 104.111 98.222 107.946 102.953 107.946Z" fill="#525252"/>
<path opacity="0.2" d="M88.4531 123.102C88.4531 114.536 94.3836 109.923 102.95 109.923C111.516 109.923 117.447 114.536 117.447 123.102" stroke="#525252" stroke-width="3.29472" stroke-linecap="round"/>
<mask id="path-11-inside-2_4286_7387" fill="white">
<path d="M261.809 108.886C261.809 92.8734 274.789 79.8926 290.802 79.8926C306.815 79.8926 319.796 92.8734 319.796 108.886C319.796 124.899 306.815 137.88 290.802 137.88C274.789 137.88 261.809 124.899 261.809 108.886Z"/>
</mask>
<path d="M261.809 108.886C261.809 92.8734 274.789 79.8926 290.802 79.8926C306.815 79.8926 319.796 92.8734 319.796 108.886C319.796 124.899 306.815 137.88 290.802 137.88C274.789 137.88 261.809 124.899 261.809 108.886Z" fill="url(#paint7_linear_4286_7387)"/>
<path d="M261.809 108.886M319.796 108.886M319.796 108.886M261.809 108.886M290.802 79.8926M319.796 108.886M290.802 137.88M261.809 108.886M290.802 137.88V135.244C276.245 135.244 264.444 123.443 264.444 108.886H261.809H259.173C259.173 126.355 273.334 140.515 290.802 140.515V137.88ZM319.796 108.886H317.16C317.16 123.443 305.359 135.244 290.802 135.244V137.88V140.515C308.271 140.515 322.432 126.355 322.432 108.886H319.796ZM290.802 79.8926V82.5284C305.359 82.5284 317.16 94.3291 317.16 108.886H319.796H322.432C322.432 91.4177 308.271 77.2568 290.802 77.2568V79.8926ZM290.802 79.8926V77.2568C273.334 77.2568 259.173 91.4177 259.173 108.886H261.809H264.444C264.444 94.3291 276.245 82.5284 290.802 82.5284V79.8926Z" fill="#242424" fill-opacity="0.08" mask="url(#path-11-inside-2_4286_7387)"/>
<path opacity="0.2" d="M291.406 109.923C296.137 109.923 299.972 106.088 299.972 101.357C299.972 96.6258 296.137 92.7905 291.406 92.7905C286.675 92.7905 282.84 96.6258 282.84 101.357C282.84 106.088 286.675 109.923 291.406 109.923Z" fill="#525252"/>
<path opacity="0.2" d="M276.91 125.079C276.91 116.513 282.841 111.9 291.407 111.9C299.973 111.9 305.904 116.513 305.904 125.079" stroke="#525252" stroke-width="3.29472" stroke-linecap="round"/>
<g filter="url(#filter0_d_4286_7387)">
<path d="M305.906 84.8836C305.906 82.3361 307.971 80.271 310.519 80.271C313.066 80.271 315.131 82.3361 315.131 84.8836C315.131 87.4311 313.066 89.4962 310.519 89.4962C307.971 89.4962 305.906 87.4311 305.906 84.8836Z" fill="#FCB344"/>
<path d="M310.519 80.9302C312.702 80.9302 314.472 82.6999 314.473 84.8833C314.473 87.0669 312.702 88.8374 310.519 88.8374C308.335 88.8372 306.565 87.0667 306.565 84.8833C306.566 82.7 308.335 80.9303 310.519 80.9302Z" stroke="white" stroke-width="1.31789"/>
</g>
<mask id="path-17-inside-3_4286_7387" fill="white">
<path d="M103.66 184.007C103.66 167.994 116.641 155.013 132.654 155.013C148.666 155.013 161.647 167.994 161.647 184.007C161.647 200.019 148.666 213 132.654 213C116.641 213 103.66 200.019 103.66 184.007Z"/>
</mask>
<path d="M103.66 184.007C103.66 167.994 116.641 155.013 132.654 155.013C148.666 155.013 161.647 167.994 161.647 184.007C161.647 200.019 148.666 213 132.654 213C116.641 213 103.66 200.019 103.66 184.007Z" fill="url(#paint8_linear_4286_7387)"/>
<path d="M103.66 184.007M161.647 184.007M161.647 184.007M103.66 184.007M132.654 155.013M161.647 184.007M132.654 213M103.66 184.007M132.654 213V210.364C118.097 210.364 106.296 198.564 106.296 184.007H103.66H101.024C101.024 201.475 115.185 215.636 132.654 215.636V213ZM161.647 184.007H159.012C159.012 198.564 147.211 210.364 132.654 210.364V213V215.636C150.122 215.636 164.283 201.475 164.283 184.007H161.647ZM132.654 155.013V157.649C147.211 157.649 159.012 169.449 159.012 184.007H161.647H164.283C164.283 166.538 150.122 152.377 132.654 152.377V155.013ZM132.654 155.013V152.377C115.185 152.377 101.024 166.538 101.024 184.007H103.66H106.296C106.296 169.449 118.097 157.649 132.654 157.649V155.013Z" fill="#242424" fill-opacity="0.08" mask="url(#path-17-inside-3_4286_7387)"/>
<path opacity="0.2" d="M133.258 185.044C137.989 185.044 141.824 181.208 141.824 176.477C141.824 171.746 137.989 167.911 133.258 167.911C128.527 167.911 124.691 171.746 124.691 176.477C124.691 181.208 128.527 185.044 133.258 185.044Z" fill="#525252"/>
<path opacity="0.2" d="M118.762 200.199C118.762 191.633 124.692 187.021 133.259 187.021C141.825 187.021 147.755 191.633 147.755 200.199" stroke="#525252" stroke-width="3.29472" stroke-linecap="round"/>
<mask id="path-21-inside-4_4286_7387" fill="white">
<path d="M209.094 184.007C209.094 167.994 222.075 155.013 238.087 155.013C254.1 155.013 267.081 167.994 267.081 184.007C267.081 200.019 254.1 213 238.087 213C222.075 213 209.094 200.019 209.094 184.007Z"/>
</mask>
<path d="M209.094 184.007C209.094 167.994 222.075 155.013 238.087 155.013C254.1 155.013 267.081 167.994 267.081 184.007C267.081 200.019 254.1 213 238.087 213C222.075 213 209.094 200.019 209.094 184.007Z" fill="url(#paint9_linear_4286_7387)"/>
<path d="M209.094 184.007M267.081 184.007M267.081 184.007M209.094 184.007M238.087 155.013M267.081 184.007M238.087 213M209.094 184.007M238.087 213V210.364C223.53 210.364 211.73 198.564 211.73 184.007H209.094H206.458C206.458 201.475 220.619 215.636 238.087 215.636V213ZM267.081 184.007H264.445C264.445 198.564 252.644 210.364 238.087 210.364V213V215.636C255.556 215.636 269.717 201.475 269.717 184.007H267.081ZM238.087 155.013V157.649C252.644 157.649 264.445 169.449 264.445 184.007H267.081H269.717C269.717 166.538 255.556 152.377 238.087 152.377V155.013ZM238.087 155.013V152.377C220.619 152.377 206.458 166.538 206.458 184.007H209.094H211.73C211.73 169.449 223.53 157.649 238.087 157.649V155.013Z" fill="#242424" fill-opacity="0.08" mask="url(#path-21-inside-4_4286_7387)"/>
<path opacity="0.2" d="M238.699 185.044C243.43 185.044 247.265 181.208 247.265 176.477C247.265 171.746 243.43 167.911 238.699 167.911C233.968 167.911 230.133 171.746 230.133 176.477C230.133 181.208 233.968 185.044 238.699 185.044Z" fill="#525252"/>
<path opacity="0.2" d="M224.199 200.199C224.199 191.633 230.13 187.021 238.696 187.021C247.262 187.021 253.193 191.633 253.193 200.199" stroke="#525252" stroke-width="3.29472" stroke-linecap="round"/>
<g filter="url(#filter1_d_4286_7387)">
<mask id="path-25-inside-5_4286_7387" fill="white">
<path d="M168.844 103.994C168.844 87.9809 181.825 75 197.837 75C213.85 75 226.831 87.9809 226.831 103.994C226.831 120.006 213.85 132.987 197.837 132.987C181.825 132.987 168.844 120.006 168.844 103.994Z"/>
</mask>
<path d="M168.844 103.994C168.844 87.9809 181.825 75 197.837 75C213.85 75 226.831 87.9809 226.831 103.994C226.831 120.006 213.85 132.987 197.837 132.987C181.825 132.987 168.844 120.006 168.844 103.994Z" fill="url(#paint10_linear_4286_7387)" shape-rendering="crispEdges"/>
<path d="M168.844 103.994M226.831 103.994M226.831 103.994M168.844 103.994M197.837 75M226.831 103.994M197.837 132.987M168.844 103.994M197.837 132.987V130.351C183.28 130.351 171.48 118.551 171.48 103.994H168.844H166.208C166.208 121.462 180.369 135.623 197.837 135.623V132.987ZM226.831 103.994H224.195C224.195 118.551 212.394 130.351 197.837 130.351V132.987V135.623C215.306 135.623 229.467 121.462 229.467 103.994H226.831ZM197.837 75V77.6358C212.394 77.6358 224.195 89.4366 224.195 103.994H226.831H229.467C229.467 86.5252 215.306 72.3642 197.837 72.3642V75ZM197.837 75V72.3642C180.369 72.3642 166.208 86.5252 166.208 103.994H168.844H171.48C171.48 89.4366 183.28 77.6358 197.837 77.6358V75Z" fill="#FCB344" mask="url(#path-25-inside-5_4286_7387)"/>
<mask id="path-27-inside-6_4286_7387" fill="white">
<path d="M172.797 103.994C172.797 90.1644 184.008 78.9536 197.837 78.9536C211.666 78.9536 222.877 90.1644 222.877 103.994C222.877 117.823 211.666 129.033 197.837 129.033C184.008 129.033 172.797 117.823 172.797 103.994Z"/>
</mask>
<path d="M172.797 103.994M222.877 103.994M222.877 103.994M172.797 103.994M197.837 78.9536M222.877 103.994M197.837 129.033M172.797 103.994M197.837 129.033V127.716C184.735 127.716 174.115 117.095 174.115 103.994H172.797H171.479C171.479 118.551 183.28 130.351 197.837 130.351V129.033ZM222.877 103.994H221.559C221.559 117.095 210.938 127.716 197.837 127.716V129.033V130.351C212.394 130.351 224.195 118.551 224.195 103.994H222.877ZM197.837 78.9536V80.2715C210.938 80.2715 221.559 90.8922 221.559 103.994H222.877H224.195C224.195 89.4365 212.394 77.6357 197.837 77.6357V78.9536ZM197.837 78.9536V77.6357C183.28 77.6357 171.479 89.4365 171.479 103.994H172.797H174.115C174.115 90.8922 184.735 80.2715 197.837 80.2715V78.9536Z" fill="white" fill-opacity="0.2" mask="url(#path-27-inside-6_4286_7387)"/>
<g filter="url(#filter2_d_4286_7387)">
<path d="M211.016 83.5657C211.016 81.0183 213.081 78.9531 215.628 78.9531C218.176 78.9531 220.241 81.0183 220.241 83.5657C220.241 86.1132 218.176 88.1784 215.628 88.1784C213.081 88.1784 211.016 86.1132 211.016 83.5657Z" fill="url(#paint11_linear_4286_7387)"/>
<path d="M215.628 79.6123C217.811 79.6123 219.582 81.382 219.582 83.5654C219.582 85.749 217.811 87.5195 215.628 87.5195C213.445 87.5194 211.675 85.7489 211.675 83.5654C211.675 81.3821 213.445 79.6125 215.628 79.6123Z" stroke="white" stroke-width="1.31789"/>
</g>
<mask id="mask0_4286_7387" style="mask-type:alpha" maskUnits="userSpaceOnUse" x="175" y="81" width="47" height="47">
<rect x="175.434" y="81.5889" width="46.1261" height="46.1261" fill="#D9D9D9"/>
</mask>
<g mask="url(#mask0_4286_7387)">
<path d="M185.414 122.392C184.914 122.392 184.481 122.204 184.114 121.829C183.746 121.453 183.562 121.017 183.562 120.522V115.863C183.562 113.2 184.39 110.849 186.046 108.808C187.702 106.767 189.831 105.465 192.433 104.903C191.245 105.736 190.325 106.784 189.672 108.048C189.019 109.312 188.692 110.667 188.692 112.112V120.518C188.692 120.843 188.74 121.167 188.836 121.491C188.932 121.816 189.08 122.116 189.28 122.392H185.414ZM191.933 122.392C191.43 122.392 190.994 122.207 190.625 121.835C190.256 121.464 190.071 121.027 190.071 120.522V112.114C190.071 110.032 190.799 108.267 192.255 106.821C193.712 105.375 195.481 104.651 197.563 104.651H205.956C208.028 104.651 209.788 105.375 211.234 106.821C212.681 108.267 213.404 110.032 213.404 112.114V114.93C213.404 117.012 212.681 118.776 211.234 120.222C209.788 121.669 208.023 122.392 205.941 122.392H191.933ZM198.498 100.911C196.548 100.911 194.894 100.233 193.536 98.8765C192.177 97.52 191.498 95.8647 191.498 93.9108C191.498 91.9568 192.177 90.3017 193.536 88.9455C194.894 87.5889 196.548 86.9106 198.498 86.9106C200.447 86.9106 202.101 87.5889 203.46 88.9455C204.818 90.3017 205.498 91.9568 205.498 93.9108C205.498 95.8647 204.818 97.52 203.46 98.8765C202.101 100.233 200.447 100.911 198.498 100.911Z" fill="#525252"/>
</g>
</g>
<defs>
<filter id="filter0_d_4286_7387" x="297.999" y="74.9994" width="25.0412" height="25.04" filterUnits="userSpaceOnUse" color-interpolation-filters="sRGB">
<feFlood flood-opacity="0" result="BackgroundImageFix"/>
<feColorMatrix in="SourceAlpha" type="matrix" values="0 0 0 0 0 0 0 0 0 0 0 0 0 0 0 0 0 0 127 0" result="hardAlpha"/>
<feOffset dy="2.63578"/>
<feGaussianBlur stdDeviation="3.95367"/>
<feComposite in2="hardAlpha" operator="out"/>
<feColorMatrix type="matrix" values="0 0 0 0 0.298039 0 0 0 0 0.686275 0 0 0 0 0.313726 0 0 0 0.4 0"/>
<feBlend mode="normal" in2="BackgroundImageFix" result="effect1_dropShadow_4286_7387"/>
<feBlend mode="normal" in="SourceGraphic" in2="effect1_dropShadow_4286_7387" result="shape"/>
</filter>
<filter id="filter1_d_4286_7387" x="153.029" y="64.4569" width="89.6176" height="89.6164" filterUnits="userSpaceOnUse" color-interpolation-filters="sRGB">
<feFlood flood-opacity="0" result="BackgroundImageFix"/>
<feColorMatrix in="SourceAlpha" type="matrix" values="0 0 0 0 0 0 0 0 0 0 0 0 0 0 0 0 0 0 127 0" result="hardAlpha"/>
<feOffset dy="5.27156"/>
<feGaussianBlur stdDeviation="7.90734"/>
<feComposite in2="hardAlpha" operator="out"/>
<feColorMatrix type="matrix" values="0 0 0 0 0.988235 0 0 0 0 0.701961 0 0 0 0 0.266667 0 0 0 0.35 0"/>
<feBlend mode="normal" in2="BackgroundImageFix" result="effect1_dropShadow_4286_7387"/>
<feBlend mode="normal" in="SourceGraphic" in2="effect1_dropShadow_4286_7387" result="shape"/>
</filter>
<filter id="filter2_d_4286_7387" x="203.108" y="73.6816" width="25.0412" height="25.04" filterUnits="userSpaceOnUse" color-interpolation-filters="sRGB">
<feFlood flood-opacity="0" result="BackgroundImageFix"/>
<feColorMatrix in="SourceAlpha" type="matrix" values="0 0 0 0 0 0 0 0 0 0 0 0 0 0 0 0 0 0 127 0" result="hardAlpha"/>
<feOffset dy="2.63578"/>
<feGaussianBlur stdDeviation="3.95367"/>
<feComposite in2="hardAlpha" operator="out"/>
<feColorMatrix type="matrix" values="0 0 0 0 0.298039 0 0 0 0 0.686275 0 0 0 0 0.313726 0 0 0 0.4 0"/>
<feBlend mode="normal" in2="BackgroundImageFix" result="effect1_dropShadow_4286_7387"/>
<feBlend mode="normal" in="SourceGraphic" in2="effect1_dropShadow_4286_7387" result="shape"/>
</filter>
<linearGradient id="paint0_linear_4286_7387" x1="197.333" y1="0" x2="197.333" y2="277" gradientUnits="userSpaceOnUse">
<stop stop-color="#F0EEE6" stop-opacity="0"/>
<stop offset="1" stop-color="#F0EADE"/>
</linearGradient>
<linearGradient id="paint1_linear_4286_7387" x1="211.727" y1="110.205" x2="288.164" y2="110.205" gradientUnits="userSpaceOnUse">
<stop stop-color="#FCB344"/>
<stop offset="0.166667" stop-color="#FAB041"/>
<stop offset="0.333333" stop-color="#F8AD3E"/>
<stop offset="0.5" stop-color="#F6A93A"/>
<stop offset="0.666667" stop-color="#F4A637"/>
<stop offset="0.833333" stop-color="#F2A334"/>
<stop offset="1" stop-color="#F0A030"/>
</linearGradient>
<linearGradient id="paint2_linear_4286_7387" x1="105.105" y1="126.023" x2="139.115" y2="183.996" gradientUnits="userSpaceOnUse">
<stop stop-color="#FCB344"/>
<stop offset="0.166667" stop-color="#FAB041"/>
<stop offset="0.333333" stop-color="#F8AD3E"/>
<stop offset="0.5" stop-color="#F6A93A"/>
<stop offset="0.666667" stop-color="#F4A637"/>
<stop offset="0.833333" stop-color="#F2A334"/>
<stop offset="1" stop-color="#F0A030"/>
</linearGradient>
<linearGradient id="paint3_linear_4286_7387" x1="289.656" y1="115.203" x2="255.646" y2="173.176" gradientUnits="userSpaceOnUse">
<stop stop-color="#FCB344"/>
<stop offset="0.166667" stop-color="#FAB041"/>
<stop offset="0.333333" stop-color="#F8AD3E"/>
<stop offset="0.5" stop-color="#F6A93A"/>
<stop offset="0.666667" stop-color="#F4A637"/>
<stop offset="0.833333" stop-color="#F2A334"/>
<stop offset="1" stop-color="#F0A030"/>
</linearGradient>
<linearGradient id="paint4_linear_4286_7387" x1="155.668" y1="184.385" x2="222.88" y2="184.385" gradientUnits="userSpaceOnUse">
<stop stop-color="#FCB344"/>
<stop offset="0.166667" stop-color="#FAB041"/>
<stop offset="0.333333" stop-color="#F8AD3E"/>
<stop offset="0.5" stop-color="#F6A93A"/>
<stop offset="0.666667" stop-color="#F4A637"/>
<stop offset="0.833333" stop-color="#F2A334"/>
<stop offset="1" stop-color="#F0A030"/>
</linearGradient>
<linearGradient id="paint5_linear_4286_7387" x1="103.66" y1="110.205" x2="182.734" y2="110.205" gradientUnits="userSpaceOnUse">
<stop stop-color="#FCB344"/>
<stop offset="0.166667" stop-color="#FAB041"/>
<stop offset="0.333333" stop-color="#F8AD3E"/>
<stop offset="0.5" stop-color="#F6A93A"/>
<stop offset="0.666667" stop-color="#F4A637"/>
<stop offset="0.833333" stop-color="#F2A334"/>
<stop offset="1" stop-color="#F0A030"/>
</linearGradient>
<linearGradient id="paint6_linear_4286_7387" x1="74.668" y1="79.8931" x2="132.655" y2="137.88" gradientUnits="userSpaceOnUse">
<stop stop-color="#FAFAF8"/>
<stop offset="0.25" stop-color="#F9F8F5"/>
<stop offset="0.5" stop-color="#F7F7F3"/>
<stop offset="0.75" stop-color="#F6F5F0"/>
<stop offset="1" stop-color="#F5F4EE"/>
</linearGradient>
<linearGradient id="paint7_linear_4286_7387" x1="261.809" y1="79.8926" x2="319.796" y2="137.88" gradientUnits="userSpaceOnUse">
<stop stop-color="#FAFAF8"/>
<stop offset="0.25" stop-color="#F9F8F5"/>
<stop offset="0.5" stop-color="#F7F7F3"/>
<stop offset="0.75" stop-color="#F6F5F0"/>
<stop offset="1" stop-color="#F5F4EE"/>
</linearGradient>
<linearGradient id="paint8_linear_4286_7387" x1="103.66" y1="155.013" x2="161.647" y2="213" gradientUnits="userSpaceOnUse">
<stop stop-color="#FAFAF8"/>
<stop offset="0.25" stop-color="#F9F8F5"/>
<stop offset="0.5" stop-color="#F7F7F3"/>
<stop offset="0.75" stop-color="#F6F5F0"/>
<stop offset="1" stop-color="#F5F4EE"/>
</linearGradient>
<linearGradient id="paint9_linear_4286_7387" x1="209.094" y1="155.013" x2="267.081" y2="213" gradientUnits="userSpaceOnUse">
<stop stop-color="#FAFAF8"/>
<stop offset="0.25" stop-color="#F9F8F5"/>
<stop offset="0.5" stop-color="#F7F7F3"/>
<stop offset="0.75" stop-color="#F6F5F0"/>
<stop offset="1" stop-color="#F5F4EE"/>
</linearGradient>
<linearGradient id="paint10_linear_4286_7387" x1="168.844" y1="75" x2="226.831" y2="132.987" gradientUnits="userSpaceOnUse">
<stop stop-color="#FCB344"/>
<stop offset="0.166667" stop-color="#FAB041"/>
<stop offset="0.333333" stop-color="#F8AD3E"/>
<stop offset="0.5" stop-color="#F6A93A"/>
<stop offset="0.666667" stop-color="#F4A637"/>
<stop offset="0.833333" stop-color="#F2A334"/>
<stop offset="1" stop-color="#F0A030"/>
</linearGradient>
<linearGradient id="paint11_linear_4286_7387" x1="211.016" y1="78.9531" x2="220.241" y2="88.1784" gradientUnits="userSpaceOnUse">
<stop stop-color="#4CAF50"/>
<stop offset="0.2" stop-color="#4BAC4F"/>
<stop offset="0.4" stop-color="#49A94D"/>
<stop offset="0.6" stop-color="#48A64C"/>
<stop offset="0.8" stop-color="#46A34A"/>
<stop offset="1" stop-color="#45A049"/>
</linearGradient>
</defs>
</svg>
