<svg width="395" height="277" viewBox="0 0 395 277" fill="none" xmlns="http://www.w3.org/2000/svg">
<path d="M0 0H394.667V267C394.667 272.523 390.19 277 384.667 277H9.99999C4.47714 277 0 272.523 0 267V0Z" fill="url(#paint0_linear_4286_7264)"/>
<g filter="url(#filter0_d_4286_7264)">
<mask id="path-2-inside-1_4286_7264" fill="white">
<path d="M94.5042 90.17C94.0424 85.776 97.2301 81.8395 101.624 81.3776L137.427 77.6146C141.821 77.1528 145.758 80.3405 146.219 84.7346L151.446 134.461C151.908 138.855 148.72 142.791 144.326 143.253L108.523 147.016C104.129 147.478 100.192 144.29 99.7306 139.896L94.5042 90.17Z"/>
</mask>
<path d="M94.5042 90.17C94.0424 85.776 97.2301 81.8395 101.624 81.3776L137.427 77.6146C141.821 77.1528 145.758 80.3405 146.219 84.7346L151.446 134.461C151.908 138.855 148.72 142.791 144.326 143.253L108.523 147.016C104.129 147.478 100.192 144.29 99.7306 139.896L94.5042 90.17Z" fill="url(#paint1_linear_4286_7264)" shape-rendering="crispEdges"/>
<path d="M101.624 81.3776L101.729 82.3722L137.531 78.6092L137.427 77.6146L137.322 76.6201L101.52 80.3831L101.624 81.3776ZM146.219 84.7346L145.225 84.8391L150.451 134.565L151.446 134.461L152.44 134.356L147.214 84.6301L146.219 84.7346ZM144.326 143.253L144.221 142.259L108.418 146.022L108.523 147.016L108.628 148.011L144.43 144.248L144.326 143.253ZM99.7306 139.896L100.725 139.792L95.4987 90.0655L94.5042 90.17L93.5097 90.2746L98.7361 140.001L99.7306 139.896ZM108.523 147.016L108.418 146.022C104.574 146.426 101.129 143.636 100.725 139.792L99.7306 139.896L98.7361 140.001C99.2556 144.944 103.684 148.53 108.628 148.011L108.523 147.016ZM151.446 134.461L150.451 134.565C150.855 138.41 148.066 141.854 144.221 142.259L144.326 143.253L144.43 144.248C149.374 143.728 152.96 139.299 152.44 134.356L151.446 134.461ZM137.427 77.6146L137.531 78.6092C141.376 78.2051 144.821 80.9943 145.225 84.8391L146.219 84.7346L147.214 84.6301C146.694 79.6867 142.266 76.1006 137.322 76.6201L137.427 77.6146ZM101.624 81.3776L101.52 80.3831C96.5763 80.9027 92.9901 85.3312 93.5097 90.2746L94.5042 90.17L95.4987 90.0655C95.0946 86.2207 97.8839 82.7763 101.729 82.3722L101.624 81.3776Z" fill="#242424" fill-opacity="0.08" mask="url(#path-2-inside-1_4286_7264)"/>
<g opacity="0.5">
<path d="M95.6018 91.0599C95.14 86.6659 98.3277 82.7294 102.722 82.2675L136.536 78.7136C140.93 78.2517 144.866 81.4395 145.328 85.8335L150.345 133.571C150.807 137.965 147.619 141.901 143.225 142.363L109.412 145.917C105.018 146.379 101.081 143.191 100.619 138.797L95.6018 91.0599Z" fill="url(#paint2_linear_4286_7264)"/>
</g>
<g opacity="0.2">
<path d="M103.649 93.482C103.562 92.6581 104.16 91.92 104.984 91.8334L127.858 89.4293C128.682 89.3427 129.42 89.9404 129.507 90.7643C129.593 91.5882 128.995 92.3263 128.172 92.4129L105.298 94.817C104.474 94.9036 103.736 94.3059 103.649 93.482Z" fill="#242424"/>
<path d="M104.481 100.936C104.394 100.112 104.992 99.3741 105.816 99.2875L133.663 96.3608C134.487 96.2742 135.225 96.8719 135.311 97.6958C135.398 98.5196 134.8 99.2577 133.976 99.3443L106.13 102.271C105.306 102.358 104.568 101.76 104.481 100.936Z" fill="#242424"/>
<path d="M105.512 108.369C105.426 107.545 106.023 106.807 106.847 106.72L125.743 104.734C126.567 104.648 127.305 105.245 127.392 106.069C127.478 106.893 126.881 107.631 126.057 107.718L107.161 109.704C106.337 109.79 105.599 109.193 105.512 108.369Z" fill="#242424"/>
<path d="M106.456 118.325C106.398 117.775 106.797 117.283 107.346 117.226L134.198 114.403C134.747 114.346 135.239 114.744 135.297 115.293C135.355 115.843 134.956 116.335 134.407 116.392L107.555 119.215C107.006 119.272 106.514 118.874 106.456 118.325Z" fill="#242424"/>
<path d="M107.089 124.794C107.031 124.245 107.43 123.753 107.979 123.695L129.858 121.395C130.408 121.337 130.9 121.736 130.957 122.285C131.015 122.834 130.617 123.326 130.067 123.384L108.188 125.684C107.639 125.742 107.147 125.343 107.089 124.794Z" fill="#242424"/>
</g>
</g>
<g filter="url(#filter1_d_4286_7264)">
<mask id="path-10-inside-2_4286_7264" fill="white">
<path d="M148.316 80.989C148.547 76.5768 152.311 73.1875 156.723 73.4187L192.674 75.3028C197.086 75.534 200.476 79.2983 200.244 83.7105L197.628 133.642C197.396 138.054 193.632 141.444 189.22 141.212L153.269 139.328C148.857 139.097 145.468 135.333 145.699 130.921L148.316 80.989Z"/>
</mask>
<path d="M148.316 80.989C148.547 76.5768 152.311 73.1875 156.723 73.4187L192.674 75.3028C197.086 75.534 200.476 79.2983 200.244 83.7105L197.628 133.642C197.396 138.054 193.632 141.444 189.22 141.212L153.269 139.328C148.857 139.097 145.468 135.333 145.699 130.921L148.316 80.989Z" fill="url(#paint3_linear_4286_7264)" shape-rendering="crispEdges"/>
<path d="M156.723 73.4187L156.671 74.4173L192.622 76.3014L192.674 75.3028L192.726 74.3042L156.776 72.4201L156.723 73.4187ZM200.244 83.7105L199.246 83.6582L196.629 133.59L197.628 133.642L198.626 133.694L201.243 83.7628L200.244 83.7105ZM189.22 141.212L189.272 140.214L153.322 138.33L153.269 139.328L153.217 140.327L189.168 142.211L189.22 141.212ZM145.699 130.921L146.698 130.973L149.314 81.0414L148.316 80.989L147.317 80.9367L144.7 130.868L145.699 130.921ZM153.269 139.328L153.322 138.33C149.461 138.127 146.495 134.834 146.698 130.973L145.699 130.921L144.7 130.868C144.44 135.832 148.253 140.067 153.217 140.327L153.269 139.328ZM197.628 133.642L196.629 133.59C196.427 137.45 193.133 140.416 189.272 140.214L189.22 141.212L189.168 142.211C194.131 142.471 198.366 138.658 198.626 133.694L197.628 133.642ZM192.674 75.3028L192.622 76.3014C196.482 76.5037 199.448 79.7975 199.246 83.6582L200.244 83.7105L201.243 83.7628C201.503 78.7991 197.69 74.5643 192.726 74.3042L192.674 75.3028ZM156.723 73.4187L156.776 72.4201C151.812 72.1599 147.577 75.9729 147.317 80.9367L148.316 80.989L149.314 81.0414C149.517 77.1807 152.81 74.215 156.671 74.4173L156.723 73.4187Z" fill="#F0A030" fill-opacity="0.3" mask="url(#path-10-inside-2_4286_7264)"/>
<g opacity="0.5">
<path d="M149.261 82.0401C149.492 77.6278 153.257 74.2385 157.669 74.4697L191.622 76.2491C196.034 76.4804 199.424 80.2446 199.192 84.6569L196.68 132.591C196.449 137.003 192.685 140.393 188.273 140.161L154.319 138.382C149.907 138.151 146.518 134.387 146.749 129.974L149.261 82.0401Z" fill="url(#paint4_linear_4286_7264)"/>
</g>
<g opacity="0.3">
<path d="M156.832 85.6911C156.875 84.8638 157.581 84.2283 158.408 84.2716L181.377 85.4753C182.204 85.5187 182.839 86.2245 182.796 87.0518C182.753 87.8791 182.047 88.5146 181.22 88.4712L158.251 87.2675C157.424 87.2242 156.788 86.5184 156.832 85.6911Z" fill="#242424"/>
<path d="M156.488 93.1832C156.531 92.356 157.237 91.7205 158.064 91.7638L186.026 93.2292C186.853 93.2726 187.489 93.9784 187.445 94.8057C187.402 95.633 186.696 96.2685 185.869 96.2251L157.907 94.7597C157.08 94.7163 156.445 94.0105 156.488 93.1832Z" fill="#242424"/>
<path d="M156.343 100.686C156.387 99.8589 157.093 99.2234 157.92 99.2667L176.894 100.261C177.721 100.304 178.357 101.01 178.313 101.838C178.27 102.665 177.564 103.3 176.737 103.257L157.763 102.263C156.936 102.219 156.3 101.513 156.343 100.686Z" fill="#242424"/>
<path d="M155.717 110.667C155.746 110.116 156.217 109.692 156.768 109.721L183.731 111.134C184.283 111.163 184.706 111.633 184.677 112.185C184.649 112.736 184.178 113.16 183.626 113.131L156.663 111.718C156.112 111.689 155.688 111.219 155.717 110.667Z" fill="#242424"/>
<path d="M155.33 117.156C155.359 116.604 155.83 116.181 156.381 116.21L178.351 117.361C178.903 117.39 179.326 117.86 179.298 118.412C179.269 118.963 178.798 119.387 178.247 119.358L156.277 118.207C155.725 118.178 155.302 117.707 155.33 117.156Z" fill="#242424"/>
</g>
<path d="M187.054 87.0247C187.141 85.3701 188.552 84.0991 190.207 84.1858C191.861 84.2725 193.132 85.6841 193.046 87.3387C192.959 88.9933 191.547 90.2643 189.893 90.1776C188.238 90.0909 186.967 88.6793 187.054 87.0247Z" fill="white" fill-opacity="0.4"/>
</g>
<g filter="url(#filter2_d_4286_7264)">
<mask id="path-19-inside-3_4286_7264" fill="white">
<path d="M195.292 89.1905C194.984 84.783 198.307 80.9601 202.715 80.6519L238.627 78.1407C243.035 77.8325 246.858 81.1556 247.166 85.5631L250.654 135.441C250.962 139.849 247.639 143.672 243.231 143.98L207.319 146.491C202.911 146.799 199.088 143.476 198.78 139.069L195.292 89.1905Z"/>
</mask>
<path d="M195.292 89.1905C194.984 84.783 198.307 80.9601 202.715 80.6519L238.627 78.1407C243.035 77.8325 246.858 81.1556 247.166 85.5631L250.654 135.441C250.962 139.849 247.639 143.672 243.231 143.98L207.319 146.491C202.911 146.799 199.088 143.476 198.78 139.069L195.292 89.1905Z" fill="url(#paint5_linear_4286_7264)" shape-rendering="crispEdges"/>
<path d="M202.715 80.6519L202.785 81.6495L238.697 79.1382L238.627 78.1407L238.557 77.1431L202.645 79.6543L202.715 80.6519ZM247.166 85.5631L246.168 85.6329L249.656 135.511L250.654 135.441L251.651 135.372L248.163 85.4934L247.166 85.5631ZM243.231 143.98L243.161 142.982L207.249 145.494L207.319 146.491L207.389 147.489L243.301 144.977L243.231 143.98ZM198.78 139.069L199.778 138.999L196.29 89.1207L195.292 89.1905L194.295 89.2602L197.783 139.138L198.78 139.069ZM207.319 146.491L207.249 145.494C203.392 145.763 200.047 142.855 199.778 138.999L198.78 139.069L197.783 139.138C198.129 144.097 202.43 147.835 207.389 147.489L207.319 146.491ZM250.654 135.441L249.656 135.511C249.926 139.368 247.018 142.713 243.161 142.982L243.231 143.98L243.301 144.977C248.259 144.631 251.998 140.33 251.651 135.372L250.654 135.441ZM238.627 78.1407L238.697 79.1382C242.554 78.8686 245.899 81.7763 246.168 85.6329L247.166 85.5631L248.163 85.4934C247.817 80.5349 243.516 76.7964 238.557 77.1431L238.627 78.1407ZM202.715 80.6519L202.645 79.6543C197.687 80.0011 193.948 84.3018 194.295 89.2602L195.292 89.1905L196.29 89.1207C196.02 85.2641 198.928 81.9192 202.785 81.6495L202.715 80.6519Z" fill="#242424" fill-opacity="0.08" mask="url(#path-19-inside-3_4286_7264)"/>
<g opacity="0.5">
<path d="M196.359 90.1182C196.051 85.7107 199.374 81.8878 203.781 81.5796L237.698 79.2079C242.106 78.8997 245.929 82.2229 246.237 86.6304L249.585 134.513C249.894 138.921 246.57 142.744 242.163 143.052L208.246 145.424C203.838 145.732 200.015 142.409 199.707 138.001L196.359 90.1182Z" fill="url(#paint6_linear_4286_7264)"/>
</g>
<g opacity="0.2">
<path d="M204.316 92.8196C204.258 91.9932 204.881 91.2764 205.707 91.2186L228.651 89.6142C229.478 89.5564 230.194 90.1795 230.252 91.0059C230.31 91.8323 229.687 92.5491 228.861 92.6069L205.917 94.2113C205.09 94.2691 204.373 93.646 204.316 92.8196Z" fill="#242424"/>
<path d="M204.886 100.298C204.828 99.4717 205.451 98.7549 206.278 98.6971L234.209 96.7439C235.036 96.6862 235.753 97.3092 235.81 98.1357C235.868 98.9621 235.245 99.6788 234.419 99.7366L206.487 101.69C205.66 101.748 204.944 101.125 204.886 100.298Z" fill="#242424"/>
<path d="M205.659 107.762C205.602 106.936 206.225 106.219 207.051 106.161L226.005 104.836C226.831 104.778 227.548 105.401 227.606 106.228C227.664 107.054 227.04 107.771 226.214 107.829L207.26 109.154C206.434 109.212 205.717 108.589 205.659 107.762Z" fill="#242424"/>
<path d="M206.253 117.745C206.215 117.194 206.63 116.716 207.181 116.678L234.115 114.794C234.666 114.756 235.144 115.171 235.183 115.722C235.221 116.273 234.806 116.751 234.255 116.79L207.321 118.673C206.77 118.711 206.292 118.296 206.253 117.745Z" fill="#242424"/>
<path d="M206.664 124.233C206.625 123.682 207.04 123.204 207.591 123.165L229.538 121.631C230.089 121.592 230.567 122.008 230.605 122.559C230.644 123.109 230.228 123.587 229.677 123.626L207.731 125.16C207.18 125.199 206.702 124.784 206.664 124.233Z" fill="#242424"/>
</g>
</g>
<g filter="url(#filter3_d_4286_7264)">
<mask id="path-27-inside-4_4286_7264" fill="white">
<path d="M249.252 83.1444C249.637 78.7429 253.517 75.487 257.919 75.8721L293.782 79.0097C298.183 79.3947 301.439 83.275 301.054 87.6765L296.696 137.486C296.311 141.888 292.431 145.144 288.03 144.759L252.167 141.621C247.765 141.236 244.509 137.356 244.894 132.954L249.252 83.1444Z"/>
</mask>
<path d="M249.252 83.1444C249.637 78.7429 253.517 75.487 257.919 75.8721L293.782 79.0097C298.183 79.3947 301.439 83.275 301.054 87.6765L296.696 137.486C296.311 141.888 292.431 145.144 288.03 144.759L252.167 141.621C247.765 141.236 244.509 137.356 244.894 132.954L249.252 83.1444Z" fill="url(#paint7_linear_4286_7264)" shape-rendering="crispEdges"/>
<path d="M257.919 75.8721L257.832 76.8682L293.695 80.0058L293.782 79.0097L293.869 78.0135L258.006 74.8759L257.919 75.8721ZM301.054 87.6765L300.058 87.5893L295.7 137.399L296.696 137.486L297.693 137.573L302.05 87.7636L301.054 87.6765ZM288.03 144.759L288.117 143.762L252.254 140.625L252.167 141.621L252.079 142.617L287.942 145.755L288.03 144.759ZM244.894 132.954L245.89 133.041L250.248 83.2315L249.252 83.1444L248.256 83.0572L243.898 132.867L244.894 132.954ZM252.167 141.621L252.254 140.625C248.402 140.288 245.553 136.893 245.89 133.041L244.894 132.954L243.898 132.867C243.465 137.819 247.128 142.184 252.079 142.617L252.167 141.621ZM296.696 137.486L295.7 137.399C295.363 141.25 291.968 144.099 288.117 143.762L288.03 144.759L287.942 145.755C292.894 146.188 297.259 142.525 297.693 137.573L296.696 137.486ZM293.782 79.0097L293.695 80.0058C297.546 80.3428 300.395 83.738 300.058 87.5893L301.054 87.6765L302.05 87.7636C302.484 82.812 298.821 78.4467 293.869 78.0135L293.782 79.0097ZM257.919 75.8721L258.006 74.8759C253.054 74.4426 248.689 78.1056 248.256 83.0572L249.252 83.1444L250.248 83.2315C250.585 79.3802 253.98 76.5313 257.832 76.8682L257.919 75.8721Z" fill="#242424" fill-opacity="0.08" mask="url(#path-27-inside-4_4286_7264)"/>
<g opacity="0.5">
<path d="M250.162 84.2276C250.547 79.8261 254.427 76.5702 258.829 76.9553L292.7 79.9186C297.101 80.3037 300.357 84.1839 299.972 88.5854L295.788 136.403C295.403 140.804 291.523 144.06 287.122 143.675L253.251 140.712C248.85 140.327 245.594 136.446 245.979 132.045L250.162 84.2276Z" fill="url(#paint8_linear_4286_7264)"/>
</g>
<g opacity="0.2">
<path d="M257.596 88.1408C257.668 87.3155 258.396 86.705 259.221 86.7772L282.133 88.7818C282.959 88.854 283.569 89.5815 283.497 90.4068C283.425 91.2321 282.697 91.8426 281.872 91.7704L258.959 89.7658C258.134 89.6936 257.524 88.9661 257.596 88.1408Z" fill="#242424"/>
<path d="M256.99 95.6164C257.063 94.7911 257.79 94.1806 258.615 94.2528L286.509 96.6932C287.334 96.7654 287.945 97.4929 287.872 98.3182C287.8 99.1435 287.073 99.7539 286.247 99.6817L258.354 97.2414C257.529 97.1692 256.918 96.4416 256.99 95.6164Z" fill="#242424"/>
<path d="M256.584 103.11C256.656 102.284 257.384 101.674 258.209 101.746L277.137 103.402C277.962 103.474 278.573 104.202 278.5 105.027C278.428 105.852 277.701 106.463 276.875 106.391L257.948 104.735C257.122 104.662 256.512 103.935 256.584 103.11Z" fill="#242424"/>
<path d="M255.612 113.063C255.66 112.512 256.145 112.105 256.695 112.154L283.593 114.507C284.143 114.555 284.55 115.04 284.502 115.59C284.454 116.14 283.969 116.547 283.418 116.499L256.521 114.146C255.971 114.098 255.564 113.613 255.612 113.063Z" fill="#242424"/>
<path d="M254.999 119.534C255.047 118.984 255.532 118.577 256.082 118.625L277.998 120.542C278.549 120.59 278.956 121.075 278.907 121.626C278.859 122.176 278.374 122.583 277.824 122.535L255.908 120.617C255.358 120.569 254.951 120.084 254.999 119.534Z" fill="#242424"/>
</g>
</g>
<g filter="url(#filter4_d_4286_7264)">
<mask id="path-35-inside-5_4286_7264" fill="white">
<path d="M126.668 177.532C126.668 171.163 131.831 166 138.2 166H255.829C262.198 166 267.361 171.163 267.361 177.532V243.266C267.361 249.635 262.198 254.798 255.829 254.798H138.2C131.831 254.798 126.668 249.635 126.668 243.266V177.532Z"/>
</mask>
<path d="M126.668 177.532C126.668 171.163 131.831 166 138.2 166H255.829C262.198 166 267.361 171.163 267.361 177.532V243.266C267.361 249.635 262.198 254.798 255.829 254.798H138.2C131.831 254.798 126.668 249.635 126.668 243.266V177.532Z" fill="white" fill-opacity="0.3" shape-rendering="crispEdges"/>
<path d="M138.2 166V167.153H255.829V166V164.847H138.2V166ZM267.361 177.532H266.208V243.266H267.361H268.515V177.532H267.361ZM255.829 254.798V253.645H138.2V254.798V255.951H255.829V254.798ZM126.668 243.266H127.821V177.532H126.668H125.515V243.266H126.668ZM138.2 254.798V253.645C132.468 253.645 127.821 248.998 127.821 243.266H126.668H125.515C125.515 250.272 131.194 255.951 138.2 255.951V254.798ZM267.361 243.266H266.208C266.208 248.998 261.561 253.645 255.829 253.645V254.798V255.951C262.835 255.951 268.515 250.272 268.515 243.266H267.361ZM255.829 166V167.153C261.561 167.153 266.208 171.8 266.208 177.532H267.361H268.515C268.515 170.526 262.835 164.847 255.829 164.847V166ZM138.2 166V164.847C131.194 164.847 125.515 170.526 125.515 177.532H126.668H127.821C127.821 171.8 132.468 167.153 138.2 167.153V166Z" fill="#242424" fill-opacity="0.06" mask="url(#path-35-inside-5_4286_7264)"/>
<path d="M145.117 230.581V219.049L168.182 207.516L191.246 192.525L214.311 204.057L237.375 187.912V230.581H145.117Z" fill="url(#paint9_linear_4286_7264)"/>
<path d="M145.117 219.049L168.182 207.516L191.246 192.525L214.311 204.057L237.375 187.912" stroke="#FCB344" stroke-width="2.88306" stroke-linecap="round" stroke-linejoin="round"/>
<path d="M145.118 223.085C147.347 223.085 149.155 221.278 149.155 219.048C149.155 216.819 147.347 215.012 145.118 215.012C142.889 215.012 141.082 216.819 141.082 219.048C141.082 221.278 142.889 223.085 145.118 223.085Z" fill="#FCB344" stroke="white" stroke-width="1.72984"/>
<path d="M168.181 211.553C170.41 211.553 172.217 209.745 172.217 207.516C172.217 205.287 170.41 203.48 168.181 203.48C165.952 203.48 164.145 205.287 164.145 207.516C164.145 209.745 165.952 211.553 168.181 211.553Z" fill="#FCB344" stroke="white" stroke-width="1.72984"/>
<path d="M191.247 196.561C193.476 196.561 195.284 194.754 195.284 192.524C195.284 190.295 193.476 188.488 191.247 188.488C189.018 188.488 187.211 190.295 187.211 192.524C187.211 194.754 189.018 196.561 191.247 196.561Z" fill="#FCB344" stroke="white" stroke-width="1.72984"/>
<path d="M214.31 208.093C216.539 208.093 218.346 206.286 218.346 204.057C218.346 201.828 216.539 200.021 214.31 200.021C212.081 200.021 210.273 201.828 210.273 204.057C210.273 206.286 212.081 208.093 214.31 208.093Z" fill="#FCB344" stroke="white" stroke-width="1.72984"/>
<path d="M237.376 191.948C239.605 191.948 241.412 190.141 241.412 187.912C241.412 185.682 239.605 183.875 237.376 183.875C235.147 183.875 233.34 185.682 233.34 187.912C233.34 190.141 235.147 191.948 237.376 191.948Z" fill="#FCB344" stroke="white" stroke-width="1.72984"/>
</g>
<defs>
<filter id="filter0_d_4286_7264" x="81.668" y="68.7783" width="82.6133" height="95.074" filterUnits="userSpaceOnUse" color-interpolation-filters="sRGB">
<feFlood flood-opacity="0" result="BackgroundImageFix"/>
<feColorMatrix in="SourceAlpha" type="matrix" values="0 0 0 0 0 0 0 0 0 0 0 0 0 0 0 0 0 0 127 0" result="hardAlpha"/>
<feOffset dy="4"/>
<feGaussianBlur stdDeviation="6"/>
<feComposite in2="hardAlpha" operator="out"/>
<feColorMatrix type="matrix" values="0 0 0 0 0 0 0 0 0 0 0 0 0 0 0 0 0 0 0.06 0"/>
<feBlend mode="normal" in2="BackgroundImageFix" result="effect1_dropShadow_4286_7264"/>
<feBlend mode="normal" in="SourceGraphic" in2="effect1_dropShadow_4286_7264" result="shape"/>
</filter>
<filter id="filter1_d_4286_7264" x="129.281" y="63" width="87.3828" height="100.631" filterUnits="userSpaceOnUse" color-interpolation-filters="sRGB">
<feFlood flood-opacity="0" result="BackgroundImageFix"/>
<feColorMatrix in="SourceAlpha" type="matrix" values="0 0 0 0 0 0 0 0 0 0 0 0 0 0 0 0 0 0 127 0" result="hardAlpha"/>
<feOffset dy="6"/>
<feGaussianBlur stdDeviation="8"/>
<feComposite in2="hardAlpha" operator="out"/>
<feColorMatrix type="matrix" values="0 0 0 0 0.988235 0 0 0 0 0.701961 0 0 0 0 0.266667 0 0 0 0.25 0"/>
<feBlend mode="normal" in2="BackgroundImageFix" result="effect1_dropShadow_4286_7264"/>
<feBlend mode="normal" in="SourceGraphic" in2="effect1_dropShadow_4286_7264" result="shape"/>
</filter>
<filter id="filter2_d_4286_7264" x="182.734" y="69.5825" width="80.4766" height="93.4666" filterUnits="userSpaceOnUse" color-interpolation-filters="sRGB">
<feFlood flood-opacity="0" result="BackgroundImageFix"/>
<feColorMatrix in="SourceAlpha" type="matrix" values="0 0 0 0 0 0 0 0 0 0 0 0 0 0 0 0 0 0 127 0" result="hardAlpha"/>
<feOffset dy="4"/>
<feGaussianBlur stdDeviation="6"/>
<feComposite in2="hardAlpha" operator="out"/>
<feColorMatrix type="matrix" values="0 0 0 0 0 0 0 0 0 0 0 0 0 0 0 0 0 0 0.06 0"/>
<feBlend mode="normal" in2="BackgroundImageFix" result="effect1_dropShadow_4286_7264"/>
<feBlend mode="normal" in="SourceGraphic" in2="effect1_dropShadow_4286_7264" result="shape"/>
</filter>
<filter id="filter3_d_4286_7264" x="232.195" y="67.1748" width="81.5547" height="94.281" filterUnits="userSpaceOnUse" color-interpolation-filters="sRGB">
<feFlood flood-opacity="0" result="BackgroundImageFix"/>
<feColorMatrix in="SourceAlpha" type="matrix" values="0 0 0 0 0 0 0 0 0 0 0 0 0 0 0 0 0 0 127 0" result="hardAlpha"/>
<feOffset dy="4"/>
<feGaussianBlur stdDeviation="6"/>
<feComposite in2="hardAlpha" operator="out"/>
<feColorMatrix type="matrix" values="0 0 0 0 0 0 0 0 0 0 0 0 0 0 0 0 0 0 0.06 0"/>
<feBlend mode="normal" in2="BackgroundImageFix" result="effect1_dropShadow_4286_7264"/>
<feBlend mode="normal" in="SourceGraphic" in2="effect1_dropShadow_4286_7264" result="shape"/>
</filter>
<filter id="filter4_d_4286_7264" x="115.136" y="157.927" width="163.76" height="111.863" filterUnits="userSpaceOnUse" color-interpolation-filters="sRGB">
<feFlood flood-opacity="0" result="BackgroundImageFix"/>
<feColorMatrix in="SourceAlpha" type="matrix" values="0 0 0 0 0 0 0 0 0 0 0 0 0 0 0 0 0 0 127 0" result="hardAlpha"/>
<feOffset dy="3.45967"/>
<feGaussianBlur stdDeviation="5.76612"/>
<feComposite in2="hardAlpha" operator="out"/>
<feColorMatrix type="matrix" values="0 0 0 0 0 0 0 0 0 0 0 0 0 0 0 0 0 0 0.04 0"/>
<feBlend mode="normal" in2="BackgroundImageFix" result="effect1_dropShadow_4286_7264"/>
<feBlend mode="normal" in="SourceGraphic" in2="effect1_dropShadow_4286_7264" result="shape"/>
</filter>
<linearGradient id="paint0_linear_4286_7264" x1="197.333" y1="0" x2="197.333" y2="277" gradientUnits="userSpaceOnUse">
<stop stop-color="#F0EEE6" stop-opacity="0"/>
<stop offset="1" stop-color="#F0EADE"/>
</linearGradient>
<linearGradient id="paint1_linear_4286_7264" x1="93.668" y1="82.2139" x2="162.769" y2="125.786" gradientUnits="userSpaceOnUse">
<stop stop-color="#FAFAF8"/>
<stop offset="0.25" stop-color="#F9F8F5"/>
<stop offset="0.5" stop-color="#F7F7F3"/>
<stop offset="0.75" stop-color="#F6F5F0"/>
<stop offset="1" stop-color="#F5F4EE"/>
</linearGradient>
<linearGradient id="paint2_linear_4286_7264" x1="119.629" y1="80.4906" x2="126.318" y2="144.14" gradientUnits="userSpaceOnUse">
<stop stop-color="white" stop-opacity="0.4"/>
<stop offset="1" stop-opacity="0"/>
</linearGradient>
<linearGradient id="paint3_linear_4286_7264" x1="148.734" y1="73" x2="210.168" y2="126.845" gradientUnits="userSpaceOnUse">
<stop stop-color="#FCB344"/>
<stop offset="0.166667" stop-color="#FAB041"/>
<stop offset="0.333333" stop-color="#F8AD3E"/>
<stop offset="0.5" stop-color="#F6A93A"/>
<stop offset="0.666667" stop-color="#F4A637"/>
<stop offset="0.833333" stop-color="#F2A334"/>
<stop offset="1" stop-color="#F0A030"/>
</linearGradient>
<linearGradient id="paint4_linear_4286_7264" x1="174.645" y1="75.3594" x2="171.296" y2="139.272" gradientUnits="userSpaceOnUse">
<stop stop-color="white" stop-opacity="0.4"/>
<stop offset="1" stop-opacity="0"/>
</linearGradient>
<linearGradient id="paint5_linear_4286_7264" x1="194.734" y1="81.21" x2="262.272" y2="127.167" gradientUnits="userSpaceOnUse">
<stop stop-color="#FAFAF8"/>
<stop offset="0.25" stop-color="#F9F8F5"/>
<stop offset="0.5" stop-color="#F7F7F3"/>
<stop offset="0.75" stop-color="#F6F5F0"/>
<stop offset="1" stop-color="#F5F4EE"/>
</linearGradient>
<linearGradient id="paint6_linear_4286_7264" x1="220.74" y1="80.3938" x2="225.204" y2="144.238" gradientUnits="userSpaceOnUse">
<stop stop-color="white" stop-opacity="0.4"/>
<stop offset="1" stop-opacity="0"/>
</linearGradient>
<linearGradient id="paint7_linear_4286_7264" x1="249.949" y1="75.1748" x2="309.466" y2="131.131" gradientUnits="userSpaceOnUse">
<stop stop-color="#FAFAF8"/>
<stop offset="0.25" stop-color="#F9F8F5"/>
<stop offset="0.5" stop-color="#F7F7F3"/>
<stop offset="0.75" stop-color="#F6F5F0"/>
<stop offset="1" stop-color="#F5F4EE"/>
</linearGradient>
<linearGradient id="paint8_linear_4286_7264" x1="275.764" y1="78.4369" x2="270.186" y2="142.193" gradientUnits="userSpaceOnUse">
<stop stop-color="white" stop-opacity="0.4"/>
<stop offset="1" stop-opacity="0"/>
</linearGradient>
<linearGradient id="paint9_linear_4286_7264" x1="145.117" y1="187.912" x2="237.375" y2="187.912" gradientUnits="userSpaceOnUse">
<stop stop-color="#FCB344" stop-opacity="0.3"/>
<stop offset="1" stop-color="#F0A030" stop-opacity="0.6"/>
</linearGradient>
</defs>
</svg>
