<svg width="395" height="277" viewBox="0 0 395 277" fill="none" xmlns="http://www.w3.org/2000/svg">
<path d="M0 0H394.667V267C394.667 272.523 390.19 277 384.667 277H9.99999C4.47714 277 0 272.523 0 267V0Z" fill="url(#paint0_linear_4286_7314)"/>
<path d="M204 136H190C188.343 136 187 137.343 187 139V151C187 152.657 188.343 154 190 154H204C205.657 154 207 152.657 207 151V139C207 137.343 205.657 136 204 136Z" fill="url(#paint1_linear_4286_7314)" stroke="white" stroke-width="1.5"/>
<path d="M191 136V131C191 127.686 193.686 125 197 125C200.314 125 203 127.686 203 131V136" stroke="url(#paint2_linear_4286_7314)" stroke-width="3" stroke-linecap="round"/>
<path opacity="0.25" d="M197 147.5C198.381 147.5 199.5 146.381 199.5 145C199.5 143.619 198.381 142.5 197 142.5C195.619 142.5 194.5 143.619 194.5 145C194.5 146.381 195.619 147.5 197 147.5Z" fill="#242424"/>
<path opacity="0.25" d="M198 148C198 147.448 197.552 147 197 147C196.448 147 196 147.448 196 148V150C196 150.552 196.448 151 197 151C197.552 151 198 150.552 198 150V148Z" fill="#242424"/>
<g opacity="0.25">
<mask id="path-6-inside-1_4286_7314" fill="white">
<path d="M117 139C117 94.8172 152.817 59 197 59V59C241.183 59 277 94.8172 277 139V139C277 183.183 241.183 219 197 219V219C152.817 219 117 183.183 117 139V139Z"/>
</mask>
<path d="M197 219V218C196.339 218 195.681 217.992 195.024 217.976L194.999 218.975L194.975 219.975C195.648 219.992 196.323 220 197 220V219ZM193.011 218.902L193.06 217.903C191.741 217.839 190.431 217.742 189.13 217.613L189.032 218.608L188.934 219.603C190.267 219.735 191.61 219.835 192.962 219.901L193.011 218.902ZM187.046 218.387L187.169 217.394C185.86 217.232 184.562 217.038 183.273 216.812L183.101 217.797L182.928 218.782C184.249 219.013 185.581 219.213 186.923 219.379L187.046 218.387ZM181.143 217.429L181.34 216.448C180.048 216.188 178.768 215.897 177.499 215.575L177.253 216.544L177.007 217.514C178.308 217.844 179.621 218.143 180.946 218.409L181.143 217.429ZM175.324 216.029L175.594 215.066C174.326 214.71 173.071 214.323 171.83 213.906L171.512 214.854L171.193 215.802C172.466 216.229 173.753 216.626 175.054 216.991L175.324 216.029ZM169.631 214.196L169.973 213.256C168.736 212.806 167.514 212.326 166.307 211.816L165.918 212.737L165.529 213.659C166.767 214.181 168.02 214.674 169.289 215.135L169.631 214.196ZM164.088 211.938L164.5 211.027C163.301 210.485 162.118 209.914 160.952 209.315L160.495 210.205L160.038 211.094C161.234 211.708 162.447 212.294 163.676 212.849L164.088 211.938ZM158.734 209.272L159.213 208.394C158.058 207.764 156.921 207.106 155.803 206.421L155.28 207.274L154.758 208.127C155.905 208.829 157.071 209.503 158.255 210.149L158.734 209.272ZM153.592 206.21L154.135 205.371C153.031 204.657 151.947 203.916 150.882 203.149L150.298 203.96L149.713 204.772C150.805 205.558 151.917 206.318 153.048 207.05L153.592 206.21ZM148.694 202.775L149.298 201.978C148.251 201.184 147.225 200.364 146.22 199.52L145.576 200.285L144.933 201.051C145.964 201.917 147.016 202.757 148.089 203.571L148.694 202.775ZM144.065 198.983L144.727 198.234C143.742 197.364 142.779 196.471 141.839 195.554L141.141 196.269L140.443 196.985C141.406 197.925 142.393 198.842 143.403 199.733L144.065 198.983ZM139.731 194.859L140.446 194.161C139.529 193.221 138.636 192.258 137.766 191.273L137.017 191.935L136.267 192.597C137.158 193.607 138.075 194.594 139.015 195.557L139.731 194.859ZM135.715 190.424L136.48 189.78C135.636 188.775 134.816 187.749 134.022 186.702L133.225 187.306L132.429 187.911C133.243 188.984 134.083 190.036 134.949 191.067L135.715 190.424ZM132.04 185.702L132.851 185.118C132.084 184.053 131.343 182.969 130.629 181.865L129.79 182.408L128.95 182.952C129.682 184.083 130.442 185.195 131.228 186.287L132.04 185.702ZM128.726 180.72L129.579 180.197C128.894 179.079 128.236 177.942 127.606 176.787L126.728 177.266L125.851 177.745C126.497 178.929 127.171 180.095 127.873 181.242L128.726 180.72ZM125.795 175.505L126.685 175.048C126.086 173.882 125.515 172.699 124.973 171.5L124.062 171.912L123.151 172.324C123.706 173.553 124.292 174.766 124.906 175.962L125.795 175.505ZM123.263 170.082L124.184 169.693C123.674 168.486 123.194 167.264 122.744 166.027L121.804 166.369L120.865 166.711C121.326 167.98 121.819 169.233 122.341 170.471L123.263 170.082ZM121.146 164.488L122.094 164.17C121.677 162.929 121.29 161.674 120.934 160.406L119.971 160.676L119.009 160.946C119.374 162.247 119.771 163.534 120.198 164.807L121.146 164.488ZM119.456 158.747L120.425 158.501C120.103 157.232 119.812 155.952 119.552 154.66L118.571 154.857L117.591 155.054C117.857 156.379 118.156 157.692 118.486 158.993L119.456 158.747ZM118.203 152.899L119.188 152.727C118.962 151.439 118.768 150.14 118.606 148.831L117.613 148.954L116.621 149.077C116.787 150.419 116.987 151.751 117.218 153.072L118.203 152.899ZM117.392 146.968L118.387 146.87C118.258 145.569 118.161 144.259 118.097 142.94L117.098 142.989L116.099 143.038C116.165 144.39 116.265 145.733 116.397 147.066L117.392 146.968ZM117.025 141.001L118.024 140.976C118.008 140.319 118 139.661 118 139H117H116C116 139.677 116.008 140.352 116.025 141.025L117.025 141.001ZM117 139H118C118 138.339 118.008 137.681 118.024 137.024L117.025 136.999L116.025 136.975C116.008 137.648 116 138.323 116 139H117ZM117.098 135.011L118.097 135.06C118.161 133.741 118.258 132.431 118.387 131.13L117.392 131.032L116.397 130.934C116.265 132.267 116.165 133.61 116.099 134.962L117.098 135.011ZM117.613 129.046L118.606 129.169C118.768 127.86 118.962 126.562 119.188 125.273L118.203 125.101L117.218 124.928C116.987 126.249 116.787 127.581 116.621 128.923L117.613 129.046ZM118.571 123.143L119.552 123.34C119.812 122.048 120.103 120.768 120.425 119.499L119.456 119.253L118.486 119.007C118.156 120.308 117.857 121.621 117.591 122.946L118.571 123.143ZM119.971 117.324L120.934 117.594C121.29 116.326 121.677 115.071 122.094 113.83L121.146 113.512L120.198 113.193C119.771 114.466 119.374 115.753 119.009 117.054L119.971 117.324ZM121.804 111.631L122.744 111.973C123.194 110.736 123.674 109.514 124.184 108.307L123.263 107.918L122.341 107.529C121.819 108.767 121.326 110.02 120.865 111.289L121.804 111.631ZM124.062 106.088L124.973 106.5C125.515 105.301 126.086 104.118 126.685 102.952L125.795 102.495L124.906 102.038C124.292 103.234 123.706 104.447 123.151 105.676L124.062 106.088ZM126.728 100.734L127.606 101.213C128.236 100.058 128.894 98.9212 129.579 97.8026L128.726 97.2803L127.873 96.7581C127.171 97.905 126.497 99.0708 125.851 100.255L126.728 100.734ZM129.79 95.5916L130.629 96.135C131.343 95.0314 132.084 93.9468 132.851 92.882L132.04 92.2976L131.228 91.7132C130.442 92.8048 129.682 93.9169 128.95 95.0483L129.79 95.5916ZM133.225 90.6938L134.022 91.2982C134.816 90.2512 135.636 89.2247 136.48 88.2195L135.715 87.5763L134.949 86.9332C134.083 87.9637 133.243 89.0161 132.429 90.0894L133.225 90.6938ZM137.017 86.0648L137.766 86.7268C138.636 85.7422 139.529 84.7794 140.446 83.8394L139.731 83.1411L139.015 82.4428C138.075 83.4064 137.158 84.3934 136.267 85.4028L137.017 86.0648ZM141.141 81.7306L141.839 82.4464C142.779 81.5294 143.742 80.6356 144.727 79.7661L144.065 79.0165L143.403 78.267C142.393 79.1585 141.406 80.0747 140.443 81.0148L141.141 81.7306ZM145.576 77.7146L146.22 78.4803C147.225 77.636 148.251 76.8162 149.298 76.022L148.694 75.2253L148.089 74.4286C147.016 75.2429 145.964 76.0833 144.933 76.9489L145.576 77.7146ZM150.298 74.0397L150.882 74.8511C151.947 74.0843 153.031 73.3433 154.135 72.6291L153.592 71.7896L153.048 70.95C151.917 71.6823 150.805 72.442 149.713 73.2282L150.298 74.0397ZM155.28 70.7263L155.803 71.5791C156.921 70.8941 158.058 70.2361 159.213 69.6062L158.734 68.7284L158.255 67.8506C157.071 68.4965 155.905 69.1711 154.758 69.8735L155.28 70.7263ZM160.495 67.7953L160.952 68.6848C162.118 68.0858 163.301 67.515 164.5 66.9732L164.088 66.0619L163.676 65.1507C162.447 65.7063 161.234 66.2916 160.038 66.9058L160.495 67.7953ZM165.918 65.2626L166.307 66.1839C167.514 65.6744 168.736 65.1941 169.973 64.7438L169.631 63.8042L169.289 62.8645C168.02 63.3263 166.767 63.8188 165.529 64.3413L165.918 65.2626ZM171.512 63.146L171.83 64.094C173.071 63.6771 174.326 63.2902 175.594 62.9341L175.324 61.9713L175.054 61.0086C173.753 61.3737 172.466 61.7705 171.193 62.1981L171.512 63.146ZM177.253 61.4556L177.499 62.4249C178.768 62.1029 180.048 61.8115 181.34 61.5517L181.143 60.5713L180.946 59.591C179.621 59.8574 178.308 60.1561 177.007 60.4864L177.253 61.4556ZM183.101 60.2031L183.273 61.1881C184.561 60.9625 185.86 60.768 187.169 60.6056L187.046 59.6132L186.923 58.6208C185.581 58.7874 184.249 58.9868 182.928 59.2181L183.101 60.2031ZM189.032 59.3918L189.13 60.387C190.431 60.2584 191.741 60.1613 193.06 60.0965L193.011 59.0977L192.962 58.0989C191.61 58.1653 190.267 58.2648 188.934 58.3967L189.032 59.3918ZM194.999 59.0245L195.024 60.0242C195.681 60.0081 196.339 60 197 60V59V58C196.323 58 195.648 58.0083 194.975 58.0248L194.999 59.0245ZM197 59V60C197.661 60 198.319 60.0081 198.976 60.0242L199.001 59.0245L199.025 58.0248C198.352 58.0083 197.677 58 197 58V59ZM200.989 59.0977L200.94 60.0965C202.259 60.1613 203.569 60.2584 204.87 60.387L204.968 59.3918L205.066 58.3967C203.733 58.2648 202.39 58.1653 201.038 58.0989L200.989 59.0977ZM206.954 59.6132L206.831 60.6056C208.14 60.768 209.438 60.9625 210.727 61.1881L210.899 60.2031L211.072 59.2181C209.751 58.9867 208.419 58.7874 207.077 58.6208L206.954 59.6132ZM212.857 60.5713L212.66 61.5517C213.952 61.8115 215.232 62.1029 216.501 62.4249L216.747 61.4556L216.993 60.4864C215.692 60.1561 214.379 59.8574 213.054 59.591L212.857 60.5713ZM218.676 61.9713L218.406 62.9341C219.674 63.2902 220.929 63.6771 222.17 64.094L222.488 63.146L222.807 62.1981C221.534 61.7705 220.247 61.3737 218.946 61.0086L218.676 61.9713ZM224.369 63.8042L224.027 64.7438C225.264 65.1941 226.486 65.6744 227.693 66.1839L228.082 65.2626L228.471 64.3413C227.233 63.8188 225.98 63.3263 224.711 62.8645L224.369 63.8042ZM229.912 66.0619L229.5 66.9732C230.699 67.515 231.882 68.0858 233.048 68.6848L233.505 67.7953L233.962 66.9058C232.766 66.2916 231.553 65.7063 230.324 65.1507L229.912 66.0619ZM235.266 68.7284L234.787 69.6062C235.942 70.2361 237.079 70.8941 238.197 71.5791L238.72 70.7263L239.242 69.8735C238.095 69.1711 236.929 68.4965 235.745 67.8506L235.266 68.7284ZM240.408 71.7896L239.865 72.6291C240.969 73.3433 242.053 74.0843 243.118 74.8511L243.702 74.0397L244.287 73.2282C243.195 72.442 242.083 71.6823 240.952 70.95L240.408 71.7896ZM245.306 75.2253L244.702 76.022C245.749 76.8162 246.775 77.636 247.78 78.4803L248.424 77.7146L249.067 76.9489C248.036 76.0833 246.984 75.2429 245.911 74.4286L245.306 75.2253ZM249.935 79.0165L249.273 79.7661C250.258 80.6356 251.221 81.5294 252.161 82.4464L252.859 81.7306L253.557 81.0148C252.594 80.0747 251.607 79.1585 250.597 78.267L249.935 79.0165ZM254.269 83.1411L253.554 83.8394C254.471 84.7794 255.364 85.7421 256.234 86.7268L256.983 86.0648L257.733 85.4028C256.842 84.3934 255.925 83.4064 254.985 82.4428L254.269 83.1411ZM258.285 87.5763L257.52 88.2195C258.364 89.2247 259.184 90.2512 259.978 91.2982L260.775 90.6938L261.571 90.0894C260.757 89.0161 259.917 87.9637 259.051 86.9332L258.285 87.5763ZM261.96 92.2976L261.149 92.882C261.916 93.9468 262.657 95.0314 263.371 96.135L264.21 95.5916L265.05 95.0483C264.318 93.9169 263.558 92.8048 262.772 91.7132L261.96 92.2976ZM265.274 97.2803L264.421 97.8026C265.106 98.9212 265.764 100.058 266.394 101.213L267.272 100.734L268.149 100.255C267.503 99.0708 266.829 97.905 266.127 96.7581L265.274 97.2803ZM268.205 102.495L267.315 102.952C267.914 104.118 268.485 105.301 269.027 106.5L269.938 106.088L270.849 105.676C270.294 104.447 269.708 103.234 269.094 102.038L268.205 102.495ZM270.737 107.918L269.816 108.307C270.326 109.514 270.806 110.736 271.256 111.973L272.196 111.631L273.135 111.289C272.674 110.02 272.181 108.767 271.659 107.529L270.737 107.918ZM272.854 113.512L271.906 113.83C272.323 115.071 272.71 116.326 273.066 117.594L274.029 117.324L274.991 117.054C274.626 115.753 274.229 114.466 273.802 113.193L272.854 113.512ZM274.544 119.253L273.575 119.499C273.897 120.768 274.188 122.048 274.448 123.34L275.429 123.143L276.409 122.946C276.143 121.621 275.844 120.308 275.514 119.007L274.544 119.253ZM275.797 125.101L274.812 125.273C275.038 126.561 275.232 127.86 275.394 129.169L276.387 129.046L277.379 128.923C277.213 127.581 277.013 126.249 276.782 124.928L275.797 125.101ZM276.608 131.032L275.613 131.13C275.742 132.431 275.839 133.741 275.903 135.06L276.902 135.011L277.901 134.962C277.835 133.61 277.735 132.267 277.603 130.934L276.608 131.032ZM276.975 136.999L275.976 137.024C275.992 137.681 276 138.339 276 139H277H278C278 138.323 277.992 137.648 277.975 136.975L276.975 136.999ZM277 139H276C276 139.661 275.992 140.319 275.976 140.976L276.975 141.001L277.975 141.025C277.992 140.352 278 139.677 278 139H277ZM276.902 142.989L275.903 142.94C275.839 144.259 275.742 145.569 275.613 146.87L276.608 146.968L277.603 147.066C277.735 145.733 277.835 144.39 277.901 143.038L276.902 142.989ZM276.387 148.954L275.394 148.831C275.232 150.14 275.038 151.438 274.812 152.727L275.797 152.899L276.782 153.072C277.013 151.751 277.213 150.419 277.379 149.077L276.387 148.954ZM275.429 154.857L274.448 154.66C274.188 155.952 273.897 157.232 273.575 158.501L274.544 158.747L275.514 158.993C275.844 157.692 276.143 156.379 276.409 155.054L275.429 154.857ZM274.029 160.676L273.066 160.406C272.71 161.674 272.323 162.929 271.906 164.17L272.854 164.488L273.802 164.807C274.229 163.534 274.626 162.247 274.991 160.946L274.029 160.676ZM272.196 166.369L271.256 166.027C270.806 167.264 270.326 168.486 269.816 169.693L270.737 170.082L271.659 170.471C272.181 169.233 272.674 167.98 273.135 166.711L272.196 166.369ZM269.938 171.912L269.027 171.5C268.485 172.699 267.914 173.882 267.315 175.048L268.205 175.505L269.094 175.962C269.708 174.766 270.294 173.553 270.849 172.324L269.938 171.912ZM267.272 177.266L266.394 176.787C265.764 177.942 265.106 179.079 264.421 180.197L265.274 180.72L266.127 181.242C266.829 180.095 267.503 178.929 268.149 177.745L267.272 177.266ZM264.21 182.408L263.371 181.865C262.657 182.969 261.916 184.053 261.149 185.118L261.96 185.702L262.772 186.287C263.558 185.195 264.318 184.083 265.05 182.952L264.21 182.408ZM260.775 187.306L259.978 186.702C259.184 187.749 258.364 188.775 257.52 189.78L258.285 190.424L259.051 191.067C259.917 190.036 260.757 188.984 261.571 187.911L260.775 187.306ZM256.983 191.935L256.234 191.273C255.364 192.258 254.471 193.221 253.554 194.161L254.269 194.859L254.985 195.557C255.925 194.594 256.842 193.607 257.733 192.597L256.983 191.935ZM252.859 196.269L252.161 195.554C251.221 196.471 250.258 197.364 249.273 198.234L249.935 198.983L250.597 199.733C251.607 198.842 252.594 197.925 253.557 196.985L252.859 196.269ZM248.424 200.285L247.78 199.52C246.775 200.364 245.749 201.184 244.702 201.978L245.306 202.775L245.911 203.571C246.984 202.757 248.036 201.917 249.067 201.051L248.424 200.285ZM243.702 203.96L243.118 203.149C242.053 203.916 240.969 204.657 239.865 205.371L240.408 206.21L240.952 207.05C242.083 206.318 243.195 205.558 244.287 204.772L243.702 203.96ZM238.72 207.274L238.197 206.421C237.079 207.106 235.942 207.764 234.787 208.394L235.266 209.272L235.745 210.149C236.929 209.503 238.095 208.829 239.242 208.127L238.72 207.274ZM233.505 210.205L233.048 209.315C231.882 209.914 230.699 210.485 229.5 211.027L229.912 211.938L230.324 212.849C231.553 212.294 232.766 211.708 233.962 211.094L233.505 210.205ZM228.082 212.737L227.693 211.816C226.486 212.326 225.264 212.806 224.027 213.256L224.369 214.196L224.711 215.135C225.98 214.674 227.233 214.181 228.471 213.659L228.082 212.737ZM222.488 214.854L222.17 213.906C220.929 214.323 219.674 214.71 218.406 215.066L218.676 216.029L218.946 216.991C220.247 216.626 221.534 216.229 222.807 215.802L222.488 214.854ZM216.747 216.544L216.501 215.575C215.232 215.897 213.952 216.188 212.66 216.448L212.857 217.429L213.054 218.409C214.379 218.143 215.692 217.844 216.993 217.514L216.747 216.544ZM210.899 217.797L210.727 216.812C209.439 217.038 208.14 217.232 206.831 217.394L206.954 218.387L207.077 219.379C208.419 219.213 209.751 219.013 211.072 218.782L210.899 217.797ZM204.968 218.608L204.87 217.613C203.569 217.742 202.259 217.839 200.94 217.903L200.989 218.902L201.038 219.901C202.39 219.835 203.733 219.735 205.066 219.603L204.968 218.608ZM199.001 218.975L198.976 217.976C198.319 217.992 197.661 218 197 218V219V220C197.677 220 198.352 219.992 199.025 219.975L199.001 218.975ZM197 219V217C196.348 217 195.697 216.992 195.049 216.976L194.999 218.975L194.95 220.975C195.632 220.992 196.315 221 197 221V219ZM193.011 218.902L193.109 216.905C191.807 216.841 190.513 216.745 189.229 216.618L189.032 218.608L188.835 220.598C190.185 220.732 191.545 220.833 192.913 220.9L193.011 218.902ZM187.046 218.387L187.292 216.402C186 216.242 184.718 216.05 183.446 215.827L183.101 217.797L182.756 219.767C184.093 220.001 185.441 220.203 186.8 220.372L187.046 218.387ZM181.143 217.429L181.538 215.468C180.262 215.211 178.998 214.924 177.745 214.606L177.253 216.544L176.761 218.483C178.078 218.817 179.408 219.12 180.749 219.389L181.143 217.429ZM175.324 216.029L175.865 214.103C174.613 213.752 173.374 213.37 172.149 212.958L171.512 214.854L170.875 216.75C172.164 217.183 173.467 217.584 174.783 217.954L175.324 216.029ZM169.631 214.196L170.315 212.316C169.094 211.872 167.887 211.398 166.695 210.895L165.918 212.737L165.14 214.58C166.393 215.109 167.662 215.608 168.947 216.075L169.631 214.196ZM164.088 211.938L164.912 210.116C163.728 209.581 162.56 209.017 161.409 208.426L160.495 210.205L159.581 211.984C160.792 212.605 162.02 213.198 163.264 213.761L164.088 211.938ZM158.734 209.272L159.692 207.516C158.552 206.894 157.429 206.244 156.325 205.568L155.28 207.274L154.236 208.979C155.397 209.69 156.577 210.373 157.776 211.027L158.734 209.272ZM153.592 206.21L154.678 204.531C153.589 203.826 152.518 203.095 151.466 202.337L150.298 203.96L149.129 205.583C150.234 206.379 151.36 207.148 152.505 207.889L153.592 206.21ZM148.694 202.775L149.903 201.181C148.869 200.397 147.855 199.588 146.863 198.754L145.576 200.285L144.29 201.817C145.333 202.693 146.398 203.544 147.485 204.368L148.694 202.775ZM144.065 198.983L145.389 197.484C144.417 196.626 143.466 195.743 142.538 194.838L141.141 196.269L139.744 197.701C140.72 198.653 141.719 199.58 142.741 200.483L144.065 198.983ZM139.731 194.859L141.162 193.462C140.257 192.534 139.374 191.583 138.516 190.611L137.017 191.935L135.517 193.259C136.42 194.281 137.347 195.28 138.299 196.256L139.731 194.859ZM135.715 190.424L137.246 189.137C136.412 188.145 135.603 187.131 134.819 186.097L133.225 187.306L131.632 188.515C132.456 189.602 133.307 190.667 134.183 191.71L135.715 190.424ZM132.04 185.702L133.663 184.534C132.905 183.482 132.174 182.411 131.469 181.322L129.79 182.408L128.111 183.495C128.852 184.64 129.621 185.766 130.417 186.871L132.04 185.702ZM128.726 180.72L130.432 179.675C129.756 178.571 129.106 177.448 128.484 176.308L126.728 177.266L124.973 178.225C125.627 179.423 126.31 180.603 127.021 181.764L128.726 180.72ZM125.795 175.505L127.574 174.591C126.983 173.44 126.419 172.272 125.884 171.088L124.062 171.912L122.239 172.736C122.802 173.98 123.395 175.208 124.016 176.419L125.795 175.505ZM123.263 170.082L125.105 169.305C124.602 168.113 124.128 166.906 123.684 165.685L121.804 166.369L119.925 167.053C120.392 168.338 120.891 169.607 121.42 170.86L123.263 170.082ZM121.146 164.488L123.042 163.852C122.63 162.626 122.248 161.387 121.897 160.135L119.971 160.676L118.046 161.217C118.416 162.533 118.817 163.836 119.25 165.125L121.146 164.488ZM119.456 158.747L121.394 158.255C121.076 157.002 120.789 155.738 120.532 154.462L118.571 154.857L116.611 155.251C116.88 156.592 117.183 157.922 117.517 159.239L119.456 158.747ZM118.203 152.899L120.173 152.554C119.95 151.282 119.758 150 119.598 148.708L117.613 148.954L115.628 149.2C115.797 150.559 115.999 151.907 116.233 153.244L118.203 152.899ZM117.392 146.968L119.382 146.771C119.255 145.487 119.159 144.193 119.095 142.891L117.098 142.989L115.1 143.087C115.167 144.455 115.268 145.815 115.402 147.165L117.392 146.968ZM117.025 141.001L119.024 140.951C119.008 140.303 119 139.652 119 139H117H115C115 139.685 115.008 140.368 115.025 141.05L117.025 141.001ZM117 139H119C119 138.348 119.008 137.697 119.024 137.049L117.025 136.999L115.025 136.95C115.008 137.632 115 138.315 115 139H117ZM117.098 135.011L119.095 135.109C119.159 133.807 119.255 132.513 119.382 131.229L117.392 131.032L115.402 130.835C115.268 132.185 115.167 133.545 115.1 134.913L117.098 135.011ZM117.613 129.046L119.598 129.292C119.758 128 119.95 126.718 120.173 125.446L118.203 125.101L116.233 124.756C115.999 126.093 115.797 127.441 115.628 128.8L117.613 129.046ZM118.571 123.143L120.532 123.538C120.789 122.262 121.076 120.998 121.394 119.745L119.456 119.253L117.517 118.761C117.183 120.078 116.88 121.408 116.611 122.749L118.571 123.143ZM119.971 117.324L121.897 117.865C122.248 116.613 122.63 115.374 123.042 114.149L121.146 113.512L119.25 112.875C118.817 114.164 118.416 115.467 118.046 116.783L119.971 117.324ZM121.804 111.631L123.684 112.315C124.128 111.094 124.602 109.887 125.105 108.695L123.263 107.918L121.42 107.14C120.891 108.393 120.392 109.662 119.925 110.947L121.804 111.631ZM124.062 106.088L125.884 106.912C126.419 105.728 126.983 104.56 127.574 103.409L125.795 102.495L124.016 101.581C123.395 102.792 122.802 104.02 122.239 105.264L124.062 106.088ZM126.728 100.734L128.484 101.692C129.106 100.552 129.756 99.4293 130.432 98.3248L128.726 97.2803L127.021 96.2359C126.31 97.397 125.627 98.5772 124.973 99.7755L126.728 100.734ZM129.79 95.5916L131.469 96.6783C132.174 95.5887 132.905 94.5178 133.663 93.4664L132.04 92.2976L130.417 91.1288C129.621 92.2339 128.852 93.3596 128.111 94.505L129.79 95.5916ZM133.225 90.6938L134.819 91.9026C135.603 90.8688 136.412 89.8552 137.246 88.8627L135.715 87.5763L134.183 86.29C133.307 87.3331 132.456 88.3985 131.632 89.485L133.225 90.6938ZM137.017 86.0648L138.516 87.3887C139.374 86.4165 140.257 85.4658 141.162 84.5377L139.731 83.1411L138.299 81.7445C137.347 82.72 136.42 83.7191 135.517 84.7409L137.017 86.0648ZM141.141 81.7306L142.538 83.1622C143.466 82.2567 144.417 81.3742 145.389 80.5156L144.065 79.0165L142.741 77.5175C141.719 78.4199 140.72 79.3474 139.744 80.299L141.141 81.7306ZM145.576 77.7146L146.863 79.246C147.855 78.4123 148.869 77.6029 149.903 76.8187L148.694 75.2253L147.485 73.6319C146.398 74.4562 145.333 75.3069 144.29 76.1831L145.576 77.7146ZM150.298 74.0397L151.466 75.6626C152.518 74.9054 153.589 74.1738 154.678 73.4686L153.592 71.7896L152.505 70.1105C151.36 70.8518 150.234 71.6209 149.129 72.4168L150.298 74.0397ZM155.28 70.7263L156.325 72.4319C157.429 71.7556 158.552 71.1059 159.692 70.484L158.734 68.7284L157.775 66.9728C156.577 67.6267 155.397 68.3097 154.236 69.0207L155.28 70.7263ZM160.495 67.7953L161.409 69.5743C162.56 68.9829 163.728 68.4194 164.912 67.8845L164.088 66.0619L163.264 64.2394C162.02 64.8019 160.792 65.3945 159.581 66.0163L160.495 67.7953ZM165.918 65.2626L166.695 67.1052C167.887 66.6022 169.094 66.128 170.315 65.6835L169.631 63.8042L168.947 61.9248C167.662 62.3924 166.393 62.891 165.14 63.42L165.918 65.2626ZM171.512 63.146L172.148 65.042C173.374 64.6304 174.613 64.2484 175.865 63.8969L175.324 61.9713L174.783 60.0458C173.467 60.4155 172.164 60.8173 170.875 61.2501L171.512 63.146ZM177.253 61.4556L177.745 63.3941C178.998 63.0762 180.262 62.7886 181.538 62.5321L181.143 60.5713L180.749 58.6106C179.408 58.8803 178.078 59.1828 176.761 59.5171L177.253 61.4556ZM183.101 60.2031L183.446 62.1731C184.718 61.9504 186 61.7584 187.292 61.598L187.046 59.6132L186.8 57.6284C185.441 57.797 184.093 57.9989 182.756 58.2331L183.101 60.2031ZM189.032 59.3918L189.229 61.3821C190.513 61.2551 191.807 61.1593 193.109 61.0953L193.011 59.0977L192.913 57.1001C191.545 57.1673 190.185 57.268 188.835 57.4015L189.032 59.3918ZM194.999 59.0245L195.049 61.0239C195.697 61.008 196.348 61 197 61V59V57C196.315 57 195.632 57.0084 194.95 57.0251L194.999 59.0245ZM197 59V61C197.652 61 198.303 61.008 198.951 61.0239L199.001 59.0245L199.05 57.0251C198.368 57.0084 197.685 57 197 57V59ZM200.989 59.0977L200.891 61.0953C202.193 61.1593 203.487 61.2551 204.771 61.3821L204.968 59.3918L205.165 57.4015C203.815 57.268 202.455 57.1673 201.087 57.1001L200.989 59.0977ZM206.954 59.6132L206.708 61.598C208 61.7584 209.282 61.9504 210.554 62.1731L210.899 60.2031L211.244 58.2331C209.907 57.9989 208.559 57.797 207.2 57.6284L206.954 59.6132ZM212.857 60.5713L212.462 62.5321C213.738 62.7886 215.002 63.0762 216.255 63.3941L216.747 61.4556L217.239 59.5171C215.922 59.1828 214.592 58.8803 213.251 58.6106L212.857 60.5713ZM218.676 61.9713L218.135 63.8969C219.387 64.2484 220.626 64.6304 221.851 65.0419L222.488 63.146L223.125 61.2501C221.836 60.8173 220.533 60.4155 219.217 60.0458L218.676 61.9713ZM224.369 63.8042L223.685 65.6835C224.906 66.128 226.113 66.6022 227.305 67.1052L228.082 65.2626L228.86 63.42C227.607 62.891 226.338 62.3924 225.053 61.9248L224.369 63.8042ZM229.912 66.0619L229.088 67.8845C230.272 68.4193 231.44 68.9829 232.591 69.5743L233.505 67.7953L234.419 66.0163C233.208 65.3945 231.98 64.8019 230.736 64.2394L229.912 66.0619ZM235.266 68.7284L234.308 70.484C235.448 71.1059 236.571 71.7556 237.675 72.4319L238.72 70.7263L239.764 69.0207C238.603 68.3097 237.423 67.6267 236.224 66.9728L235.266 68.7284ZM240.408 71.7896L239.322 73.4686C240.411 74.1738 241.482 74.9054 242.534 75.6626L243.702 74.0397L244.871 72.4168C243.766 71.6209 242.64 70.8518 241.495 70.1105L240.408 71.7896ZM245.306 75.2253L244.097 76.8187C245.131 77.6029 246.145 78.4123 247.137 79.246L248.424 77.7146L249.71 76.1831C248.667 75.3069 247.602 74.4562 246.515 73.6319L245.306 75.2253ZM249.935 79.0165L248.611 80.5156C249.583 81.3742 250.534 82.2567 251.462 83.1622L252.859 81.7306L254.256 80.299C253.28 79.3474 252.281 78.4199 251.259 77.5175L249.935 79.0165ZM254.269 83.1411L252.838 84.5377C253.743 85.4658 254.626 86.4165 255.484 87.3887L256.983 86.0648L258.483 84.7409C257.58 83.7191 256.653 82.72 255.701 81.7445L254.269 83.1411ZM258.285 87.5763L256.754 88.8627C257.588 89.8552 258.397 90.8688 259.181 91.9026L260.775 90.6938L262.368 89.485C261.544 88.3985 260.693 87.3331 259.817 86.29L258.285 87.5763ZM261.96 92.2976L260.337 93.4664C261.095 94.5178 261.826 95.5887 262.531 96.6783L264.21 95.5916L265.889 94.505C265.148 93.3596 264.379 92.2339 263.583 91.1288L261.96 92.2976ZM265.274 97.2803L263.568 98.3248C264.244 99.4293 264.894 100.552 265.516 101.692L267.272 100.734L269.027 99.7755C268.373 98.5772 267.69 97.397 266.979 96.2359L265.274 97.2803ZM268.205 102.495L266.426 103.409C267.017 104.56 267.581 105.728 268.116 106.912L269.938 106.088L271.761 105.264C271.198 104.02 270.605 102.792 269.984 101.581L268.205 102.495ZM270.737 107.918L268.895 108.695C269.398 109.887 269.872 111.094 270.316 112.315L272.196 111.631L274.075 110.947C273.608 109.662 273.109 108.393 272.58 107.14L270.737 107.918ZM272.854 113.512L270.958 114.148C271.37 115.374 271.752 116.613 272.103 117.865L274.029 117.324L275.954 116.783C275.584 115.467 275.183 114.164 274.75 112.875L272.854 113.512ZM274.544 119.253L272.606 119.745C272.924 120.998 273.211 122.262 273.468 123.538L275.429 123.143L277.389 122.749C277.12 121.408 276.817 120.078 276.483 118.761L274.544 119.253ZM275.797 125.101L273.827 125.446C274.05 126.718 274.242 128 274.402 129.292L276.387 129.046L278.372 128.8C278.203 127.441 278.001 126.093 277.767 124.756L275.797 125.101ZM276.608 131.032L274.618 131.229C274.745 132.513 274.841 133.807 274.905 135.109L276.902 135.011L278.9 134.913C278.833 133.545 278.732 132.185 278.598 130.835L276.608 131.032ZM276.975 136.999L274.976 137.049C274.992 137.697 275 138.348 275 139H277H279C279 138.315 278.992 137.632 278.975 136.95L276.975 136.999ZM277 139H275C275 139.652 274.992 140.303 274.976 140.951L276.975 141.001L278.975 141.05C278.992 140.368 279 139.685 279 139H277ZM276.902 142.989L274.905 142.891C274.841 144.193 274.745 145.487 274.618 146.771L276.608 146.968L278.598 147.165C278.732 145.815 278.833 144.455 278.9 143.087L276.902 142.989ZM276.387 148.954L274.402 148.708C274.242 150 274.05 151.282 273.827 152.554L275.797 152.899L277.767 153.244C278.001 151.907 278.203 150.559 278.372 149.2L276.387 148.954ZM275.429 154.857L273.468 154.462C273.211 155.738 272.924 157.002 272.606 158.255L274.544 158.747L276.483 159.239C276.817 157.922 277.12 156.592 277.389 155.251L275.429 154.857ZM274.029 160.676L272.103 160.135C271.752 161.387 271.37 162.626 270.958 163.851L272.854 164.488L274.75 165.125C275.183 163.836 275.584 162.533 275.954 161.217L274.029 160.676ZM272.196 166.369L270.316 165.685C269.872 166.906 269.398 168.113 268.895 169.305L270.737 170.082L272.58 170.86C273.109 169.607 273.608 168.338 274.075 167.053L272.196 166.369ZM269.938 171.912L268.116 171.088C267.581 172.272 267.017 173.44 266.426 174.591L268.205 175.505L269.984 176.419C270.605 175.208 271.198 173.98 271.761 172.736L269.938 171.912ZM267.272 177.266L265.516 176.308C264.894 177.448 264.244 178.571 263.568 179.675L265.274 180.72L266.979 181.764C267.69 180.603 268.373 179.423 269.027 178.224L267.272 177.266ZM264.21 182.408L262.531 181.322C261.826 182.411 261.095 183.482 260.337 184.534L261.96 185.702L263.583 186.871C264.379 185.766 265.148 184.64 265.889 183.495L264.21 182.408ZM260.775 187.306L259.181 186.097C258.397 187.131 257.588 188.145 256.754 189.137L258.285 190.424L259.817 191.71C260.693 190.667 261.544 189.602 262.368 188.515L260.775 187.306ZM256.983 191.935L255.484 190.611C254.626 191.583 253.743 192.534 252.838 193.462L254.269 194.859L255.701 196.256C256.653 195.28 257.58 194.281 258.483 193.259L256.983 191.935ZM252.859 196.269L251.462 194.838C250.534 195.743 249.583 196.626 248.611 197.484L249.935 198.983L251.259 200.483C252.281 199.58 253.28 198.653 254.256 197.701L252.859 196.269ZM248.424 200.285L247.137 198.754C246.145 199.588 245.131 200.397 244.097 201.181L245.306 202.775L246.515 204.368C247.602 203.544 248.667 202.693 249.71 201.817L248.424 200.285ZM243.702 203.96L242.534 202.337C241.482 203.095 240.411 203.826 239.322 204.531L240.408 206.21L241.495 207.889C242.64 207.148 243.766 206.379 244.871 205.583L243.702 203.96ZM238.72 207.274L237.675 205.568C236.571 206.244 235.448 206.894 234.308 207.516L235.266 209.272L236.225 211.027C237.423 210.373 238.603 209.69 239.764 208.979L238.72 207.274ZM233.505 210.205L232.591 208.426C231.44 209.017 230.272 209.581 229.088 210.116L229.912 211.938L230.736 213.761C231.98 213.198 233.208 212.605 234.419 211.984L233.505 210.205ZM228.082 212.737L227.305 210.895C226.113 211.398 224.906 211.872 223.685 212.316L224.369 214.196L225.053 216.075C226.338 215.608 227.607 215.109 228.86 214.58L228.082 212.737ZM222.488 214.854L221.852 212.958C220.626 213.37 219.387 213.752 218.135 214.103L218.676 216.029L219.217 217.954C220.533 217.584 221.836 217.183 223.125 216.75L222.488 214.854ZM216.747 216.544L216.255 214.606C215.002 214.924 213.738 215.211 212.462 215.468L212.857 217.429L213.251 219.389C214.592 219.12 215.922 218.817 217.239 218.483L216.747 216.544ZM210.899 217.797L210.554 215.827C209.282 216.05 208 216.242 206.708 216.402L206.954 218.387L207.2 220.372C208.559 220.203 209.907 220.001 211.244 219.767L210.899 217.797ZM204.968 218.608L204.771 216.618C203.487 216.745 202.193 216.841 200.891 216.905L200.989 218.902L201.087 220.9C202.455 220.833 203.815 220.732 205.165 220.598L204.968 218.608ZM199.001 218.975L198.951 216.976C198.303 216.992 197.652 217 197 217V219V221C197.685 221 198.368 220.992 199.05 220.975L199.001 218.975Z" fill="#242424" fill-opacity="0.08" mask="url(#path-6-inside-1_4286_7314)"/>
</g>
<g opacity="0.4">
<mask id="path-8-inside-2_4286_7314" fill="white">
<path d="M134.5 139C134.5 104.482 162.482 76.5 197 76.5V76.5C231.518 76.5 259.5 104.482 259.5 139V139C259.5 173.518 231.518 201.5 197 201.5V201.5C162.482 201.5 134.5 173.518 134.5 139V139Z"/>
</mask>
<path d="M197 201.5V200.5C196.325 200.5 195.653 200.489 194.983 200.468L194.951 201.467L194.918 202.467C195.61 202.489 196.303 202.5 197 202.5V201.5ZM192.908 201.368L192.973 200.37C191.625 200.283 190.289 200.153 188.966 199.98L188.837 200.972L188.708 201.963C190.073 202.141 191.453 202.276 192.844 202.366L192.908 201.368ZM186.815 200.674L186.976 199.687C185.645 199.469 184.328 199.208 183.028 198.906L182.801 199.88L182.575 200.854C183.918 201.166 185.278 201.436 186.653 201.661L186.815 200.674ZM180.818 199.385L181.076 198.419C179.775 198.071 178.49 197.681 177.224 197.252L176.903 198.199L176.581 199.146C177.889 199.589 179.215 199.992 180.56 200.351L180.818 199.385ZM174.978 197.51L175.33 196.574C174.071 196.1 172.831 195.585 171.612 195.032L171.199 195.943L170.786 196.853C172.044 197.424 173.325 197.956 174.625 198.446L174.978 197.51ZM169.351 195.067L169.794 194.171C168.588 193.575 167.405 192.941 166.246 192.27L165.745 193.136L165.244 194.001C166.441 194.694 167.663 195.349 168.908 195.964L169.351 195.067ZM163.992 192.083L164.521 191.234C163.38 190.523 162.265 189.776 161.176 188.995L160.593 189.807L160.01 190.619C161.134 191.426 162.286 192.198 163.463 192.931L163.992 192.083ZM158.951 188.587L159.56 187.795C158.496 186.976 157.458 186.124 156.45 185.239L155.791 185.991L155.131 186.742C156.172 187.656 157.242 188.536 158.342 189.38L158.951 188.587ZM154.275 184.617L154.959 183.887C153.98 182.969 153.031 182.02 152.113 181.041L151.383 181.725L150.653 182.408C151.601 183.419 152.581 184.399 153.592 185.347L154.275 184.617ZM150.009 180.209L150.761 179.55C149.876 178.542 149.024 177.504 148.205 176.44L147.413 177.049L146.62 177.658C147.464 178.758 148.344 179.828 149.258 180.869L150.009 180.209ZM146.193 175.407L147.005 174.824C146.224 173.735 145.477 172.62 144.766 171.479L143.917 172.008L143.069 172.537C143.802 173.714 144.574 174.866 145.381 175.99L146.193 175.407ZM142.864 170.255L143.73 169.754C143.059 168.595 142.425 167.412 141.829 166.206L140.933 166.649L140.036 167.092C140.651 168.337 141.306 169.559 141.999 170.756L142.864 170.255ZM140.057 164.801L140.968 164.388C140.415 163.169 139.9 161.929 139.426 160.67L138.49 161.022L137.554 161.375C138.044 162.675 138.576 163.956 139.147 165.214L140.057 164.801ZM137.801 159.097L138.748 158.776C138.319 157.51 137.929 156.225 137.581 154.924L136.615 155.182L135.649 155.44C136.008 156.785 136.411 158.111 136.854 159.419L137.801 159.097ZM136.12 153.199L137.094 152.972C136.792 151.672 136.531 150.355 136.313 149.024L135.326 149.186L134.339 149.347C134.564 150.722 134.834 152.082 135.146 153.425L136.12 153.199ZM135.028 147.163L136.02 147.034C135.847 145.711 135.717 144.375 135.63 143.027L134.632 143.092L133.634 143.156C133.724 144.547 133.859 145.927 134.037 147.292L135.028 147.163ZM134.533 141.049L135.532 141.017C135.511 140.348 135.5 139.675 135.5 139H134.5H133.5C133.5 139.697 133.511 140.39 133.533 141.082L134.533 141.049ZM134.5 139H135.5C135.5 138.325 135.511 137.653 135.532 136.983L134.533 136.951L133.533 136.918C133.511 137.61 133.5 138.303 133.5 139H134.5ZM134.632 134.908L135.63 134.973C135.717 133.625 135.847 132.289 136.02 130.966L135.028 130.837L134.037 130.708C133.859 132.073 133.724 133.453 133.634 134.844L134.632 134.908ZM135.326 128.815L136.313 128.976C136.531 127.645 136.792 126.328 137.094 125.028L136.12 124.801L135.146 124.575C134.834 125.918 134.564 127.278 134.339 128.653L135.326 128.815ZM136.615 122.818L137.581 123.076C137.929 121.775 138.319 120.49 138.748 119.224L137.801 118.903L136.854 118.581C136.411 119.889 136.008 121.215 135.649 122.56L136.615 122.818ZM138.49 116.978L139.426 117.33C139.9 116.071 140.415 114.831 140.968 113.612L140.057 113.199L139.147 112.786C138.576 114.044 138.044 115.325 137.554 116.625L138.49 116.978ZM140.933 111.351L141.829 111.794C142.425 110.588 143.059 109.405 143.73 108.246L142.864 107.745L141.999 107.244C141.306 108.441 140.651 109.663 140.036 110.908L140.933 111.351ZM143.917 105.992L144.766 106.521C145.477 105.38 146.224 104.265 147.005 103.176L146.193 102.593L145.381 102.01C144.574 103.134 143.802 104.286 143.069 105.463L143.917 105.992ZM147.413 100.951L148.205 101.56C149.024 100.496 149.876 99.4583 150.761 98.4502L150.009 97.7906L149.258 97.1309C148.344 98.1716 147.464 99.2424 146.62 100.342L147.413 100.951ZM151.383 96.2755L152.113 96.9592C153.031 95.9799 153.98 95.0306 154.959 94.1129L154.275 93.3832L153.592 92.6535C152.581 93.6008 151.601 94.5807 150.653 95.5917L151.383 96.2755ZM155.791 92.0092L156.45 92.7608C157.458 91.876 158.496 91.0237 159.56 90.2055L158.951 89.4125L158.342 88.6196C157.242 89.4643 156.172 90.3442 155.131 91.2576L155.791 92.0092ZM160.593 88.1929L161.176 89.0053C162.265 88.2236 163.38 87.4767 164.521 86.766L163.992 85.9173L163.463 85.0686C162.286 85.8023 161.134 86.5735 160.01 87.3805L160.593 88.1929ZM165.745 84.8643L166.246 85.7298C167.405 85.0591 168.588 84.4251 169.794 83.8294L169.351 82.9329L168.908 82.0363C167.663 82.6514 166.441 83.3061 165.244 83.9987L165.745 84.8643ZM171.199 82.0573L171.612 82.9679C172.831 82.4149 174.071 81.9004 175.33 81.4262L174.978 80.4903L174.625 79.5545C173.324 80.0443 172.044 80.5756 170.786 81.1467L171.199 82.0573ZM176.903 79.8014L177.224 80.7484C178.49 80.3187 179.775 79.9292 181.076 79.5813L180.818 78.6152L180.56 77.6491C179.215 78.0084 177.889 78.4107 176.581 78.8545L176.903 79.8014ZM182.801 78.1199L183.028 79.0939C184.328 78.7917 185.645 78.5308 186.976 78.3126L186.814 77.3258L186.653 76.339C185.278 76.5643 183.918 76.8337 182.575 77.1458L182.801 78.1199ZM188.837 77.0283L188.966 78.0199C190.289 77.8473 191.625 77.7168 192.973 77.6297L192.908 76.6318L192.844 75.6339C191.453 75.7238 190.073 75.8585 188.708 76.0367L188.837 77.0283ZM194.951 76.533L194.983 77.5324C195.652 77.5109 196.325 77.5 197 77.5V76.5V75.5C196.303 75.5 195.61 75.5112 194.918 75.5335L194.951 76.533ZM197 76.5V77.5C197.675 77.5 198.347 77.5109 199.017 77.5324L199.049 76.533L199.082 75.5335C198.39 75.5112 197.697 75.5 197 75.5V76.5ZM201.092 76.6318L201.027 77.6297C202.375 77.7168 203.711 77.8473 205.034 78.0199L205.163 77.0283L205.292 76.0367C203.927 75.8585 202.547 75.7238 201.156 75.6339L201.092 76.6318ZM207.185 77.3258L207.024 78.3126C208.355 78.5308 209.672 78.7917 210.972 79.0939L211.199 78.1199L211.425 77.1458C210.082 76.8337 208.722 76.5643 207.347 76.339L207.185 77.3258ZM213.182 78.6152L212.924 79.5812C214.225 79.9292 215.51 80.3187 216.776 80.7484L217.097 79.8014L217.419 78.8545C216.111 78.4107 214.785 78.0084 213.44 77.6491L213.182 78.6152ZM219.022 80.4903L218.67 81.4262C219.929 81.9004 221.169 82.4149 222.388 82.9679L222.801 82.0573L223.214 81.1467C221.956 80.5756 220.675 80.0443 219.375 79.5545L219.022 80.4903ZM224.649 82.9329L224.206 83.8294C225.412 84.4251 226.595 85.0591 227.754 85.7298L228.255 84.8643L228.756 83.9987C227.559 83.3061 226.337 82.6514 225.092 82.0363L224.649 82.9329ZM230.008 85.9173L229.479 86.766C230.62 87.4766 231.735 88.2236 232.824 89.0053L233.407 88.1929L233.99 87.3805C232.866 86.5735 231.714 85.8023 230.537 85.0686L230.008 85.9173ZM235.049 89.4125L234.44 90.2055C235.504 91.0237 236.542 91.876 237.55 92.7608L238.209 92.0092L238.869 91.2576C237.828 90.3442 236.758 89.4643 235.658 88.6196L235.049 89.4125ZM239.725 93.3832L239.041 94.1129C240.02 95.0306 240.969 95.9799 241.887 96.9592L242.617 96.2755L243.347 95.5917C242.399 94.5807 241.419 93.6008 240.408 92.6535L239.725 93.3832ZM243.991 97.7906L243.239 98.4502C244.124 99.4583 244.976 100.496 245.795 101.56L246.587 100.951L247.38 100.342C246.536 99.2424 245.656 98.1716 244.742 97.1309L243.991 97.7906ZM247.807 102.593L246.995 103.176C247.776 104.265 248.523 105.38 249.234 106.521L250.083 105.992L250.931 105.463C250.198 104.286 249.426 103.134 248.619 102.01L247.807 102.593ZM251.136 107.745L250.27 108.246C250.941 109.405 251.575 110.588 252.171 111.794L253.067 111.351L253.964 110.908C253.349 109.663 252.694 108.441 252.001 107.244L251.136 107.745ZM253.943 113.199L253.032 113.612C253.585 114.831 254.1 116.071 254.574 117.33L255.51 116.978L256.446 116.625C255.956 115.324 255.424 114.044 254.853 112.786L253.943 113.199ZM256.199 118.903L255.252 119.224C255.681 120.49 256.071 121.775 256.419 123.076L257.385 122.818L258.351 122.56C257.992 121.215 257.589 119.889 257.146 118.581L256.199 118.903ZM257.88 124.801L256.906 125.028C257.208 126.328 257.469 127.645 257.687 128.976L258.674 128.814L259.661 128.653C259.436 127.278 259.166 125.918 258.854 124.575L257.88 124.801ZM258.972 130.837L257.98 130.966C258.153 132.289 258.283 133.625 258.37 134.973L259.368 134.908L260.366 134.844C260.276 133.453 260.141 132.073 259.963 130.708L258.972 130.837ZM259.467 136.951L258.468 136.983C258.489 137.652 258.5 138.325 258.5 139H259.5H260.5C260.5 138.303 260.489 137.61 260.467 136.918L259.467 136.951ZM259.5 139H258.5C258.5 139.675 258.489 140.347 258.468 141.017L259.467 141.049L260.467 141.082C260.489 140.39 260.5 139.697 260.5 139H259.5ZM259.368 143.092L258.37 143.027C258.283 144.375 258.153 145.711 257.98 147.034L258.972 147.163L259.963 147.292C260.141 145.927 260.276 144.547 260.366 143.156L259.368 143.092ZM258.674 149.185L257.687 149.024C257.469 150.355 257.208 151.672 256.906 152.972L257.88 153.199L258.854 153.425C259.166 152.082 259.436 150.722 259.661 149.347L258.674 149.185ZM257.385 155.182L256.419 154.924C256.071 156.225 255.681 157.51 255.252 158.776L256.199 159.097L257.146 159.419C257.589 158.111 257.992 156.785 258.351 155.44L257.385 155.182ZM255.51 161.022L254.574 160.67C254.1 161.929 253.585 163.169 253.032 164.388L253.943 164.801L254.853 165.214C255.424 163.956 255.956 162.675 256.446 161.375L255.51 161.022ZM253.067 166.649L252.171 166.206C251.575 167.412 250.941 168.595 250.27 169.754L251.136 170.255L252.001 170.756C252.694 169.559 253.349 168.337 253.964 167.092L253.067 166.649ZM250.083 172.008L249.234 171.479C248.523 172.62 247.776 173.735 246.995 174.824L247.807 175.407L248.619 175.99C249.426 174.866 250.198 173.714 250.931 172.537L250.083 172.008ZM246.587 177.049L245.795 176.44C244.976 177.504 244.124 178.542 243.239 179.55L243.991 180.209L244.742 180.869C245.656 179.828 246.536 178.758 247.38 177.658L246.587 177.049ZM242.617 181.725L241.887 181.041C240.969 182.02 240.02 182.969 239.041 183.887L239.725 184.617L240.408 185.347C241.419 184.399 242.399 183.419 243.347 182.408L242.617 181.725ZM238.209 185.991L237.55 185.239C236.542 186.124 235.504 186.976 234.44 187.795L235.049 188.587L235.658 189.38C236.758 188.536 237.828 187.656 238.869 186.742L238.209 185.991ZM233.407 189.807L232.824 188.995C231.735 189.776 230.62 190.523 229.479 191.234L230.008 192.083L230.537 192.931C231.714 192.198 232.866 191.426 233.99 190.619L233.407 189.807ZM228.255 193.136L227.754 192.27C226.595 192.941 225.412 193.575 224.206 194.171L224.649 195.067L225.092 195.964C226.337 195.349 227.559 194.694 228.756 194.001L228.255 193.136ZM222.801 195.943L222.388 195.032C221.169 195.585 219.929 196.1 218.67 196.574L219.022 197.51L219.375 198.446C220.675 197.956 221.956 197.424 223.214 196.853L222.801 195.943ZM217.097 198.199L216.776 197.252C215.51 197.681 214.225 198.071 212.924 198.419L213.182 199.385L213.44 200.351C214.785 199.992 216.111 199.589 217.419 199.146L217.097 198.199ZM211.199 199.88L210.972 198.906C209.672 199.208 208.355 199.469 207.024 199.687L207.186 200.674L207.347 201.661C208.722 201.436 210.082 201.166 211.425 200.854L211.199 199.88ZM205.163 200.972L205.034 199.98C203.711 200.153 202.375 200.283 201.027 200.37L201.092 201.368L201.156 202.366C202.547 202.276 203.927 202.141 205.292 201.963L205.163 200.972ZM199.049 201.467L199.017 200.468C198.348 200.489 197.675 200.5 197 200.5V201.5V202.5C197.697 202.5 198.39 202.489 199.082 202.467L199.049 201.467ZM197 201.5V199.5C196.336 199.5 195.674 199.489 195.015 199.468L194.951 201.467L194.886 203.466C195.588 203.489 196.293 203.5 197 203.5V201.5ZM192.908 201.368L193.037 199.372C191.711 199.287 190.397 199.158 189.096 198.989L188.837 200.972L188.578 202.955C189.965 203.136 191.366 203.273 192.779 203.364L192.908 201.368ZM186.815 200.674L187.138 198.701C185.829 198.486 184.533 198.229 183.254 197.932L182.801 199.88L182.349 201.828C183.713 202.145 185.095 202.419 186.491 202.648L186.815 200.674ZM180.818 199.385L181.334 197.453C180.054 197.11 178.791 196.727 177.545 196.305L176.903 198.199L176.26 200.092C177.588 200.543 178.936 200.952 180.301 201.317L180.818 199.385ZM174.978 197.51L175.683 195.638C174.444 195.171 173.224 194.665 172.025 194.121L171.199 195.943L170.372 197.764C171.651 198.344 172.951 198.884 174.273 199.381L174.978 197.51ZM169.351 195.067L170.237 193.274C169.051 192.688 167.887 192.064 166.747 191.405L165.745 193.136L164.743 194.867C165.959 195.57 167.2 196.235 168.465 196.86L169.351 195.067ZM163.992 192.083L165.05 190.385C163.928 189.686 162.83 188.951 161.759 188.182L160.593 189.807L159.427 191.432C160.568 192.251 161.738 193.035 162.934 193.78L163.992 192.083ZM158.951 188.587L160.17 187.002C159.122 186.197 158.102 185.358 157.11 184.488L155.791 185.991L154.471 187.494C155.528 188.422 156.616 189.315 157.732 190.173L158.951 188.587ZM154.275 184.617L155.643 183.157C154.679 182.255 153.745 181.321 152.843 180.357L151.383 181.725L149.924 183.092C150.886 184.119 151.881 185.114 152.908 186.076L154.275 184.617ZM150.009 180.209L151.512 178.89C150.642 177.898 149.803 176.878 148.998 175.83L147.413 177.049L145.827 178.268C146.685 179.384 147.578 180.472 148.506 181.529L150.009 180.209ZM146.193 175.407L147.818 174.241C147.049 173.17 146.314 172.072 145.615 170.95L143.917 172.008L142.22 173.066C142.965 174.262 143.749 175.432 144.568 176.573L146.193 175.407ZM142.864 170.255L144.595 169.253C143.936 168.113 143.312 166.949 142.726 165.763L140.933 166.649L139.14 167.535C139.765 168.8 140.43 170.041 141.133 171.257L142.864 170.255ZM140.057 164.801L141.879 163.975C141.335 162.776 140.829 161.556 140.362 160.318L138.49 161.022L136.619 161.727C137.116 163.049 137.656 164.349 138.236 165.628L140.057 164.801ZM137.801 159.097L139.695 158.455C139.273 157.209 138.89 155.946 138.547 154.666L136.615 155.182L134.683 155.699C135.048 157.064 135.457 158.412 135.908 159.74L137.801 159.097ZM136.12 153.199L138.068 152.746C137.771 151.467 137.514 150.171 137.299 148.862L135.326 149.186L133.352 149.509C133.581 150.905 133.855 152.287 134.172 153.651L136.12 153.199ZM135.028 147.163L137.011 146.904C136.842 145.603 136.713 144.289 136.628 142.963L134.632 143.092L132.636 143.221C132.727 144.634 132.864 146.035 133.045 147.422L135.028 147.163ZM134.533 141.049L136.532 140.985C136.511 140.326 136.5 139.664 136.5 139H134.5H132.5C132.5 139.707 132.511 140.412 132.534 141.114L134.533 141.049ZM134.5 139H136.5C136.5 138.336 136.511 137.674 136.532 137.015L134.533 136.951L132.534 136.886C132.511 137.588 132.5 138.293 132.5 139H134.5ZM134.632 134.908L136.628 135.037C136.713 133.711 136.842 132.397 137.011 131.096L135.028 130.837L133.045 130.578C132.864 131.965 132.727 133.366 132.636 134.779L134.632 134.908ZM135.326 128.815L137.299 129.138C137.514 127.829 137.771 126.533 138.068 125.254L136.12 124.801L134.172 124.349C133.855 125.713 133.581 127.095 133.352 128.491L135.326 128.815ZM136.615 122.818L138.547 123.334C138.89 122.054 139.273 120.791 139.695 119.545L137.801 118.903L135.908 118.26C135.457 119.588 135.048 120.936 134.683 122.301L136.615 122.818ZM138.49 116.978L140.362 117.683C140.829 116.444 141.335 115.224 141.879 114.025L140.057 113.199L138.236 112.372C137.656 113.651 137.116 114.951 136.619 116.273L138.49 116.978ZM140.933 111.351L142.726 112.237C143.312 111.051 143.936 109.887 144.595 108.747L142.864 107.745L141.133 106.743C140.43 107.959 139.765 109.2 139.14 110.465L140.933 111.351ZM143.917 105.992L145.615 107.05C146.314 105.928 147.049 104.83 147.818 103.759L146.193 102.593L144.568 101.427C143.749 102.568 142.965 103.738 142.22 104.934L143.917 105.992ZM147.413 100.951L148.998 102.17C149.803 101.122 150.642 100.102 151.512 99.1099L150.009 97.7906L148.506 96.4713C147.578 97.5283 146.685 98.6159 145.827 99.7323L147.413 100.951ZM151.383 96.2755L152.843 97.643C153.745 96.6794 154.679 95.7455 155.643 94.8427L154.275 93.3832L152.908 91.9238C151.881 92.8859 150.886 93.8812 149.924 94.908L151.383 96.2755ZM155.791 92.0092L157.11 93.5124C158.102 92.6419 159.122 91.8034 160.17 90.9984L158.951 89.4125L157.732 87.8267C156.616 88.6847 155.528 89.5784 154.471 90.506L155.791 92.0092ZM160.593 88.1929L161.759 89.8176C162.83 89.0486 163.928 88.3138 165.05 87.6147L163.992 85.9173L162.934 84.2199C161.738 84.9652 160.568 85.7485 159.427 86.5682L160.593 88.1929ZM165.745 84.8643L166.747 86.5954C167.887 85.9355 169.051 85.3119 170.237 84.726L169.351 82.9329L168.465 81.1398C167.2 81.7646 165.959 82.4296 164.743 83.1332L165.745 84.8643ZM171.199 82.0573L172.025 83.8786C173.224 83.3345 174.444 82.8285 175.682 82.362L174.978 80.4903L174.273 78.6186C172.951 79.1162 171.651 79.6559 170.372 80.2361L171.199 82.0573ZM176.903 79.8014L177.545 81.6953C178.791 81.2727 180.054 80.8895 181.334 80.5473L180.818 78.6152L180.301 76.683C178.936 77.048 177.588 77.4567 176.26 77.9075L176.903 79.8014ZM182.801 78.1199L183.254 80.068C184.533 79.7708 185.829 79.5141 187.138 79.2995L186.814 77.3258L186.491 75.3522C185.095 75.581 183.713 75.8547 182.349 76.1717L182.801 78.1199ZM188.837 77.0283L189.096 79.0115C190.397 78.8417 191.711 78.7133 193.037 78.6276L192.908 76.6318L192.779 74.636C191.366 74.7273 189.965 74.8641 188.578 75.0451L188.837 77.0283ZM194.951 76.533L195.015 78.5319C195.674 78.5107 196.336 78.5 197 78.5V76.5V74.5C196.293 74.5 195.588 74.5114 194.886 74.534L194.951 76.533ZM197 76.5V78.5C197.664 78.5 198.326 78.5107 198.985 78.5319L199.049 76.533L199.114 74.534C198.412 74.5114 197.707 74.5 197 74.5V76.5ZM201.092 76.6318L200.963 78.6276C202.289 78.7133 203.603 78.8417 204.904 79.0115L205.163 77.0283L205.422 75.0451C204.035 74.8641 202.634 74.7273 201.221 74.636L201.092 76.6318ZM207.185 77.3258L206.862 79.2995C208.171 79.5141 209.467 79.7707 210.746 80.068L211.199 78.1199L211.651 76.1717C210.287 75.8547 208.905 75.581 207.509 75.3521L207.185 77.3258ZM213.182 78.6152L212.666 80.5473C213.946 80.8895 215.209 81.2727 216.455 81.6953L217.097 79.8014L217.74 77.9075C216.412 77.4567 215.064 77.048 213.699 76.683L213.182 78.6152ZM219.022 80.4903L218.317 82.362C219.556 82.8285 220.776 83.3345 221.975 83.8785L222.801 82.0573L223.628 80.2361C222.349 79.6559 221.049 79.1162 219.727 78.6186L219.022 80.4903ZM224.649 82.9329L223.763 84.726C224.949 85.3119 226.113 85.9355 227.253 86.5954L228.255 84.8643L229.257 83.1332C228.041 82.4296 226.8 81.7646 225.535 81.1398L224.649 82.9329ZM230.008 85.9173L228.95 87.6147C230.072 88.3138 231.17 89.0486 232.241 89.8176L233.407 88.1929L234.573 86.5682C233.432 85.7485 232.262 84.9652 231.066 84.2199L230.008 85.9173ZM235.049 89.4125L233.83 90.9984C234.878 91.8034 235.898 92.6419 236.89 93.5123L238.209 92.0092L239.529 90.506C238.472 89.5784 237.384 88.6847 236.268 87.8267L235.049 89.4125ZM239.725 93.3832L238.357 94.8427C239.321 95.7455 240.255 96.6794 241.157 97.643L242.617 96.2755L244.076 94.908C243.114 93.8812 242.119 92.8859 241.092 91.9238L239.725 93.3832ZM243.991 97.7906L242.488 99.1099C243.358 100.102 244.197 101.122 245.002 102.17L246.587 100.951L248.173 99.7323C247.315 98.6158 246.422 97.5283 245.494 96.4713L243.991 97.7906ZM247.807 102.593L246.182 103.759C246.951 104.83 247.686 105.928 248.385 107.05L250.083 105.992L251.78 104.934C251.035 103.738 250.251 102.568 249.432 101.427L247.807 102.593ZM251.136 107.745L249.405 108.747C250.064 109.887 250.688 111.051 251.274 112.237L253.067 111.351L254.86 110.465C254.235 109.2 253.57 107.959 252.867 106.743L251.136 107.745ZM253.943 113.199L252.121 114.025C252.665 115.224 253.171 116.444 253.638 117.682L255.51 116.978L257.381 116.273C256.884 114.951 256.344 113.651 255.764 112.372L253.943 113.199ZM256.199 118.903L254.305 119.545C254.727 120.791 255.11 122.054 255.453 123.334L257.385 122.818L259.317 122.301C258.952 120.936 258.543 119.588 258.092 118.26L256.199 118.903ZM257.88 124.801L255.932 125.254C256.229 126.533 256.486 127.829 256.701 129.138L258.674 128.814L260.648 128.491C260.419 127.095 260.145 125.713 259.828 124.349L257.88 124.801ZM258.972 130.837L256.989 131.096C257.158 132.397 257.287 133.711 257.372 135.037L259.368 134.908L261.364 134.779C261.273 133.366 261.136 131.965 260.955 130.578L258.972 130.837ZM259.467 136.951L257.468 137.015C257.489 137.674 257.5 138.336 257.5 139H259.5H261.5C261.5 138.293 261.489 137.588 261.466 136.886L259.467 136.951ZM259.5 139H257.5C257.5 139.664 257.489 140.326 257.468 140.985L259.467 141.049L261.466 141.114C261.489 140.412 261.5 139.707 261.5 139H259.5ZM259.368 143.092L257.372 142.963C257.287 144.289 257.158 145.603 256.989 146.904L258.972 147.163L260.955 147.422C261.136 146.035 261.273 144.634 261.364 143.221L259.368 143.092ZM258.674 149.185L256.701 148.862C256.486 150.171 256.229 151.467 255.932 152.746L257.88 153.199L259.828 153.651C260.145 152.287 260.419 150.905 260.648 149.509L258.674 149.185ZM257.385 155.182L255.453 154.666C255.11 155.946 254.727 157.209 254.305 158.455L256.199 159.097L258.092 159.74C258.543 158.412 258.952 157.064 259.317 155.699L257.385 155.182ZM255.51 161.022L253.638 160.317C253.171 161.556 252.665 162.776 252.121 163.975L253.943 164.801L255.764 165.628C256.344 164.349 256.884 163.049 257.381 161.727L255.51 161.022ZM253.067 166.649L251.274 165.763C250.688 166.949 250.064 168.113 249.405 169.253L251.136 170.255L252.867 171.257C253.57 170.041 254.235 168.8 254.86 167.535L253.067 166.649ZM250.083 172.008L248.385 170.95C247.686 172.072 246.951 173.17 246.182 174.241L247.807 175.407L249.432 176.573C250.251 175.432 251.035 174.262 251.78 173.066L250.083 172.008ZM246.587 177.049L245.002 175.83C244.197 176.878 243.358 177.898 242.488 178.89L243.991 180.209L245.494 181.529C246.422 180.472 247.315 179.384 248.173 178.268L246.587 177.049ZM242.617 181.725L241.157 180.357C240.255 181.321 239.321 182.255 238.357 183.157L239.725 184.617L241.092 186.076C242.119 185.114 243.114 184.119 244.076 183.092L242.617 181.725ZM238.209 185.991L236.89 184.488C235.898 185.358 234.878 186.197 233.83 187.002L235.049 188.587L236.268 190.173C237.384 189.315 238.472 188.422 239.529 187.494L238.209 185.991ZM233.407 189.807L232.241 188.182C231.17 188.951 230.072 189.686 228.95 190.385L230.008 192.083L231.066 193.78C232.262 193.035 233.432 192.251 234.573 191.432L233.407 189.807ZM228.255 193.136L227.253 191.405C226.113 192.064 224.949 192.688 223.763 193.274L224.649 195.067L225.535 196.86C226.8 196.235 228.041 195.57 229.257 194.867L228.255 193.136ZM222.801 195.943L221.975 194.121C220.776 194.665 219.556 195.171 218.318 195.638L219.022 197.51L219.727 199.381C221.049 198.884 222.349 198.344 223.628 197.764L222.801 195.943ZM217.097 198.199L216.455 196.305C215.209 196.727 213.946 197.11 212.666 197.453L213.182 199.385L213.699 201.317C215.064 200.952 216.412 200.543 217.74 200.092L217.097 198.199ZM211.199 199.88L210.746 197.932C209.467 198.229 208.171 198.486 206.862 198.701L207.186 200.674L207.509 202.648C208.905 202.419 210.287 202.145 211.651 201.828L211.199 199.88ZM205.163 200.972L204.904 198.989C203.603 199.158 202.289 199.287 200.963 199.372L201.092 201.368L201.221 203.364C202.634 203.273 204.035 203.136 205.422 202.955L205.163 200.972ZM199.049 201.467L198.985 199.468C198.326 199.489 197.664 199.5 197 199.5V201.5V203.5C197.707 203.5 198.412 203.489 199.114 203.466L199.049 201.467Z" fill="#242424" fill-opacity="0.08" mask="url(#path-8-inside-2_4286_7314)"/>
</g>
<g opacity="0.65" filter="url(#filter0_d_4286_7314)">
<mask id="path-10-inside-3_4286_7314" fill="white">
<path d="M152 139C152 114.147 172.147 94 197 94V94C221.853 94 242 114.147 242 139V139C242 163.853 221.853 184 197 184V184C172.147 184 152 163.853 152 139V139Z"/>
</mask>
<path d="M152 139C152 114.147 172.147 94 197 94V94C221.853 94 242 114.147 242 139V139C242 163.853 221.853 184 197 184V184C172.147 184 152 163.853 152 139V139Z" fill="white" fill-opacity="0.01" shape-rendering="crispEdges"/>
<path d="M197 184V183C196.356 183 195.715 182.986 195.078 182.959L195.035 183.958L194.992 184.957C195.658 184.986 196.327 185 197 185V184ZM193.075 183.831L193.161 182.835C191.875 182.724 190.606 182.557 189.354 182.338L189.182 183.323L189.009 184.308C190.318 184.537 191.645 184.711 192.989 184.827L193.075 183.831ZM187.256 182.942L187.472 181.966C186.215 181.688 184.978 181.357 183.765 180.975L183.464 181.929L183.164 182.882C184.433 183.282 185.726 183.629 187.04 183.919L187.256 182.942ZM181.605 181.298L181.947 180.358C180.739 179.918 179.556 179.427 178.401 178.887L177.978 179.794L177.554 180.7C178.763 181.264 180 181.778 181.263 182.237L181.605 181.298ZM176.217 178.924L176.68 178.037C175.542 177.444 174.433 176.802 173.357 176.115L172.819 176.958L172.281 177.8C173.406 178.519 174.565 179.19 175.755 179.81L176.217 178.924ZM171.187 175.865L171.761 175.047C170.712 174.311 169.697 173.53 168.717 172.707L168.074 173.473L167.431 174.239C168.455 175.099 169.516 175.915 170.613 176.684L171.187 175.865ZM166.598 172.178L167.274 171.441C166.33 170.575 165.425 169.67 164.559 168.726L163.822 169.402L163.085 170.077C163.989 171.064 164.936 172.011 165.923 172.915L166.598 172.178ZM162.527 167.926L163.293 167.283C162.47 166.303 161.689 165.288 160.953 164.239L160.135 164.813L159.316 165.387C160.085 166.484 160.901 167.545 161.761 168.569L162.527 167.926ZM159.042 163.181L159.885 162.643C159.198 161.567 158.556 160.458 157.963 159.32L157.076 159.783L156.19 160.245C156.81 161.435 157.481 162.594 158.2 163.719L159.042 163.181ZM156.206 158.022L157.113 157.599C156.573 156.444 156.082 155.261 155.642 154.053L154.702 154.395L153.763 154.737C154.222 156 154.736 157.237 155.3 158.446L156.206 158.022ZM154.071 152.536L155.025 152.235C154.643 151.022 154.312 149.785 154.034 148.528L153.058 148.744L152.081 148.96C152.371 150.274 152.718 151.567 153.118 152.836L154.071 152.536ZM152.677 146.818L153.662 146.646C153.443 145.394 153.276 144.125 153.165 142.839L152.169 142.925L151.173 143.011C151.289 144.355 151.463 145.682 151.692 146.991L152.677 146.818ZM152.042 140.965L153.041 140.922C153.014 140.285 153 139.644 153 139H152H151C151 139.673 151.014 140.342 151.043 141.008L152.042 140.965ZM152 139H153C153 138.356 153.014 137.715 153.041 137.078L152.042 137.035L151.043 136.992C151.014 137.658 151 138.327 151 139H152ZM152.169 135.075L153.165 135.161C153.276 133.875 153.443 132.606 153.662 131.354L152.677 131.182L151.692 131.009C151.463 132.318 151.289 133.645 151.173 134.989L152.169 135.075ZM153.058 129.256L154.034 129.472C154.312 128.215 154.643 126.978 155.025 125.765L154.071 125.464L153.118 125.164C152.718 126.433 152.371 127.726 152.081 129.04L153.058 129.256ZM154.702 123.605L155.642 123.947C156.082 122.739 156.573 121.556 157.113 120.401L156.206 119.978L155.3 119.554C154.736 120.763 154.222 122 153.763 123.263L154.702 123.605ZM157.076 118.217L157.963 118.68C158.556 117.542 159.198 116.433 159.885 115.357L159.042 114.819L158.2 114.281C157.481 115.406 156.81 116.565 156.19 117.755L157.076 118.217ZM160.135 113.187L160.953 113.761C161.689 112.712 162.47 111.697 163.293 110.717L162.527 110.074L161.761 109.431C160.901 110.455 160.085 111.516 159.316 112.613L160.135 113.187ZM163.822 108.598L164.559 109.274C165.425 108.33 166.33 107.425 167.274 106.559L166.598 105.822L165.923 105.085C164.936 105.989 163.989 106.936 163.085 107.923L163.822 108.598ZM168.074 104.527L168.717 105.293C169.697 104.47 170.712 103.689 171.761 102.953L171.187 102.135L170.613 101.316C169.516 102.085 168.455 102.901 167.431 103.761L168.074 104.527ZM172.819 101.042L173.357 101.885C174.433 101.198 175.542 100.556 176.68 99.9629L176.217 99.0763L175.755 98.1897C174.565 98.8101 173.406 99.4811 172.281 100.2L172.819 101.042ZM177.978 98.2065L178.401 99.1125C179.556 98.5727 180.739 98.0817 181.947 97.642L181.605 96.7023L181.263 95.7627C180 96.2225 178.763 96.736 177.554 97.3005L177.978 98.2065ZM183.464 96.0714L183.765 97.0252C184.978 96.6428 186.215 96.3117 187.472 96.0343L187.256 95.0578L187.04 94.0813C185.726 94.3714 184.433 94.7177 183.164 95.1176L183.464 96.0714ZM189.182 94.6768L189.354 95.6618C190.606 95.4425 191.875 95.2762 193.161 95.1651L193.075 94.1688L192.989 93.1725C191.645 93.2886 190.318 93.4625 189.009 93.6918L189.182 94.6768ZM195.035 94.0421L195.078 95.0412C195.715 95.0138 196.356 95 197 95V94V93C196.327 93 195.658 93.0144 194.992 93.043L195.035 94.0421ZM197 94V95C197.644 95 198.285 95.0138 198.922 95.0412L198.965 94.0421L199.008 93.043C198.342 93.0144 197.673 93 197 93V94ZM200.925 94.1688L200.839 95.1651C202.125 95.2762 203.394 95.4425 204.646 95.6618L204.818 94.6768L204.991 93.6918C203.682 93.4625 202.355 93.2886 201.011 93.1725L200.925 94.1688ZM206.744 95.0578L206.528 96.0343C207.785 96.3117 209.022 96.6428 210.235 97.0252L210.536 96.0714L210.836 95.1176C209.567 94.7177 208.274 94.3714 206.96 94.0813L206.744 95.0578ZM212.395 96.7023L212.053 97.642C213.261 98.0817 214.444 98.5727 215.599 99.1125L216.022 98.2065L216.446 97.3005C215.237 96.736 214 96.2225 212.737 95.7627L212.395 96.7023ZM217.783 99.0763L217.32 99.9629C218.458 100.556 219.567 101.198 220.643 101.885L221.181 101.042L221.719 100.2C220.594 99.4811 219.435 98.8101 218.245 98.1897L217.783 99.0763ZM222.813 102.135L222.239 102.953C223.288 103.689 224.303 104.47 225.283 105.293L225.926 104.527L226.569 103.761C225.545 102.901 224.484 102.085 223.387 101.316L222.813 102.135ZM227.402 105.822L226.726 106.559C227.67 107.425 228.575 108.33 229.441 109.274L230.178 108.598L230.915 107.923C230.011 106.936 229.064 105.989 228.077 105.085L227.402 105.822ZM231.473 110.074L230.707 110.717C231.53 111.697 232.311 112.712 233.047 113.761L233.865 113.187L234.684 112.613C233.915 111.516 233.099 110.455 232.239 109.431L231.473 110.074ZM234.958 114.819L234.115 115.357C234.802 116.433 235.444 117.542 236.037 118.68L236.924 118.217L237.81 117.755C237.19 116.565 236.519 115.406 235.8 114.281L234.958 114.819ZM237.794 119.978L236.887 120.401C237.427 121.556 237.918 122.739 238.358 123.947L239.298 123.605L240.237 123.263C239.778 122 239.264 120.763 238.7 119.554L237.794 119.978ZM239.929 125.464L238.975 125.765C239.357 126.978 239.688 128.215 239.966 129.472L240.942 129.256L241.919 129.04C241.629 127.726 241.282 126.433 240.882 125.164L239.929 125.464ZM241.323 131.182L240.338 131.354C240.557 132.606 240.724 133.875 240.835 135.161L241.831 135.075L242.827 134.989C242.711 133.645 242.537 132.318 242.308 131.009L241.323 131.182ZM241.958 137.035L240.959 137.078C240.986 137.715 241 138.356 241 139H242H243C243 138.327 242.986 137.658 242.957 136.992L241.958 137.035ZM242 139H241C241 139.644 240.986 140.285 240.959 140.922L241.958 140.965L242.957 141.008C242.986 140.342 243 139.673 243 139H242ZM241.831 142.925L240.835 142.839C240.724 144.125 240.557 145.394 240.338 146.646L241.323 146.818L242.308 146.991C242.537 145.682 242.711 144.355 242.827 143.011L241.831 142.925ZM240.942 148.744L239.966 148.528C239.688 149.785 239.357 151.022 238.975 152.235L239.929 152.536L240.882 152.836C241.282 151.567 241.629 150.274 241.919 148.96L240.942 148.744ZM239.298 154.395L238.358 154.053C237.918 155.261 237.427 156.444 236.887 157.599L237.794 158.022L238.7 158.446C239.264 157.237 239.778 156 240.237 154.737L239.298 154.395ZM236.924 159.783L236.037 159.32C235.444 160.458 234.802 161.567 234.115 162.643L234.958 163.181L235.8 163.719C236.519 162.594 237.19 161.435 237.81 160.245L236.924 159.783ZM233.865 164.813L233.047 164.239C232.311 165.288 231.53 166.303 230.707 167.283L231.473 167.926L232.239 168.569C233.099 167.545 233.915 166.484 234.684 165.387L233.865 164.813ZM230.178 169.402L229.441 168.726C228.575 169.67 227.67 170.575 226.726 171.441L227.402 172.178L228.077 172.915C229.064 172.011 230.011 171.064 230.915 170.077L230.178 169.402ZM225.926 173.473L225.283 172.707C224.303 173.53 223.288 174.311 222.239 175.047L222.813 175.865L223.387 176.684C224.484 175.915 225.545 175.099 226.569 174.239L225.926 173.473ZM221.181 176.958L220.643 176.115C219.567 176.802 218.458 177.444 217.32 178.037L217.783 178.924L218.245 179.81C219.435 179.19 220.594 178.519 221.719 177.8L221.181 176.958ZM216.022 179.794L215.599 178.887C214.444 179.427 213.261 179.918 212.053 180.358L212.395 181.298L212.737 182.237C214 181.778 215.237 181.264 216.446 180.7L216.022 179.794ZM210.536 181.929L210.235 180.975C209.022 181.357 207.785 181.688 206.528 181.966L206.744 182.942L206.96 183.919C208.274 183.629 209.567 183.282 210.836 182.882L210.536 181.929ZM204.818 183.323L204.646 182.338C203.394 182.557 202.125 182.724 200.839 182.835L200.925 183.831L201.011 184.827C202.355 184.711 203.682 184.537 204.991 184.308L204.818 183.323ZM198.965 183.958L198.922 182.959C198.285 182.986 197.644 183 197 183V184V185C197.673 185 198.342 184.986 199.008 184.957L198.965 183.958ZM197 184V182C196.37 182 195.744 181.986 195.121 181.96L195.035 183.958L194.949 185.956C195.629 185.985 196.313 186 197 186V184ZM193.075 183.831L193.247 181.839C191.99 181.73 190.75 181.567 189.527 181.353L189.182 183.323L188.837 185.293C190.174 185.527 191.53 185.705 192.903 185.824L193.075 183.831ZM187.256 182.942L187.687 180.989C186.459 180.718 185.251 180.395 184.065 180.021L183.464 181.929L182.863 183.836C184.16 184.245 185.482 184.599 186.825 184.895L187.256 182.942ZM181.605 181.298L182.289 179.418C181.109 178.989 179.953 178.509 178.824 177.981L177.978 179.794L177.131 181.606C178.366 182.182 179.63 182.707 180.921 183.177L181.605 181.298ZM176.217 178.924L177.142 177.15C176.03 176.571 174.947 175.943 173.895 175.272L172.819 176.958L171.743 178.643C172.893 179.377 174.077 180.063 175.292 180.697L176.217 178.924ZM171.187 175.865L172.336 174.228C171.31 173.509 170.318 172.746 169.361 171.942L168.074 173.473L166.788 175.004C167.834 175.883 168.918 176.717 170.039 177.503L171.187 175.865ZM166.598 172.178L167.95 170.704C167.028 169.858 166.142 168.972 165.296 168.05L163.822 169.402L162.348 170.753C163.272 171.761 164.239 172.728 165.247 173.652L166.598 172.178ZM162.527 167.926L164.058 166.639C163.254 165.682 162.491 164.69 161.772 163.664L160.135 164.813L158.497 165.961C159.283 167.082 160.117 168.166 160.996 169.212L162.527 167.926ZM159.042 163.181L160.728 162.105C160.057 161.053 159.429 159.97 158.85 158.858L157.076 159.783L155.303 160.708C155.937 161.923 156.623 163.107 157.357 164.257L159.042 163.181ZM156.206 158.022L158.019 157.176C157.491 156.047 157.011 154.891 156.582 153.711L154.702 154.395L152.823 155.079C153.293 156.37 153.818 157.634 154.394 158.869L156.206 158.022ZM154.071 152.536L155.979 151.935C155.605 150.749 155.282 149.541 155.011 148.313L153.058 148.744L151.105 149.175C151.401 150.518 151.755 151.84 152.164 153.137L154.071 152.536ZM152.677 146.818L154.647 146.473C154.433 145.25 154.27 144.01 154.161 142.753L152.169 142.925L150.176 143.097C150.295 144.47 150.473 145.826 150.707 147.163L152.677 146.818ZM152.042 140.965L154.04 140.879C154.014 140.256 154 139.63 154 139H152H150C150 139.687 150.015 140.371 150.044 141.051L152.042 140.965ZM152 139H154C154 138.37 154.014 137.744 154.04 137.121L152.042 137.035L150.044 136.949C150.015 137.629 150 138.313 150 139H152ZM152.169 135.075L154.161 135.247C154.27 133.99 154.433 132.75 154.647 131.527L152.677 131.182L150.707 130.837C150.473 132.174 150.295 133.53 150.176 134.903L152.169 135.075ZM153.058 129.256L155.011 129.687C155.282 128.459 155.605 127.251 155.979 126.065L154.071 125.464L152.164 124.863C151.755 126.16 151.401 127.482 151.105 128.825L153.058 129.256ZM154.702 123.605L156.582 124.289C157.011 123.109 157.491 121.953 158.019 120.824L156.206 119.978L154.394 119.131C153.818 120.366 153.293 121.63 152.823 122.921L154.702 123.605ZM157.076 118.217L158.85 119.142C159.429 118.03 160.057 116.947 160.728 115.895L159.042 114.819L157.357 113.743C156.623 114.893 155.937 116.077 155.303 117.292L157.076 118.217ZM160.135 113.187L161.772 114.336C162.491 113.31 163.254 112.318 164.058 111.361L162.527 110.074L160.996 108.788C160.117 109.834 159.283 110.918 158.497 112.039L160.135 113.187ZM163.822 108.598L165.296 109.95C166.142 109.028 167.028 108.142 167.95 107.296L166.598 105.822L165.247 104.348C164.239 105.272 163.272 106.239 162.348 107.247L163.822 108.598ZM168.074 104.527L169.361 106.058C170.318 105.254 171.31 104.491 172.336 103.772L171.187 102.135L170.039 100.497C168.918 101.283 167.834 102.117 166.788 102.996L168.074 104.527ZM172.819 101.042L173.895 102.728C174.947 102.057 176.03 101.429 177.142 100.85L176.217 99.0763L175.292 97.3031C174.077 97.9371 172.893 98.6226 171.743 99.3567L172.819 101.042ZM177.978 98.2065L178.824 100.019C179.953 99.4911 181.109 99.0112 182.289 98.5817L181.605 96.7023L180.921 94.823C179.63 95.2929 178.366 95.8176 177.131 96.3944L177.978 98.2065ZM183.464 96.0714L184.065 97.979C185.251 97.6054 186.459 97.2818 187.687 97.0108L187.256 95.0578L186.825 93.1048C185.482 93.4013 184.16 93.7552 182.863 94.1638L183.464 96.0714ZM189.182 94.6768L189.527 96.6468C190.75 96.4325 191.99 96.27 193.247 96.1614L193.075 94.1688L192.903 92.1762C191.53 92.2949 190.174 92.4725 188.837 92.7068L189.182 94.6768ZM195.035 94.0421L195.121 96.0403C195.744 96.0135 196.37 96 197 96V94V92C196.313 92 195.629 92.0148 194.949 92.044L195.035 94.0421ZM197 94V96C197.63 96 198.256 96.0135 198.879 96.0403L198.965 94.0421L199.051 92.044C198.371 92.0148 197.687 92 197 92V94ZM200.925 94.1688L200.753 96.1614C202.01 96.27 203.25 96.4325 204.473 96.6468L204.818 94.6768L205.163 92.7068C203.826 92.4725 202.47 92.2949 201.097 92.1762L200.925 94.1688ZM206.744 95.0578L206.313 97.0108C207.541 97.2818 208.749 97.6054 209.935 97.979L210.536 96.0714L211.137 94.1638C209.84 93.7552 208.518 93.4013 207.175 93.1048L206.744 95.0578ZM212.395 96.7023L211.711 98.5817C212.891 99.0113 214.047 99.4911 215.176 100.019L216.022 98.2065L216.869 96.3944C215.634 95.8176 214.37 95.2929 213.079 94.823L212.395 96.7023ZM217.783 99.0763L216.858 100.85C217.97 101.429 219.053 102.057 220.105 102.728L221.181 101.042L222.257 99.3567C221.107 98.6226 219.923 97.9371 218.708 97.3031L217.783 99.0763ZM222.813 102.135L221.664 103.772C222.69 104.491 223.682 105.254 224.639 106.058L225.926 104.527L227.212 102.996C226.166 102.117 225.082 101.283 223.961 100.497L222.813 102.135ZM227.402 105.822L226.05 107.296C226.972 108.142 227.858 109.028 228.704 109.95L230.178 108.598L231.652 107.247C230.728 106.239 229.761 105.272 228.753 104.348L227.402 105.822ZM231.473 110.074L229.942 111.361C230.746 112.318 231.509 113.31 232.228 114.336L233.865 113.187L235.503 112.039C234.717 110.918 233.883 109.834 233.004 108.788L231.473 110.074ZM234.958 114.819L233.272 115.895C233.943 116.947 234.571 118.03 235.15 119.142L236.924 118.217L238.697 117.292C238.063 116.077 237.377 114.893 236.643 113.743L234.958 114.819ZM237.794 119.978L235.981 120.824C236.509 121.953 236.989 123.109 237.418 124.289L239.298 123.605L241.177 122.921C240.707 121.63 240.182 120.366 239.606 119.131L237.794 119.978ZM239.929 125.464L238.021 126.065C238.395 127.251 238.718 128.459 238.989 129.687L240.942 129.256L242.895 128.825C242.599 127.482 242.245 126.16 241.836 124.863L239.929 125.464ZM241.323 131.182L239.353 131.527C239.567 132.75 239.73 133.99 239.839 135.247L241.831 135.075L243.824 134.903C243.705 133.53 243.527 132.174 243.293 130.837L241.323 131.182ZM241.958 137.035L239.96 137.121C239.986 137.744 240 138.37 240 139H242H244C244 138.313 243.985 137.629 243.956 136.949L241.958 137.035ZM242 139H240C240 139.63 239.986 140.256 239.96 140.879L241.958 140.965L243.956 141.051C243.985 140.371 244 139.687 244 139H242ZM241.831 142.925L239.839 142.753C239.73 144.01 239.567 145.25 239.353 146.473L241.323 146.818L243.293 147.163C243.527 145.826 243.705 144.47 243.824 143.097L241.831 142.925ZM240.942 148.744L238.989 148.313C238.718 149.541 238.395 150.749 238.021 151.935L239.929 152.536L241.836 153.137C242.245 151.84 242.599 150.518 242.895 149.175L240.942 148.744ZM239.298 154.395L237.418 153.711C236.989 154.891 236.509 156.047 235.981 157.176L237.794 158.022L239.606 158.869C240.182 157.634 240.707 156.37 241.177 155.079L239.298 154.395ZM236.924 159.783L235.15 158.858C234.571 159.97 233.943 161.053 233.272 162.105L234.958 163.181L236.643 164.257C237.377 163.107 238.063 161.923 238.697 160.708L236.924 159.783ZM233.865 164.813L232.228 163.664C231.509 164.69 230.746 165.682 229.942 166.639L231.473 167.926L233.004 169.212C233.883 168.166 234.717 167.082 235.503 165.961L233.865 164.813ZM230.178 169.402L228.704 168.05C227.858 168.972 226.972 169.858 226.05 170.704L227.402 172.178L228.753 173.652C229.761 172.728 230.728 171.761 231.652 170.753L230.178 169.402ZM225.926 173.473L224.639 171.942C223.682 172.746 222.69 173.509 221.664 174.228L222.813 175.865L223.961 177.503C225.082 176.717 226.166 175.883 227.212 175.004L225.926 173.473ZM221.181 176.958L220.105 175.272C219.053 175.943 217.97 176.571 216.858 177.15L217.783 178.924L218.708 180.697C219.923 180.063 221.107 179.377 222.257 178.643L221.181 176.958ZM216.022 179.794L215.176 177.981C214.047 178.509 212.891 178.989 211.711 179.418L212.395 181.298L213.079 183.177C214.37 182.707 215.634 182.182 216.869 181.606L216.022 179.794ZM210.536 181.929L209.935 180.021C208.749 180.395 207.541 180.718 206.313 180.989L206.744 182.942L207.175 184.895C208.518 184.599 209.84 184.245 211.137 183.836L210.536 181.929ZM204.818 183.323L204.473 181.353C203.25 181.567 202.01 181.73 200.753 181.839L200.925 183.831L201.097 185.824C202.47 185.705 203.826 185.527 205.163 185.293L204.818 183.323ZM198.965 183.958L198.879 181.96C198.256 181.986 197.63 182 197 182V184V186C197.687 186 198.371 185.985 199.051 185.956L198.965 183.958Z" fill="#FCB344" mask="url(#path-10-inside-3_4286_7314)"/>
<path d="M154 139C154 115.252 173.252 96 197 96V96C220.748 96 240 115.252 240 139V139C240 162.748 220.748 182 197 182V182C173.252 182 154 162.748 154 139V139Z" fill="url(#paint3_linear_4286_7314)"/>
<g filter="url(#filter1_d_4286_7314)">
<path d="M193 96C193 93.7909 194.791 92 197 92V92C199.209 92 201 93.7909 201 96V96C201 98.2091 199.209 100 197 100V100C194.791 100 193 98.2091 193 96V96Z" fill="#FCB344"/>
</g>
</g>
<g opacity="0.85">
<mask id="path-14-inside-4_4286_7314" fill="white">
<path d="M169.5 139C169.5 123.812 181.812 111.5 197 111.5V111.5C212.188 111.5 224.5 123.812 224.5 139V139C224.5 154.188 212.188 166.5 197 166.5V166.5C181.812 166.5 169.5 154.188 169.5 139V139Z"/>
</mask>
<path d="M197 166.5V165.5C196.333 165.5 195.671 165.475 195.017 165.427L194.943 166.424L194.869 167.421C195.573 167.474 196.283 167.5 197 167.5V166.5ZM192.9 166.196L193.048 165.207C191.726 165.01 190.436 164.715 189.186 164.329L188.892 165.285L188.597 166.241C189.943 166.655 191.33 166.973 192.752 167.185L192.9 166.196ZM186.95 164.606L187.316 163.675C186.079 163.189 184.887 162.613 183.749 161.954L183.248 162.82L182.747 163.685C183.971 164.394 185.253 165.014 186.584 165.536L186.95 164.606ZM181.508 161.724L182.072 160.898C180.978 160.151 179.943 159.324 178.976 158.426L178.295 159.159L177.615 159.892C178.655 160.858 179.768 161.747 180.944 162.55L181.508 161.724ZM176.841 157.705L177.574 157.024C176.676 156.057 175.849 155.022 175.102 153.928L174.276 154.492L173.45 155.057C174.253 156.232 175.142 157.345 176.108 158.385L176.841 157.705ZM173.18 152.752L174.046 152.251C173.387 151.113 172.811 149.921 172.325 148.685L171.394 149.05L170.464 149.416C170.986 150.747 171.606 152.029 172.315 153.253L173.18 152.752ZM170.715 147.108L171.671 146.814C171.285 145.564 170.99 144.274 170.793 142.952L169.804 143.1L168.815 143.248C169.027 144.67 169.345 146.057 169.759 147.403L170.715 147.108ZM169.576 141.057L170.573 140.983C170.525 140.329 170.5 139.667 170.5 139H169.5H168.5C168.5 139.717 168.526 140.427 168.579 141.131L169.576 141.057ZM169.5 139H170.5C170.5 138.333 170.525 137.671 170.573 137.017L169.576 136.943L168.579 136.869C168.526 137.573 168.5 138.283 168.5 139H169.5ZM169.804 134.9L170.793 135.048C170.99 133.726 171.285 132.436 171.671 131.186L170.715 130.892L169.759 130.597C169.345 131.943 169.027 133.33 168.815 134.752L169.804 134.9ZM171.394 128.95L172.325 129.316C172.811 128.079 173.387 126.887 174.046 125.749L173.18 125.248L172.315 124.747C171.606 125.971 170.986 127.253 170.464 128.584L171.394 128.95ZM174.276 123.508L175.102 124.072C175.849 122.978 176.676 121.943 177.574 120.976L176.841 120.295L176.108 119.615C175.142 120.655 174.253 121.768 173.45 122.944L174.276 123.508ZM178.295 118.841L178.976 119.574C179.943 118.676 180.978 117.849 182.072 117.102L181.508 116.276L180.943 115.45C179.768 116.253 178.655 117.142 177.615 118.108L178.295 118.841ZM183.248 115.18L183.749 116.046C184.887 115.387 186.079 114.811 187.315 114.325L186.95 113.394L186.584 112.464C185.253 112.986 183.971 113.606 182.747 114.315L183.248 115.18ZM188.892 112.715L189.186 113.671C190.436 113.285 191.726 112.99 193.048 112.793L192.9 111.804L192.752 110.815C191.33 111.027 189.943 111.345 188.597 111.759L188.892 112.715ZM194.943 111.576L195.017 112.573C195.671 112.525 196.333 112.5 197 112.5V111.5V110.5C196.283 110.5 195.573 110.526 194.869 110.579L194.943 111.576ZM197 111.5V112.5C197.667 112.5 198.329 112.525 198.983 112.573L199.057 111.576L199.131 110.579C198.427 110.526 197.717 110.5 197 110.5V111.5ZM201.1 111.804L200.952 112.793C202.274 112.99 203.564 113.285 204.814 113.671L205.108 112.715L205.403 111.759C204.057 111.345 202.67 111.027 201.248 110.815L201.1 111.804ZM207.05 113.394L206.685 114.325C207.921 114.811 209.113 115.387 210.251 116.046L210.752 115.18L211.253 114.315C210.029 113.606 208.747 112.986 207.416 112.464L207.05 113.394ZM212.492 116.276L211.928 117.102C213.022 117.849 214.057 118.676 215.024 119.574L215.705 118.841L216.385 118.108C215.345 117.142 214.232 116.253 213.056 115.45L212.492 116.276ZM217.159 120.295L216.426 120.976C217.324 121.943 218.151 122.978 218.898 124.072L219.724 123.508L220.55 122.943C219.747 121.768 218.858 120.655 217.892 119.615L217.159 120.295ZM220.82 125.248L219.954 125.749C220.613 126.887 221.189 128.079 221.675 129.315L222.606 128.95L223.536 128.584C223.014 127.253 222.394 125.971 221.685 124.747L220.82 125.248ZM223.285 130.892L222.329 131.186C222.715 132.436 223.01 133.726 223.207 135.048L224.196 134.9L225.185 134.752C224.973 133.33 224.655 131.943 224.241 130.597L223.285 130.892ZM224.424 136.943L223.427 137.017C223.475 137.671 223.5 138.333 223.5 139H224.5H225.5C225.5 138.283 225.474 137.573 225.421 136.869L224.424 136.943ZM224.5 139H223.5C223.5 139.667 223.475 140.329 223.427 140.983L224.424 141.057L225.421 141.131C225.474 140.427 225.5 139.717 225.5 139H224.5ZM224.196 143.1L223.207 142.952C223.01 144.274 222.715 145.564 222.329 146.814L223.285 147.108L224.241 147.403C224.655 146.057 224.973 144.67 225.185 143.248L224.196 143.1ZM222.606 149.05L221.675 148.685C221.189 149.921 220.613 151.113 219.954 152.251L220.82 152.752L221.685 153.253C222.394 152.029 223.014 150.747 223.536 149.416L222.606 149.05ZM219.724 154.492L218.898 153.928C218.151 155.022 217.324 156.057 216.426 157.024L217.159 157.705L217.892 158.385C218.858 157.345 219.747 156.232 220.55 155.056L219.724 154.492ZM215.705 159.159L215.024 158.426C214.057 159.324 213.022 160.151 211.928 160.898L212.492 161.724L213.057 162.55C214.232 161.747 215.345 160.858 216.385 159.892L215.705 159.159ZM210.752 162.82L210.251 161.954C209.113 162.613 207.921 163.189 206.685 163.675L207.05 164.606L207.416 165.536C208.747 165.014 210.029 164.394 211.253 163.685L210.752 162.82ZM205.108 165.285L204.814 164.329C203.564 164.715 202.274 165.01 200.952 165.207L201.1 166.196L201.248 167.185C202.67 166.973 204.057 166.655 205.403 166.241L205.108 165.285ZM199.057 166.424L198.983 165.427C198.329 165.475 197.667 165.5 197 165.5V166.5V167.5C197.717 167.5 198.427 167.474 199.131 167.421L199.057 166.424ZM197 166.5V164.5C196.357 164.5 195.72 164.476 195.09 164.43L194.943 166.424L194.795 168.419C195.524 168.473 196.259 168.5 197 168.5V166.5ZM192.9 166.196L193.196 164.218C191.924 164.028 190.683 163.744 189.481 163.374L188.892 165.285L188.303 167.196C189.696 167.626 191.133 167.954 192.604 168.174L192.9 166.196ZM186.95 164.606L187.681 162.744C186.491 162.277 185.345 161.722 184.249 161.089L183.248 162.82L182.246 164.551C183.513 165.284 184.841 165.926 186.219 166.467L186.95 164.606ZM181.508 161.724L182.636 160.073C181.583 159.354 180.587 158.558 179.656 157.693L178.295 159.159L176.935 160.625C178.011 161.624 179.162 162.544 180.379 163.375L181.508 161.724ZM176.841 157.705L178.307 156.344C177.442 155.413 176.646 154.417 175.927 153.364L174.276 154.492L172.625 155.621C173.456 156.838 174.376 157.989 175.375 159.065L176.841 157.705ZM173.18 152.752L174.911 151.751C174.278 150.655 173.723 149.509 173.256 148.319L171.394 149.05L169.533 149.781C170.074 151.159 170.716 152.487 171.449 153.754L173.18 152.752ZM170.715 147.108L172.626 146.519C172.256 145.317 171.972 144.076 171.782 142.804L169.804 143.1L167.826 143.396C168.046 144.867 168.374 146.304 168.804 147.697L170.715 147.108ZM169.576 141.057L171.57 140.91C171.524 140.28 171.5 139.643 171.5 139H169.5H167.5C167.5 139.741 167.527 140.476 167.581 141.205L169.576 141.057ZM169.5 139H171.5C171.5 138.357 171.524 137.72 171.57 137.09L169.576 136.943L167.581 136.795C167.527 137.524 167.5 138.259 167.5 139H169.5ZM169.804 134.9L171.782 135.196C171.972 133.924 172.256 132.683 172.626 131.481L170.715 130.892L168.804 130.303C168.374 131.696 168.046 133.133 167.826 134.604L169.804 134.9ZM171.394 128.95L173.256 129.681C173.723 128.491 174.278 127.345 174.911 126.249L173.18 125.248L171.449 124.246C170.716 125.513 170.074 126.841 169.533 128.219L171.394 128.95ZM174.276 123.508L175.927 124.636C176.646 123.583 177.442 122.587 178.307 121.656L176.841 120.295L175.375 118.935C174.376 120.011 173.456 121.162 172.625 122.379L174.276 123.508ZM178.295 118.841L179.656 120.307C180.587 119.442 181.583 118.646 182.636 117.927L181.508 116.276L180.379 114.625C179.162 115.456 178.011 116.376 176.935 117.375L178.295 118.841ZM183.248 115.18L184.249 116.911C185.345 116.278 186.491 115.723 187.681 115.256L186.95 113.394L186.219 111.533C184.841 112.074 183.513 112.716 182.246 113.449L183.248 115.18ZM188.892 112.715L189.481 114.626C190.683 114.256 191.924 113.972 193.196 113.782L192.9 111.804L192.604 109.826C191.133 110.046 189.696 110.374 188.303 110.804L188.892 112.715ZM194.943 111.576L195.09 113.57C195.72 113.524 196.357 113.5 197 113.5V111.5V109.5C196.259 109.5 195.524 109.527 194.795 109.581L194.943 111.576ZM197 111.5V113.5C197.643 113.5 198.28 113.524 198.91 113.57L199.057 111.576L199.205 109.581C198.476 109.527 197.741 109.5 197 109.5V111.5ZM201.1 111.804L200.804 113.782C202.076 113.972 203.317 114.256 204.519 114.626L205.108 112.715L205.697 110.804C204.304 110.374 202.867 110.046 201.396 109.826L201.1 111.804ZM207.05 113.394L206.319 115.256C207.509 115.723 208.655 116.278 209.751 116.911L210.752 115.18L211.754 113.449C210.487 112.716 209.159 112.074 207.781 111.533L207.05 113.394ZM212.492 116.276L211.364 117.927C212.417 118.646 213.413 119.442 214.344 120.307L215.705 118.841L217.065 117.375C215.989 116.376 214.838 115.456 213.621 114.625L212.492 116.276ZM217.159 120.295L215.693 121.656C216.558 122.587 217.354 123.583 218.073 124.636L219.724 123.508L221.375 122.379C220.544 121.162 219.624 120.011 218.625 118.935L217.159 120.295ZM220.82 125.248L219.089 126.249C219.722 127.345 220.277 128.491 220.744 129.681L222.606 128.95L224.467 128.219C223.926 126.841 223.284 125.513 222.551 124.246L220.82 125.248ZM223.285 130.892L221.374 131.481C221.744 132.683 222.028 133.924 222.218 135.196L224.196 134.9L226.174 134.604C225.954 133.133 225.626 131.696 225.196 130.303L223.285 130.892ZM224.424 136.943L222.43 137.09C222.476 137.72 222.5 138.357 222.5 139H224.5H226.5C226.5 138.259 226.473 137.524 226.419 136.795L224.424 136.943ZM224.5 139H222.5C222.5 139.643 222.476 140.28 222.43 140.91L224.424 141.057L226.419 141.205C226.473 140.476 226.5 139.741 226.5 139H224.5ZM224.196 143.1L222.218 142.804C222.028 144.076 221.744 145.317 221.374 146.519L223.285 147.108L225.196 147.697C225.626 146.304 225.954 144.867 226.174 143.396L224.196 143.1ZM222.606 149.05L220.744 148.319C220.277 149.509 219.722 150.655 219.089 151.751L220.82 152.752L222.551 153.754C223.284 152.487 223.926 151.159 224.467 149.781L222.606 149.05ZM219.724 154.492L218.073 153.364C217.354 154.417 216.558 155.413 215.693 156.344L217.159 157.705L218.625 159.065C219.624 157.989 220.544 156.838 221.375 155.621L219.724 154.492ZM215.705 159.159L214.344 157.693C213.413 158.558 212.417 159.354 211.364 160.073L212.492 161.724L213.621 163.375C214.838 162.544 215.989 161.624 217.065 160.625L215.705 159.159ZM210.752 162.82L209.751 161.089C208.655 161.722 207.509 162.277 206.319 162.744L207.05 164.606L207.781 166.467C209.159 165.926 210.487 165.284 211.754 164.551L210.752 162.82ZM205.108 165.285L204.519 163.374C203.317 163.744 202.076 164.028 200.804 164.218L201.1 166.196L201.396 168.174C202.867 167.954 204.304 167.626 205.697 167.196L205.108 165.285ZM199.057 166.424L198.91 164.43C198.28 164.476 197.643 164.5 197 164.5V166.5V168.5C197.741 168.5 198.476 168.473 199.205 168.419L199.057 166.424Z" fill="#242424" fill-opacity="0.08" mask="url(#path-14-inside-4_4286_7314)"/>
</g>
<g filter="url(#filter2_f_4286_7314)">
<path d="M181 137C181 128.163 188.163 121 197 121V121C205.837 121 213 128.163 213 137V141C213 149.837 205.837 157 197 157V157C188.163 157 181 149.837 181 141V137Z" fill="#FCB344" fill-opacity="0.05"/>
</g>
<defs>
<filter id="filter0_d_4286_7314" x="132" y="72" width="130" height="132" filterUnits="userSpaceOnUse" color-interpolation-filters="sRGB">
<feFlood flood-opacity="0" result="BackgroundImageFix"/>
<feColorMatrix in="SourceAlpha" type="matrix" values="0 0 0 0 0 0 0 0 0 0 0 0 0 0 0 0 0 0 127 0" result="hardAlpha"/>
<feOffset/>
<feGaussianBlur stdDeviation="10"/>
<feComposite in2="hardAlpha" operator="out"/>
<feColorMatrix type="matrix" values="0 0 0 0 0.988235 0 0 0 0 0.701961 0 0 0 0 0.266667 0 0 0 0.4 0"/>
<feBlend mode="normal" in2="BackgroundImageFix" result="effect1_dropShadow_4286_7314"/>
<feBlend mode="normal" in="SourceGraphic" in2="effect1_dropShadow_4286_7314" result="shape"/>
</filter>
<filter id="filter1_d_4286_7314" x="185" y="84" width="24" height="24" filterUnits="userSpaceOnUse" color-interpolation-filters="sRGB">
<feFlood flood-opacity="0" result="BackgroundImageFix"/>
<feColorMatrix in="SourceAlpha" type="matrix" values="0 0 0 0 0 0 0 0 0 0 0 0 0 0 0 0 0 0 127 0" result="hardAlpha"/>
<feOffset/>
<feGaussianBlur stdDeviation="4"/>
<feComposite in2="hardAlpha" operator="out"/>
<feColorMatrix type="matrix" values="0 0 0 0 0.988235 0 0 0 0 0.701961 0 0 0 0 0.266667 0 0 0 0.6 0"/>
<feBlend mode="normal" in2="BackgroundImageFix" result="effect1_dropShadow_4286_7314"/>
<feBlend mode="normal" in="SourceGraphic" in2="effect1_dropShadow_4286_7314" result="shape"/>
</filter>
<filter id="filter2_f_4286_7314" x="133" y="73" width="128" height="132" filterUnits="userSpaceOnUse" color-interpolation-filters="sRGB">
<feFlood flood-opacity="0" result="BackgroundImageFix"/>
<feBlend mode="normal" in="SourceGraphic" in2="BackgroundImageFix" result="shape"/>
<feGaussianBlur stdDeviation="24" result="effect1_foregroundBlur_4286_7314"/>
</filter>
<linearGradient id="paint0_linear_4286_7314" x1="197.333" y1="0" x2="197.333" y2="277" gradientUnits="userSpaceOnUse">
<stop stop-color="#F0EEE6" stop-opacity="0"/>
<stop offset="1" stop-color="#F0EADE"/>
</linearGradient>
<linearGradient id="paint1_linear_4286_7314" x1="187" y1="136" x2="187" y2="154" gradientUnits="userSpaceOnUse">
<stop stop-color="#FCB344"/>
<stop offset="1" stop-color="#F0A030"/>
</linearGradient>
<linearGradient id="paint2_linear_4286_7314" x1="191" y1="125" x2="191" y2="136" gradientUnits="userSpaceOnUse">
<stop stop-color="#FCB344"/>
<stop offset="1" stop-color="#F0A030"/>
</linearGradient>
<linearGradient id="paint3_linear_4286_7314" x1="154" y1="96" x2="240" y2="182" gradientUnits="userSpaceOnUse">
<stop stop-color="#FCB344" stop-opacity="0.1"/>
<stop offset="1" stop-opacity="0"/>
</linearGradient>
</defs>
</svg>
