<svg width="395" height="277" viewBox="0 0 395 277" fill="none" xmlns="http://www.w3.org/2000/svg">
<path d="M0 0H394.667V267C394.667 272.523 390.19 277 384.667 277H9.99999C4.47714 277 0 272.523 0 267V0Z" fill="url(#paint0_linear_4286_7212)"/>
<g clip-path="url(#clip0_4286_7212)">
<path d="M91 104H145" stroke="url(#paint1_linear_4286_7212)" stroke-width="3" stroke-linecap="round"/>
<path opacity="0.840063" d="M145 108.5C147.485 108.5 149.5 106.485 149.5 104C149.5 101.515 147.485 99.5 145 99.5C142.515 99.5 140.5 101.515 140.5 104C140.5 106.485 142.515 108.5 145 108.5Z" fill="#FCB344"/>
</g>
<g clip-path="url(#clip1_4286_7212)">
<path d="M185 104H220" stroke="url(#paint2_linear_4286_7212)" stroke-width="3" stroke-linecap="round"/>
<path opacity="0.840063" d="M220 108.5C222.485 108.5 224.5 106.485 224.5 104C224.5 101.515 222.485 99.5 220 99.5C217.515 99.5 215.5 101.515 215.5 104C215.5 106.485 217.515 108.5 220 108.5Z" fill="#FCB344"/>
</g>
<g clip-path="url(#clip2_4286_7212)">
<path d="M262 105H295" stroke="url(#paint3_linear_4286_7212)" stroke-width="3" stroke-linecap="round"/>
</g>
<g clip-path="url(#clip3_4286_7212)">
<path d="M249.953 119.949L228.959 156.938" stroke="url(#paint4_linear_4286_7212)" stroke-width="2.99909" stroke-linecap="round"/>
</g>
<g clip-path="url(#clip4_4286_7212)">
<path d="M262 176H295" stroke="url(#paint5_linear_4286_7212)" stroke-width="3" stroke-linecap="round"/>
</g>
<g filter="url(#filter0_ddi_4286_7212)">
<path d="M70 95C70 88.9249 74.9249 84 81 84H101C107.075 84 112 88.9249 112 95V115C112 121.075 107.075 126 101 126H81C74.9249 126 70 121.075 70 115V95Z" fill="white" fill-opacity="0.01" shape-rendering="crispEdges"/>
<path d="M70 95C70 88.9249 74.9249 84 81 84H101C107.075 84 112 88.9249 112 95V115C112 121.075 107.075 126 101 126H81C74.9249 126 70 121.075 70 115V95Z" fill="url(#paint6_linear_4286_7212)"/>
<path d="M70 95C70 88.9249 74.9249 84 81 84H101C107.075 84 112 88.9249 112 95V115C112 121.075 107.075 126 101 126H81C74.9249 126 70 121.075 70 115V95Z" fill="url(#paint7_linear_4286_7212)"/>
<mask id="path-12-inside-1_4286_7212" fill="white">
<path d="M70 95C70 88.9249 74.9249 84 81 84H101C107.075 84 112 88.9249 112 95V115C112 121.075 107.075 126 101 126H81C74.9249 126 70 121.075 70 115V95Z"/>
</mask>
<path d="M81 84V86H101V84V82H81V84ZM112 95H110V115H112H114V95H112ZM101 126V124H81V126V128H101V126ZM70 115H72V95H70H68V115H70ZM81 126V124C76.0294 124 72 119.971 72 115H70H68C68 122.18 73.8203 128 81 128V126ZM112 115H110C110 119.971 105.971 124 101 124V126V128C108.18 128 114 122.18 114 115H112ZM101 84V86C105.971 86 110 90.0294 110 95H112H114C114 87.8203 108.18 82 101 82V84ZM81 84V82C73.8203 82 68 87.8203 68 95H70H72C72 90.0294 76.0294 86 81 86V84Z" fill="white" fill-opacity="0.25" mask="url(#path-12-inside-1_4286_7212)"/>
<g filter="url(#filter1_f_4286_7212)">
<path d="M81.75 96.2344C81.75 94.5775 83.0931 93.2344 84.75 93.2344C86.4069 93.2344 87.75 94.5775 87.75 96.2344C87.75 97.8912 86.4069 99.2344 84.75 99.2344C83.0931 99.2344 81.75 97.8912 81.75 96.2344Z" fill="white" fill-opacity="0.5"/>
</g>
<mask id="path-15-inside-2_4286_7212" fill="white">
<path d="M75 96C75 92.134 78.134 89 82 89H100C103.866 89 107 92.134 107 96V114C107 117.866 103.866 121 100 121H82C78.134 121 75 117.866 75 114V96Z"/>
</mask>
<path d="M82 89V90H100V89V88H82V89ZM107 96H106V114H107H108V96H107ZM100 121V120H82V121V122H100V121ZM75 114H76V96H75H74V114H75ZM82 121V120C78.6863 120 76 117.314 76 114H75H74C74 118.418 77.5817 122 82 122V121ZM107 114H106C106 117.314 103.314 120 100 120V121V122C104.418 122 108 118.418 108 114H107ZM100 89V90C103.314 90 106 92.6863 106 96H107H108C108 91.5817 104.418 88 100 88V89ZM82 89V88C77.5817 88 74 91.5817 74 96H75H76C76 92.6863 78.6863 90 82 90V89Z" fill="white" fill-opacity="0.15" mask="url(#path-15-inside-2_4286_7212)"/>
</g>
<g filter="url(#filter2_ddi_4286_7212)">
<path d="M143 95C143 88.9249 147.925 84 154 84H174C180.075 84 185 88.9249 185 95V115C185 121.075 180.075 126 174 126H154C147.925 126 143 121.075 143 115V95Z" fill="white" fill-opacity="0.01" shape-rendering="crispEdges"/>
<path d="M143 95C143 88.9249 147.925 84 154 84H174C180.075 84 185 88.9249 185 95V115C185 121.075 180.075 126 174 126H154C147.925 126 143 121.075 143 115V95Z" fill="url(#paint8_linear_4286_7212)"/>
<path d="M143 95C143 88.9249 147.925 84 154 84H174C180.075 84 185 88.9249 185 95V115C185 121.075 180.075 126 174 126H154C147.925 126 143 121.075 143 115V95Z" fill="url(#paint9_linear_4286_7212)"/>
<mask id="path-20-inside-3_4286_7212" fill="white">
<path d="M143 95C143 88.9249 147.925 84 154 84H174C180.075 84 185 88.9249 185 95V115C185 121.075 180.075 126 174 126H154C147.925 126 143 121.075 143 115V95Z"/>
</mask>
<path d="M154 84V86H174V84V82H154V84ZM185 95H183V115H185H187V95H185ZM174 126V124H154V126V128H174V126ZM143 115H145V95H143H141V115H143ZM154 126V124C149.029 124 145 119.971 145 115H143H141C141 122.18 146.82 128 154 128V126ZM185 115H183C183 119.971 178.971 124 174 124V126V128C181.18 128 187 122.18 187 115H185ZM174 84V86C178.971 86 183 90.0294 183 95H185H187C187 87.8203 181.18 82 174 82V84ZM154 84V82C146.82 82 141 87.8203 141 95H143H145C145 90.0294 149.029 86 154 86V84Z" fill="white" fill-opacity="0.25" mask="url(#path-20-inside-3_4286_7212)"/>
<g filter="url(#filter3_i_4286_7212)">
<path d="M159 105C159 102.239 161.239 100 164 100C166.761 100 169 102.239 169 105C169 107.761 166.761 110 164 110C161.239 110 159 107.761 159 105Z" fill="url(#paint10_linear_4286_7212)"/>
</g>
<mask id="path-23-inside-4_4286_7212" fill="white">
<path d="M159 105C159 102.239 161.239 100 164 100C166.761 100 169 102.239 169 105C169 107.761 166.761 110 164 110C161.239 110 159 107.761 159 105Z"/>
</mask>
<path d="M159 105M169 105M169 105M159 105M164 100M169 105M164 110M159 105M164 110V109C161.791 109 160 107.209 160 105H159H158C158 108.314 160.686 111 164 111V110ZM169 105H168C168 107.209 166.209 109 164 109V110V111C167.314 111 170 108.314 170 105H169ZM164 100V101C166.209 101 168 102.791 168 105H169H170C170 101.686 167.314 99 164 99V100ZM164 100V99C160.686 99 158 101.686 158 105H159H160C160 102.791 161.791 101 164 101V100Z" fill="#242424" fill-opacity="0.1" mask="url(#path-23-inside-4_4286_7212)"/>
</g>
<g opacity="0.519022" filter="url(#filter4_f_4286_7212)">
<path d="M214 94C214 86.268 220.268 80 228 80H250C257.732 80 264 86.268 264 94V116C264 123.732 257.732 130 250 130H228C220.268 130 214 123.732 214 116V94Z" fill="#FCB344" fill-opacity="0.15"/>
</g>
<g filter="url(#filter5_ddi_4286_7212)">
<path d="M218 95C218 88.9249 222.925 84 229 84H249C255.075 84 260 88.9249 260 95V115C260 121.075 255.075 126 249 126H229C222.925 126 218 121.075 218 115V95Z" fill="white" fill-opacity="0.01" shape-rendering="crispEdges"/>
<path d="M218 95C218 88.9249 222.925 84 229 84H249C255.075 84 260 88.9249 260 95V115C260 121.075 255.075 126 249 126H229C222.925 126 218 121.075 218 115V95Z" fill="url(#paint11_linear_4286_7212)"/>
<path d="M218 95C218 88.9249 222.925 84 229 84H249C255.075 84 260 88.9249 260 95V115C260 121.075 255.075 126 249 126H229C222.925 126 218 121.075 218 115V95Z" fill="url(#paint12_linear_4286_7212)"/>
<mask id="path-29-inside-5_4286_7212" fill="white">
<path d="M218 95C218 88.9249 222.925 84 229 84H249C255.075 84 260 88.9249 260 95V115C260 121.075 255.075 126 249 126H229C222.925 126 218 121.075 218 115V95Z"/>
</mask>
<path d="M229 84V86H249V84V82H229V84ZM260 95H258V115H260H262V95H260ZM249 126V124H229V126V128H249V126ZM218 115H220V95H218H216V115H218ZM229 126V124C224.029 124 220 119.971 220 115H218H216C216 122.18 221.82 128 229 128V126ZM260 115H258C258 119.971 253.971 124 249 124V126V128C256.18 128 262 122.18 262 115H260ZM249 84V86C253.971 86 258 90.0294 258 95H260H262C262 87.8203 256.18 82 249 82V84ZM229 84V82C221.82 82 216 87.8203 216 95H218H220C220 90.0294 224.029 86 229 86V84Z" fill="white" fill-opacity="0.25" mask="url(#path-29-inside-5_4286_7212)"/>
<g filter="url(#filter6_f_4286_7212)">
<path d="M229.75 96.2344C229.75 94.5775 231.093 93.2344 232.75 93.2344C234.407 93.2344 235.75 94.5775 235.75 96.2344C235.75 97.8912 234.407 99.2344 232.75 99.2344C231.093 99.2344 229.75 97.8912 229.75 96.2344Z" fill="white" fill-opacity="0.5"/>
</g>
<mask id="path-32-inside-6_4286_7212" fill="white">
<path d="M223 96C223 92.134 226.134 89 230 89H248C251.866 89 255 92.134 255 96V114C255 117.866 251.866 121 248 121H230C226.134 121 223 117.866 223 114V96Z"/>
</mask>
<path d="M230 89V90H248V89V88H230V89ZM255 96H254V114H255H256V96H255ZM248 121V120H230V121V122H248V121ZM223 114H224V96H223H222V114H223ZM230 121V120C226.686 120 224 117.314 224 114H223H222C222 118.418 225.582 122 230 122V121ZM255 114H254C254 117.314 251.314 120 248 120V121V122C252.418 122 256 118.418 256 114H255ZM248 89V90C251.314 90 254 92.6863 254 96H255H256C256 91.5817 252.418 88 248 88V89ZM230 89V88C225.582 88 222 91.5817 222 96H223H224C224 92.6863 226.686 90 230 90V89Z" fill="white" fill-opacity="0.15" mask="url(#path-32-inside-6_4286_7212)"/>
</g>
<g opacity="0.55" filter="url(#filter7_d_4286_7212)">
<path d="M293 95C293 88.9249 297.925 84 304 84H324C330.075 84 335 88.9249 335 95V115C335 121.075 330.075 126 324 126H304C297.925 126 293 121.075 293 115V95Z" fill="white" fill-opacity="0.01" shape-rendering="crispEdges"/>
<path d="M293 95C293 88.9249 297.925 84 304 84H324C330.075 84 335 88.9249 335 95V115C335 121.075 330.075 126 324 126H304C297.925 126 293 121.075 293 115V95Z" fill="url(#paint13_linear_4286_7212)"/>
<path d="M293 95C293 88.9249 297.925 84 304 84H324C330.075 84 335 88.9249 335 95V115C335 121.075 330.075 126 324 126H304C297.925 126 293 121.075 293 115V95Z" fill="url(#paint14_linear_4286_7212)"/>
<mask id="path-37-inside-7_4286_7212" fill="white">
<path d="M293 95C293 88.9249 297.925 84 304 84H324C330.075 84 335 88.9249 335 95V115C335 121.075 330.075 126 324 126H304C297.925 126 293 121.075 293 115V95Z"/>
</mask>
<path d="M304 84V86H324V84V82H304V84ZM335 95H333V115H335H337V95H335ZM324 126V124H304V126V128H324V126ZM293 115H295V95H293H291V115H293ZM304 126V124C299.029 124 295 119.971 295 115H293H291C291 122.18 296.82 128 304 128V126ZM335 115H333C333 119.971 328.971 124 324 124V126V128C331.18 128 337 122.18 337 115H335ZM324 84V86C328.971 86 333 90.0294 333 95H335H337C337 87.8203 331.18 82 324 82V84ZM304 84V82C296.82 82 291 87.8203 291 95H293H295C295 90.0294 299.029 86 304 86V84Z" fill="#242424" fill-opacity="0.06" mask="url(#path-37-inside-7_4286_7212)"/>
</g>
<g opacity="0.55" filter="url(#filter8_d_4286_7212)">
<path d="M218 166C218 159.925 222.925 155 229 155H249C255.075 155 260 159.925 260 166V186C260 192.075 255.075 197 249 197H229C222.925 197 218 192.075 218 186V166Z" fill="white" fill-opacity="0.01" shape-rendering="crispEdges"/>
<path d="M218 166C218 159.925 222.925 155 229 155H249C255.075 155 260 159.925 260 166V186C260 192.075 255.075 197 249 197H229C222.925 197 218 192.075 218 186V166Z" fill="url(#paint15_linear_4286_7212)"/>
<path d="M218 166C218 159.925 222.925 155 229 155H249C255.075 155 260 159.925 260 166V186C260 192.075 255.075 197 249 197H229C222.925 197 218 192.075 218 186V166Z" fill="url(#paint16_linear_4286_7212)"/>
<mask id="path-42-inside-8_4286_7212" fill="white">
<path d="M218 166C218 159.925 222.925 155 229 155H249C255.075 155 260 159.925 260 166V186C260 192.075 255.075 197 249 197H229C222.925 197 218 192.075 218 186V166Z"/>
</mask>
<path d="M229 155V157H249V155V153H229V155ZM260 166H258V186H260H262V166H260ZM249 197V195H229V197V199H249V197ZM218 186H220V166H218H216V186H218ZM229 197V195C224.029 195 220 190.971 220 186H218H216C216 193.18 221.82 199 229 199V197ZM260 186H258C258 190.971 253.971 195 249 195V197V199C256.18 199 262 193.18 262 186H260ZM249 155V157C253.971 157 258 161.029 258 166H260H262C262 158.82 256.18 153 249 153V155ZM229 155V153C221.82 153 216 158.82 216 166H218H220C220 161.029 224.029 157 229 157V155Z" fill="#242424" fill-opacity="0.06" mask="url(#path-42-inside-8_4286_7212)"/>
</g>
<g opacity="0.55" filter="url(#filter9_d_4286_7212)">
<path d="M293 166C293 159.925 297.925 155 304 155H324C330.075 155 335 159.925 335 166V186C335 192.075 330.075 197 324 197H304C297.925 197 293 192.075 293 186V166Z" fill="white" fill-opacity="0.01" shape-rendering="crispEdges"/>
<path d="M293 166C293 159.925 297.925 155 304 155H324C330.075 155 335 159.925 335 166V186C335 192.075 330.075 197 324 197H304C297.925 197 293 192.075 293 186V166Z" fill="url(#paint17_linear_4286_7212)"/>
<path d="M293 166C293 159.925 297.925 155 304 155H324C330.075 155 335 159.925 335 166V186C335 192.075 330.075 197 324 197H304C297.925 197 293 192.075 293 186V166Z" fill="url(#paint18_linear_4286_7212)"/>
<mask id="path-47-inside-9_4286_7212" fill="white">
<path d="M293 166C293 159.925 297.925 155 304 155H324C330.075 155 335 159.925 335 166V186C335 192.075 330.075 197 324 197H304C297.925 197 293 192.075 293 186V166Z"/>
</mask>
<path d="M304 155V157H324V155V153H304V155ZM335 166H333V186H335H337V166H335ZM324 197V195H304V197V199H324V197ZM293 186H295V166H293H291V186H293ZM304 197V195C299.029 195 295 190.971 295 186H293H291C291 193.18 296.82 199 304 199V197ZM335 186H333C333 190.971 328.971 195 324 195V197V199C331.18 199 337 193.18 337 186H335ZM324 155V157C328.971 157 333 161.029 333 166H335H337C337 158.82 331.18 153 324 153V155ZM304 155V153C296.82 153 291 158.82 291 166H293H295C295 161.029 299.029 157 304 157V155Z" fill="#242424" fill-opacity="0.06" mask="url(#path-47-inside-9_4286_7212)"/>
</g>
<defs>
<filter id="filter0_ddi_4286_7212" x="55" y="75" width="72" height="72" filterUnits="userSpaceOnUse" color-interpolation-filters="sRGB">
<feFlood flood-opacity="0" result="BackgroundImageFix"/>
<feColorMatrix in="SourceAlpha" type="matrix" values="0 0 0 0 0 0 0 0 0 0 0 0 0 0 0 0 0 0 127 0" result="hardAlpha"/>
<feOffset dy="2"/>
<feGaussianBlur stdDeviation="3"/>
<feComposite in2="hardAlpha" operator="out"/>
<feColorMatrix type="matrix" values="0 0 0 0 0 0 0 0 0 0 0 0 0 0 0 0 0 0 0.08 0"/>
<feBlend mode="normal" in2="BackgroundImageFix" result="effect1_dropShadow_4286_7212"/>
<feColorMatrix in="SourceAlpha" type="matrix" values="0 0 0 0 0 0 0 0 0 0 0 0 0 0 0 0 0 0 127 0" result="hardAlpha"/>
<feMorphology radius="3" operator="erode" in="SourceAlpha" result="effect2_dropShadow_4286_7212"/>
<feOffset dy="6"/>
<feGaussianBlur stdDeviation="9"/>
<feComposite in2="hardAlpha" operator="out"/>
<feColorMatrix type="matrix" values="0 0 0 0 0.988235 0 0 0 0 0.701961 0 0 0 0 0.266667 0 0 0 0.4 0"/>
<feBlend mode="normal" in2="effect1_dropShadow_4286_7212" result="effect2_dropShadow_4286_7212"/>
<feBlend mode="normal" in="SourceGraphic" in2="effect2_dropShadow_4286_7212" result="shape"/>
<feColorMatrix in="SourceAlpha" type="matrix" values="0 0 0 0 0 0 0 0 0 0 0 0 0 0 0 0 0 0 127 0" result="hardAlpha"/>
<feOffset dy="-2"/>
<feComposite in2="hardAlpha" operator="arithmetic" k2="-1" k3="1"/>
<feColorMatrix type="matrix" values="0 0 0 0 0 0 0 0 0 0 0 0 0 0 0 0 0 0 0.08 0"/>
<feBlend mode="normal" in2="shape" result="effect3_innerShadow_4286_7212"/>
</filter>
<filter id="filter1_f_4286_7212" x="78.75" y="90.2344" width="12" height="12" filterUnits="userSpaceOnUse" color-interpolation-filters="sRGB">
<feFlood flood-opacity="0" result="BackgroundImageFix"/>
<feBlend mode="normal" in="SourceGraphic" in2="BackgroundImageFix" result="shape"/>
<feGaussianBlur stdDeviation="1.5" result="effect1_foregroundBlur_4286_7212"/>
</filter>
<filter id="filter2_ddi_4286_7212" x="128" y="75" width="72" height="72" filterUnits="userSpaceOnUse" color-interpolation-filters="sRGB">
<feFlood flood-opacity="0" result="BackgroundImageFix"/>
<feColorMatrix in="SourceAlpha" type="matrix" values="0 0 0 0 0 0 0 0 0 0 0 0 0 0 0 0 0 0 127 0" result="hardAlpha"/>
<feOffset dy="2"/>
<feGaussianBlur stdDeviation="3"/>
<feComposite in2="hardAlpha" operator="out"/>
<feColorMatrix type="matrix" values="0 0 0 0 0 0 0 0 0 0 0 0 0 0 0 0 0 0 0.08 0"/>
<feBlend mode="normal" in2="BackgroundImageFix" result="effect1_dropShadow_4286_7212"/>
<feColorMatrix in="SourceAlpha" type="matrix" values="0 0 0 0 0 0 0 0 0 0 0 0 0 0 0 0 0 0 127 0" result="hardAlpha"/>
<feMorphology radius="3" operator="erode" in="SourceAlpha" result="effect2_dropShadow_4286_7212"/>
<feOffset dy="6"/>
<feGaussianBlur stdDeviation="9"/>
<feComposite in2="hardAlpha" operator="out"/>
<feColorMatrix type="matrix" values="0 0 0 0 0.988235 0 0 0 0 0.701961 0 0 0 0 0.266667 0 0 0 0.4 0"/>
<feBlend mode="normal" in2="effect1_dropShadow_4286_7212" result="effect2_dropShadow_4286_7212"/>
<feBlend mode="normal" in="SourceGraphic" in2="effect2_dropShadow_4286_7212" result="shape"/>
<feColorMatrix in="SourceAlpha" type="matrix" values="0 0 0 0 0 0 0 0 0 0 0 0 0 0 0 0 0 0 127 0" result="hardAlpha"/>
<feOffset dy="-2"/>
<feComposite in2="hardAlpha" operator="arithmetic" k2="-1" k3="1"/>
<feColorMatrix type="matrix" values="0 0 0 0 0 0 0 0 0 0 0 0 0 0 0 0 0 0 0.08 0"/>
<feBlend mode="normal" in2="shape" result="effect3_innerShadow_4286_7212"/>
</filter>
<filter id="filter3_i_4286_7212" x="159" y="100" width="10" height="12" filterUnits="userSpaceOnUse" color-interpolation-filters="sRGB">
<feFlood flood-opacity="0" result="BackgroundImageFix"/>
<feBlend mode="normal" in="SourceGraphic" in2="BackgroundImageFix" result="shape"/>
<feColorMatrix in="SourceAlpha" type="matrix" values="0 0 0 0 0 0 0 0 0 0 0 0 0 0 0 0 0 0 127 0" result="hardAlpha"/>
<feOffset dy="2"/>
<feGaussianBlur stdDeviation="2"/>
<feComposite in2="hardAlpha" operator="arithmetic" k2="-1" k3="1"/>
<feColorMatrix type="matrix" values="0 0 0 0 0 0 0 0 0 0 0 0 0 0 0 0 0 0 0.05 0"/>
<feBlend mode="normal" in2="shape" result="effect1_innerShadow_4286_7212"/>
</filter>
<filter id="filter4_f_4286_7212" x="198" y="64" width="82" height="82" filterUnits="userSpaceOnUse" color-interpolation-filters="sRGB">
<feFlood flood-opacity="0" result="BackgroundImageFix"/>
<feBlend mode="normal" in="SourceGraphic" in2="BackgroundImageFix" result="shape"/>
<feGaussianBlur stdDeviation="8" result="effect1_foregroundBlur_4286_7212"/>
</filter>
<filter id="filter5_ddi_4286_7212" x="203" y="75" width="72" height="72" filterUnits="userSpaceOnUse" color-interpolation-filters="sRGB">
<feFlood flood-opacity="0" result="BackgroundImageFix"/>
<feColorMatrix in="SourceAlpha" type="matrix" values="0 0 0 0 0 0 0 0 0 0 0 0 0 0 0 0 0 0 127 0" result="hardAlpha"/>
<feOffset dy="2"/>
<feGaussianBlur stdDeviation="3"/>
<feComposite in2="hardAlpha" operator="out"/>
<feColorMatrix type="matrix" values="0 0 0 0 0 0 0 0 0 0 0 0 0 0 0 0 0 0 0.08 0"/>
<feBlend mode="normal" in2="BackgroundImageFix" result="effect1_dropShadow_4286_7212"/>
<feColorMatrix in="SourceAlpha" type="matrix" values="0 0 0 0 0 0 0 0 0 0 0 0 0 0 0 0 0 0 127 0" result="hardAlpha"/>
<feMorphology radius="3" operator="erode" in="SourceAlpha" result="effect2_dropShadow_4286_7212"/>
<feOffset dy="6"/>
<feGaussianBlur stdDeviation="9"/>
<feComposite in2="hardAlpha" operator="out"/>
<feColorMatrix type="matrix" values="0 0 0 0 0.988235 0 0 0 0 0.701961 0 0 0 0 0.266667 0 0 0 0.4 0"/>
<feBlend mode="normal" in2="effect1_dropShadow_4286_7212" result="effect2_dropShadow_4286_7212"/>
<feBlend mode="normal" in="SourceGraphic" in2="effect2_dropShadow_4286_7212" result="shape"/>
<feColorMatrix in="SourceAlpha" type="matrix" values="0 0 0 0 0 0 0 0 0 0 0 0 0 0 0 0 0 0 127 0" result="hardAlpha"/>
<feOffset dy="-2"/>
<feComposite in2="hardAlpha" operator="arithmetic" k2="-1" k3="1"/>
<feColorMatrix type="matrix" values="0 0 0 0 0 0 0 0 0 0 0 0 0 0 0 0 0 0 0.08 0"/>
<feBlend mode="normal" in2="shape" result="effect3_innerShadow_4286_7212"/>
</filter>
<filter id="filter6_f_4286_7212" x="226.75" y="90.2344" width="12" height="12" filterUnits="userSpaceOnUse" color-interpolation-filters="sRGB">
<feFlood flood-opacity="0" result="BackgroundImageFix"/>
<feBlend mode="normal" in="SourceGraphic" in2="BackgroundImageFix" result="shape"/>
<feGaussianBlur stdDeviation="1.5" result="effect1_foregroundBlur_4286_7212"/>
</filter>
<filter id="filter7_d_4286_7212" x="287" y="80" width="54" height="54" filterUnits="userSpaceOnUse" color-interpolation-filters="sRGB">
<feFlood flood-opacity="0" result="BackgroundImageFix"/>
<feColorMatrix in="SourceAlpha" type="matrix" values="0 0 0 0 0 0 0 0 0 0 0 0 0 0 0 0 0 0 127 0" result="hardAlpha"/>
<feOffset dy="2"/>
<feGaussianBlur stdDeviation="3"/>
<feComposite in2="hardAlpha" operator="out"/>
<feColorMatrix type="matrix" values="0 0 0 0 0 0 0 0 0 0 0 0 0 0 0 0 0 0 0.04 0"/>
<feBlend mode="normal" in2="BackgroundImageFix" result="effect1_dropShadow_4286_7212"/>
<feBlend mode="normal" in="SourceGraphic" in2="effect1_dropShadow_4286_7212" result="shape"/>
</filter>
<filter id="filter8_d_4286_7212" x="212" y="151" width="54" height="54" filterUnits="userSpaceOnUse" color-interpolation-filters="sRGB">
<feFlood flood-opacity="0" result="BackgroundImageFix"/>
<feColorMatrix in="SourceAlpha" type="matrix" values="0 0 0 0 0 0 0 0 0 0 0 0 0 0 0 0 0 0 127 0" result="hardAlpha"/>
<feOffset dy="2"/>
<feGaussianBlur stdDeviation="3"/>
<feComposite in2="hardAlpha" operator="out"/>
<feColorMatrix type="matrix" values="0 0 0 0 0 0 0 0 0 0 0 0 0 0 0 0 0 0 0.04 0"/>
<feBlend mode="normal" in2="BackgroundImageFix" result="effect1_dropShadow_4286_7212"/>
<feBlend mode="normal" in="SourceGraphic" in2="effect1_dropShadow_4286_7212" result="shape"/>
</filter>
<filter id="filter9_d_4286_7212" x="287" y="151" width="54" height="54" filterUnits="userSpaceOnUse" color-interpolation-filters="sRGB">
<feFlood flood-opacity="0" result="BackgroundImageFix"/>
<feColorMatrix in="SourceAlpha" type="matrix" values="0 0 0 0 0 0 0 0 0 0 0 0 0 0 0 0 0 0 127 0" result="hardAlpha"/>
<feOffset dy="2"/>
<feGaussianBlur stdDeviation="3"/>
<feComposite in2="hardAlpha" operator="out"/>
<feColorMatrix type="matrix" values="0 0 0 0 0 0 0 0 0 0 0 0 0 0 0 0 0 0 0.04 0"/>
<feBlend mode="normal" in2="BackgroundImageFix" result="effect1_dropShadow_4286_7212"/>
<feBlend mode="normal" in="SourceGraphic" in2="effect1_dropShadow_4286_7212" result="shape"/>
</filter>
<linearGradient id="paint0_linear_4286_7212" x1="197.333" y1="0" x2="197.333" y2="277" gradientUnits="userSpaceOnUse">
<stop stop-color="#F0EEE6" stop-opacity="0"/>
<stop offset="1" stop-color="#F0EADE"/>
</linearGradient>
<linearGradient id="paint1_linear_4286_7212" x1="91" y1="104" x2="145" y2="104" gradientUnits="userSpaceOnUse">
<stop stop-color="#FCB344" stop-opacity="0.6"/>
<stop offset="0.5" stop-color="#FCB344" stop-opacity="0.9"/>
<stop offset="1" stop-color="#F0A030" stop-opacity="0.6"/>
</linearGradient>
<linearGradient id="paint2_linear_4286_7212" x1="185" y1="104" x2="220" y2="104" gradientUnits="userSpaceOnUse">
<stop stop-color="#FCB344" stop-opacity="0.6"/>
<stop offset="0.5" stop-color="#FCB344" stop-opacity="0.9"/>
<stop offset="1" stop-color="#F0A030" stop-opacity="0.6"/>
</linearGradient>
<linearGradient id="paint3_linear_4286_7212" x1="262" y1="105" x2="295" y2="105" gradientUnits="userSpaceOnUse">
<stop stop-color="#D4D3CC" stop-opacity="0.3"/>
<stop offset="0.5" stop-color="#D4D3CC" stop-opacity="0.35"/>
<stop offset="1" stop-color="#D4D3CC" stop-opacity="0.3"/>
</linearGradient>
<linearGradient id="paint4_linear_4286_7212" x1="249.953" y1="119.949" x2="228.959" y2="156.938" gradientUnits="userSpaceOnUse">
<stop stop-color="#D4D3CC" stop-opacity="0.3"/>
<stop offset="0.5" stop-color="#D4D3CC" stop-opacity="0.35"/>
<stop offset="1" stop-color="#D4D3CC" stop-opacity="0.3"/>
</linearGradient>
<linearGradient id="paint5_linear_4286_7212" x1="262" y1="176" x2="295" y2="176" gradientUnits="userSpaceOnUse">
<stop stop-color="#D4D3CC" stop-opacity="0.3"/>
<stop offset="0.5" stop-color="#D4D3CC" stop-opacity="0.35"/>
<stop offset="1" stop-color="#D4D3CC" stop-opacity="0.3"/>
</linearGradient>
<linearGradient id="paint6_linear_4286_7212" x1="70" y1="84" x2="112" y2="126" gradientUnits="userSpaceOnUse">
<stop stop-color="#FCD574"/>
<stop offset="0.0714286" stop-color="#FCD06E"/>
<stop offset="0.142857" stop-color="#FCCB67"/>
<stop offset="0.214286" stop-color="#FCC761"/>
<stop offset="0.285714" stop-color="#FCC25A"/>
<stop offset="0.357143" stop-color="#FCBD53"/>
<stop offset="0.428571" stop-color="#FCB84C"/>
<stop offset="0.5" stop-color="#FCB344"/>
<stop offset="0.571429" stop-color="#F9B041"/>
<stop offset="0.642857" stop-color="#F6AD3E"/>
<stop offset="0.714286" stop-color="#F3AA3B"/>
<stop offset="0.785714" stop-color="#F1A637"/>
<stop offset="0.857143" stop-color="#EEA334"/>
<stop offset="0.928571" stop-color="#EBA031"/>
<stop offset="1" stop-color="#E89D2D"/>
</linearGradient>
<linearGradient id="paint7_linear_4286_7212" x1="70" y1="84" x2="112" y2="126" gradientUnits="userSpaceOnUse">
<stop stop-color="white" stop-opacity="0.5"/>
<stop offset="0.5" stop-opacity="0"/>
<stop offset="1" stop-opacity="0.05"/>
</linearGradient>
<linearGradient id="paint8_linear_4286_7212" x1="143" y1="84" x2="185" y2="126" gradientUnits="userSpaceOnUse">
<stop stop-color="#FCD574"/>
<stop offset="0.0714286" stop-color="#FCD06E"/>
<stop offset="0.142857" stop-color="#FCCB67"/>
<stop offset="0.214286" stop-color="#FCC761"/>
<stop offset="0.285714" stop-color="#FCC25A"/>
<stop offset="0.357143" stop-color="#FCBD53"/>
<stop offset="0.428571" stop-color="#FCB84C"/>
<stop offset="0.5" stop-color="#FCB344"/>
<stop offset="0.571429" stop-color="#F9B041"/>
<stop offset="0.642857" stop-color="#F6AD3E"/>
<stop offset="0.714286" stop-color="#F3AA3B"/>
<stop offset="0.785714" stop-color="#F1A637"/>
<stop offset="0.857143" stop-color="#EEA334"/>
<stop offset="0.928571" stop-color="#EBA031"/>
<stop offset="1" stop-color="#E89D2D"/>
</linearGradient>
<linearGradient id="paint9_linear_4286_7212" x1="143" y1="84" x2="185" y2="126" gradientUnits="userSpaceOnUse">
<stop stop-color="white" stop-opacity="0.5"/>
<stop offset="0.5" stop-opacity="0"/>
<stop offset="1" stop-opacity="0.05"/>
</linearGradient>
<linearGradient id="paint10_linear_4286_7212" x1="159" y1="100" x2="169" y2="110" gradientUnits="userSpaceOnUse">
<stop stop-color="#242424" stop-opacity="0.25"/>
<stop offset="1" stop-color="#242424" stop-opacity="0.15"/>
</linearGradient>
<linearGradient id="paint11_linear_4286_7212" x1="218" y1="84" x2="260" y2="126" gradientUnits="userSpaceOnUse">
<stop stop-color="#FCD574"/>
<stop offset="0.0714286" stop-color="#FCD06E"/>
<stop offset="0.142857" stop-color="#FCCB67"/>
<stop offset="0.214286" stop-color="#FCC761"/>
<stop offset="0.285714" stop-color="#FCC25A"/>
<stop offset="0.357143" stop-color="#FCBD53"/>
<stop offset="0.428571" stop-color="#FCB84C"/>
<stop offset="0.5" stop-color="#FCB344"/>
<stop offset="0.571429" stop-color="#F9B041"/>
<stop offset="0.642857" stop-color="#F6AD3E"/>
<stop offset="0.714286" stop-color="#F3AA3B"/>
<stop offset="0.785714" stop-color="#F1A637"/>
<stop offset="0.857143" stop-color="#EEA334"/>
<stop offset="0.928571" stop-color="#EBA031"/>
<stop offset="1" stop-color="#E89D2D"/>
</linearGradient>
<linearGradient id="paint12_linear_4286_7212" x1="218" y1="84" x2="260" y2="126" gradientUnits="userSpaceOnUse">
<stop stop-color="white" stop-opacity="0.5"/>
<stop offset="0.5" stop-opacity="0"/>
<stop offset="1" stop-opacity="0.05"/>
</linearGradient>
<linearGradient id="paint13_linear_4286_7212" x1="293" y1="84" x2="335" y2="126" gradientUnits="userSpaceOnUse">
<stop stop-color="white"/>
<stop offset="0.166667" stop-color="#FDFDFD"/>
<stop offset="0.333333" stop-color="#FCFCFA"/>
<stop offset="0.5" stop-color="#FAFAF8"/>
<stop offset="0.583333" stop-color="#F8F8F5"/>
<stop offset="0.666667" stop-color="#F6F5F1"/>
<stop offset="0.75" stop-color="#F4F3EE"/>
<stop offset="0.833333" stop-color="#F2F1EB"/>
<stop offset="0.916667" stop-color="#F0EEE7"/>
<stop offset="1" stop-color="#EEECE4"/>
</linearGradient>
<linearGradient id="paint14_linear_4286_7212" x1="293" y1="84" x2="335" y2="126" gradientUnits="userSpaceOnUse">
<stop stop-color="white" stop-opacity="0.6"/>
<stop offset="0.5" stop-opacity="0"/>
<stop offset="1" stop-opacity="0.03"/>
</linearGradient>
<linearGradient id="paint15_linear_4286_7212" x1="218" y1="155" x2="260" y2="197" gradientUnits="userSpaceOnUse">
<stop stop-color="white"/>
<stop offset="0.166667" stop-color="#FDFDFD"/>
<stop offset="0.333333" stop-color="#FCFCFA"/>
<stop offset="0.5" stop-color="#FAFAF8"/>
<stop offset="0.583333" stop-color="#F8F8F5"/>
<stop offset="0.666667" stop-color="#F6F5F1"/>
<stop offset="0.75" stop-color="#F4F3EE"/>
<stop offset="0.833333" stop-color="#F2F1EB"/>
<stop offset="0.916667" stop-color="#F0EEE7"/>
<stop offset="1" stop-color="#EEECE4"/>
</linearGradient>
<linearGradient id="paint16_linear_4286_7212" x1="218" y1="155" x2="260" y2="197" gradientUnits="userSpaceOnUse">
<stop stop-color="white" stop-opacity="0.6"/>
<stop offset="0.5" stop-opacity="0"/>
<stop offset="1" stop-opacity="0.03"/>
</linearGradient>
<linearGradient id="paint17_linear_4286_7212" x1="293" y1="155" x2="335" y2="197" gradientUnits="userSpaceOnUse">
<stop stop-color="white"/>
<stop offset="0.166667" stop-color="#FDFDFD"/>
<stop offset="0.333333" stop-color="#FCFCFA"/>
<stop offset="0.5" stop-color="#FAFAF8"/>
<stop offset="0.583333" stop-color="#F8F8F5"/>
<stop offset="0.666667" stop-color="#F6F5F1"/>
<stop offset="0.75" stop-color="#F4F3EE"/>
<stop offset="0.833333" stop-color="#F2F1EB"/>
<stop offset="0.916667" stop-color="#F0EEE7"/>
<stop offset="1" stop-color="#EEECE4"/>
</linearGradient>
<linearGradient id="paint18_linear_4286_7212" x1="293" y1="155" x2="335" y2="197" gradientUnits="userSpaceOnUse">
<stop stop-color="white" stop-opacity="0.6"/>
<stop offset="0.5" stop-opacity="0"/>
<stop offset="1" stop-opacity="0.03"/>
</linearGradient>
<clipPath id="clip0_4286_7212">
<rect width="54" height="16" fill="white" transform="translate(91 96)"/>
</clipPath>
<clipPath id="clip1_4286_7212">
<rect width="35" height="16" fill="white" transform="translate(185 96)"/>
</clipPath>
<clipPath id="clip2_4286_7212">
<rect width="33" height="16" fill="white" transform="translate(262 89)"/>
</clipPath>
<clipPath id="clip3_4286_7212">
<rect width="42.5312" height="16" fill="white" transform="translate(256.91 123.898) rotate(119.578)"/>
</clipPath>
<clipPath id="clip4_4286_7212">
<rect width="33" height="16" fill="white" transform="translate(262 168)"/>
</clipPath>
</defs>
</svg>
