<svg width="43" height="43" viewBox="0 0 43 43" fill="none" xmlns="http://www.w3.org/2000/svg">
<g clip-path="url(#clip0_4217_8202)">
<path d="M13.6342 9.40967L18.0549 9.41275C18.0568 13.7968 18.0941 18.244 18.0459 22.623C18.2343 22.0477 18.507 21.4854 18.719 20.9181C19.1427 19.7847 19.589 18.6601 20.025 17.5313C20.186 17.1144 20.4427 16.6657 20.6039 16.2443C21.1315 14.8655 21.6679 13.4887 22.2005 12.1117C22.5462 11.2177 23.0156 10.3251 23.3214 9.41235L27.7378 9.41474C27.3034 10.1699 27.2249 10.4826 26.9179 11.2682L26 13.6564C25.5074 14.9356 24.969 16.1138 24.4829 17.3524C23.8441 19.0991 23.1723 20.7835 22.4299 22.4846C21.7593 24.1541 21.1595 25.8581 20.4692 27.5192C19.6365 29.5231 18.7792 31.5892 18.0547 33.6328L13.6309 33.6307L13.6198 20.5024C13.3959 21.1463 13.0661 21.7091 12.8305 22.3324C12.093 24.2836 11.3418 26.203 10.5292 28.1242C9.76725 29.9258 9.13917 31.8206 8.38562 33.6292C6.95027 33.6585 5.4161 33.6304 3.97266 33.6302L3.97785 9.41149L8.35616 9.41186L8.3575 17.7949C8.35754 19.3755 8.38152 21.0365 8.34359 22.6099C9.11398 20.8957 9.74888 18.9762 10.458 17.2214L12.7155 11.5894C13.0037 10.8749 13.3754 10.1089 13.6342 9.40967Z" fill="#242424"/>
<path d="M34.6061 3.32908C36.0396 3.29371 37.578 3.33064 39.0238 3.32292C38.8422 3.97278 38.544 4.60225 38.3053 5.23492C37.2416 8.05438 36.0168 10.8044 34.9924 13.6416C34.8249 14.1054 34.5571 14.571 34.3697 15.033L29.6216 26.9171C29.042 28.3879 28.4858 29.9468 27.8925 31.4018L25.3958 37.6916C25.1174 38.3962 24.7208 38.9451 24.5611 39.7142L20.1055 39.7177C20.9636 37.8428 21.6089 35.9584 22.3648 34.0508L27.1878 21.9692L31.9049 10.1543C32.1021 9.66356 32.367 9.15818 32.5536 8.67549C32.9935 7.53745 33.4422 6.40282 33.8699 5.26019C34.1098 4.61945 34.4066 3.9827 34.6061 3.32908Z" fill="#242424"/>
</g>
<defs>
<clipPath id="clip0_4217_8202">
<rect width="43" height="43" fill="white"/>
</clipPath>
</defs>
</svg>
