<svg width="49" height="49" viewBox="0 0 49 49" fill="none" xmlns="http://www.w3.org/2000/svg">
<g clip-path="url(#clip0_4245_1180)">
<path d="M22.0062 0H26.1058L26.1453 0.0139244C26.8988 0.272273 27.9577 0.258202 28.749 0.417381C36.0522 1.88664 42.2986 6.62147 45.6419 13.2639C46.6038 15.1973 47.3152 17.2454 47.7584 19.3587C47.9142 20.136 47.9208 21.2191 48.1852 21.9445V26.3676C47.9212 27.0142 47.8761 28.1397 47.7584 28.8636C47.6808 29.3422 47.5453 29.8155 47.4168 30.2825C46.3264 34.2337 44.3729 37.8492 41.5041 40.7944C41.0796 41.2301 40.5489 41.8861 40.017 42.1759C39.9301 42.2232 39.7941 42.2761 39.697 42.2364C39.2699 42.0615 28.3929 31.039 27.0522 29.6983L6.79082 9.44931C6.62448 9.28 6.00454 8.62628 5.96656 8.46441C5.86055 8.01212 7.28437 6.7583 7.55593 6.49602C10.4079 3.74144 14.054 1.80018 17.877 0.790601C18.4406 0.641777 19.0083 0.486238 19.5834 0.393536C20.3305 0.276922 21.2397 0.23282 21.9637 0.0131855L22.0062 0Z" fill="#242424"/>
<path d="M3.58099 11.5591C4.11836 11.5671 5.0133 12.649 5.43326 13.0637L8.9001 16.5286L29.2098 36.8467L34.6602 42.2874C35.2808 42.9178 36.0285 43.6025 36.574 44.2872C36.9787 44.7954 35.0155 45.6279 34.6373 45.7993C34.3354 45.9697 33.9533 46.1412 33.6325 46.2719C33.0612 45.8766 32.2844 45.0386 31.7777 44.5285L29.1487 41.8932L18.9062 31.649L7.20162 19.9443L4.0326 16.7807C3.44629 16.2006 2.38237 15.206 1.92578 14.5769C2.13572 13.7977 2.98878 12.1515 3.58099 11.5591Z" fill="#242424"/>
<path d="M0.86711 29.0596C1.42528 29.0545 3.09346 30.9077 3.56788 31.3764L8.33816 36.1582C11.6511 39.4988 15.0254 42.794 18.3293 46.1451C18.4975 46.3157 19.1146 46.9104 19.1309 47.1603C19.1409 47.3133 18.9486 47.4897 18.8368 47.5965C18.447 47.6742 17.3513 47.2869 16.9028 47.1467C13.2565 46.0261 9.93138 44.0493 7.20499 41.3815C4.34309 38.5928 2.22261 35.1338 1.03583 31.3182C0.868352 30.7782 0.619692 30.0453 0.559716 29.4899C0.541996 29.3258 0.738039 29.1812 0.86711 29.0596Z" fill="#242424"/>
<path d="M0 21.6068C0.00451086 21.5973 0.0092768 21.5879 0.0135326 21.5782C0.26392 21.0101 0.171545 19.118 0.729458 18.8715C0.800948 18.8399 0.866208 18.8227 0.941129 18.8538C1.55668 19.1097 10.4093 28.1453 11.5917 29.3269L28.2919 46.027C28.835 46.5806 30.0691 47.52 28.7059 47.8084C28.2675 47.9011 27.1461 47.9995 26.8132 48.1839H25.3384C24.2497 47.2056 22.8762 45.7317 21.8282 44.6752L15.6901 38.5379L6.63916 29.4868C4.39633 27.2935 2.18307 25.0701 0 22.8172V21.6068Z" fill="#242424"/>
</g>
<defs>
<clipPath id="clip0_4245_1180">
<rect width="48.1839" height="48.1839" fill="white"/>
</clipPath>
</defs>
</svg>
