<svg width="55" height="48" viewBox="0 0 55 48" fill="none" xmlns="http://www.w3.org/2000/svg">
<g clip-path="url(#clip0_4245_1132)">
<path fill-rule="evenodd" clip-rule="evenodd" d="M41.8188 0L29.5792 34.4C29.2653 35.28 28.4807 35.84 27.6177 36H40.5635C41.5835 36 42.4465 35.36 42.7603 34.4L55 0H41.8188ZM26.5977 35.44C27.3823 35.44 28.01 35.04 28.4023 34.48C28.4807 34.4 28.5592 34.24 28.7161 33.92L33.1883 21.28L30.5991 13.92C30.2853 13.12 29.5007 12.56 28.5592 12.56C27.7746 12.56 27.1469 12.96 26.7546 13.52C26.6762 13.6 26.5193 13.84 26.4408 14.08L21.9686 26.72L24.6362 34.08C24.8716 34.88 25.6562 35.44 26.5977 35.44ZM14.4365 12H27.5392C26.5977 12.08 25.7347 12.72 25.4208 13.6L13.1812 48H0L12.2397 13.6C12.5535 12.72 13.4165 12 14.4365 12Z" fill="#0090BA"/>
</g>
<defs>
<clipPath id="clip0_4245_1132">
<rect width="55" height="48" fill="white"/>
</clipPath>
</defs>
</svg>
