<svg width="49" height="49" viewBox="0 0 49 49" fill="none" xmlns="http://www.w3.org/2000/svg">
<g clip-path="url(#clip0_4245_1129)">
<path d="M21.0783 0H27.1076L27.1214 6.05244C28.3884 5.95659 30.513 6.02599 31.8611 6.02679L42.7168 6.02872L46.1994 6.0283C46.8142 6.02811 47.5881 6.0514 48.1839 6.01037V12.0491L33.2114 12.0495C33.2479 12.6822 33.25 13.4107 33.2303 14.0461C33.1895 15.3687 33.2847 16.7567 33.2096 18.0714C34.2861 18.0158 35.8702 18.0735 36.9847 18.0741L44.7347 18.0752C45.7735 18.075 47.1934 18.1216 48.1839 18.0563V24.0951L33.2113 24.0955C33.248 24.7286 33.2497 25.4562 33.2303 26.092C33.1901 27.4152 33.2838 28.8017 33.2099 30.1173C34.2771 30.0625 35.8365 30.1194 36.9411 30.12L44.6779 30.1211C45.7169 30.1209 47.2032 30.1705 48.1839 30.1023V36.141L33.2112 36.1415C33.248 36.7745 33.2497 37.5023 33.2303 38.138C33.19 39.4612 33.2839 40.8478 33.2099 42.1632C34.2792 42.1084 35.8578 42.1654 36.9653 42.166L44.6709 42.167C45.7125 42.1668 47.2004 42.2164 48.1839 42.1483V48.1839H27.0959C27.0528 47.8582 27.0635 47.0865 27.063 46.7372L27.063 44.1686L27.0627 35.6232L27.0593 6.03545C25.7795 6.01974 24.488 6.06053 23.2078 6.05667C22.5708 6.0547 21.7993 6.08961 21.1753 6.0243C21.1033 6.74856 21.1479 8.47462 21.1457 9.25596L21.1411 16.0256L21.1421 37.5272L21.1432 44.4605C21.1434 45.5707 21.1917 47.1087 21.1242 48.1839H0V42.1538C4.91226 42.2 10.0657 42.2052 14.975 42.1504C14.9623 40.9596 14.9577 39.7687 14.9612 38.5777C14.9573 37.8795 14.9156 36.8063 14.9754 36.1364C13.3307 36.1787 11.5119 36.1426 9.85496 36.1427L0 36.1426V30.1079C4.91207 30.154 10.0659 30.1593 14.9749 30.1045C14.9623 28.9138 14.9577 27.7231 14.9612 26.5324C14.9573 25.8331 14.9158 24.7615 14.9754 24.0905C13.3306 24.1327 11.512 24.0967 9.85496 24.0967L0 24.0966V18.0619C4.91061 18.1079 10.0676 18.1138 14.9752 18.0585C14.9622 16.8676 14.9576 15.6767 14.9612 14.4858C14.9573 13.7872 14.9157 12.7149 14.9754 12.0445C13.3307 12.0868 11.5118 12.0507 9.85496 12.0508L0 12.0507V6.01588L13.9585 6.02811L18.076 6.02891C19.0058 6.02886 20.1981 6.06952 21.0922 5.91617C21.0198 4.06127 21.0749 1.87587 21.0783 0Z" fill="#242424"/>
</g>
<defs>
<clipPath id="clip0_4245_1129">
<rect width="48.1839" height="48.1839" fill="white"/>
</clipPath>
</defs>
</svg>
